<svg xmlns="http://www.w3.org/2000/svg" viewBox="0 0 35.17 50"><g id="Layer_2" data-name="Layer 2"><g id="Layer_1-2" data-name="Layer 1"><path class="cls-1" d="M33.52,11.38,29.24,6.77A5.37,5.37,0,0,1,28,3.85L28,1.05s0-.06,0-.09a1,1,0,0,0,0-.11l0-.09a1,1,0,0,0,0-.11l0-.07L27.77.49l0,0-.09-.1,0,0L27.49.21l-.06,0L27.31.12l-.09,0-.11,0h-.19L9.62,0h0L9.4,0h0l-.15,0,0,0L9,.18l0,0L8.88.3l0,0L8.75.46l0,.06L8.66.63l0,.08a1,1,0,0,0,0,.12s0,.06,0,.09a1,1,0,0,0,0,.11h0V2.9A5,5,0,0,1,7.46,5.61l-5.33,5.9A7.41,7.41,0,0,0,.45,15.81L0,40.82a4.29,4.29,0,0,0,2.57,3.8l12.73,5a6.85,6.85,0,0,0,2.4.39,6.68,6.68,0,0,0,2.21-.34l12-4.35a4.28,4.28,0,0,0,2.66-3.74l.64-25.88A7,7,0,0,0,33.52,11.38Zm-7.6-9.26L26,3.91a5.36,5.36,0,0,0,.13,1l-15.7-.5a5.31,5.31,0,0,0,.24-1.48V2.07ZM32,12.79l.1.12L20.79,14.14s7-4.4,7.23-4.18ZM9,7a5.42,5.42,0,0,0,.45-.57l15.31.49-7,7.48-14-1.54ZM3.32,42.69a2.21,2.21,0,0,1-1.25-1.85l.45-25a3.92,3.92,0,0,1,.17-1L17.07,16.4l-.49,31.42a3.24,3.24,0,0,1-.52-.15Zm29.14-1.15a2.21,2.21,0,0,1-1.29,1.82l-12,4.35a3.28,3.28,0,0,1-.55.14l.49-31.45L33,14.89a3.35,3.35,0,0,1,.1.77Z"/></g></g></svg>