<svg xmlns="http://www.w3.org/2000/svg" viewBox="0 0 499.89 488.2"><g id="Layer_2" data-name="Layer 2"><g id="Layer_1-2" data-name="Layer 1"><path d="M489.16,299c-20.5-21.1-65.4-22.9-149.6-6-30.4-18.2-55.2-39.3-70.2-59.6-12.9-17.5-24.6-38.4-34.4-60.1,30.4-81,37-132.3,20.2-156.8-5-7.3-14.7-15.8-32-16.3-.5,0-.9-.2-1.4-.2h0c-.5,0-.9.2-1.5.2A49.2,49.2,0,0,0,210,1.5a42.35,42.35,0,0,0-27.1,18.6c-25.4,40.1,6.6,121.3,21.4,154.2C193,204.9,179.46,236.9,165,267l-9.5,20c-9.1,19.2-20.3,42.8-32.3,66.1-76,29-116,57.1-122.3,85.7-2,9.3-1.5,23.3,12.4,37.4,7.8,7.9,17.2,12,27.1,12,29.2,0,60.8-35,102.2-113.4,30.8-11.3,66.5-22.3,101-31.2,31.2-8,61.7-15.7,91.4-22,43.7,24.5,89.6,39.7,120.8,39.7,40,0,43.9-25.2,44.1-33C500.26,316.7,496.56,306.6,489.16,299ZM40.36,461.1c-1.7,0-4.3-.4-7.9-4-6.5-6.6-5.6-10.7-5.2-12.5,1.3-5.9,10.7-25.4,75.5-53.9C66.16,453.6,47.26,461.1,40.36,461.1Zm181.4-434c5.1.1,7.3,1.8,8.8,4.4,8.9,14.5,2.8,53.3-11.7,100.6-13.6-41.3-18.7-79.6-9.8-97.2,2.1-4.1,4.7-6.4,8.4-7.3A18.14,18.14,0,0,1,221.76,27.1Zm78.6,274.5c-20.9,4.9-42.1,10.3-63.5,15.8-25.5,6.5-51.6,14.2-76,22.4l.5-.9-.7.3c7.1-14.5,13.7-28.4,19.5-40.6l9.4-19.8c.9-1.9,2.1-4.4,3.4-7.1,8-16.9,17.9-38.5,27.9-62.5l.3.6.5-1.3a386,386,0,0,0,26.1,41c14.9,20.4,35.1,37.7,54.3,51.4l-2.2.5Zm155.5,32.6c-19.3,0-47.6-7.9-76.8-20.8,20.2-3.1,37.2-4.7,51.2-4.7,26.8,0,36.2,5.7,39.5,9.1,1.5,1.6,3.3,4.1,3.1,9.6C472.76,331.9,467,334.2,455.86,334.2Z"/></g></g></svg>