<svg xmlns="http://www.w3.org/2000/svg" viewBox="0 0 44 60"><defs><style>.cls-1{fill:#4d4d4d;}</style></defs><g id="Layer_2" data-name="Layer 2"><g id="Icon"><path class="cls-1" d="M39.36,44.27,44,45.75V60l-8.24-2.06a1.39,1.39,0,0,1-.85-.63,1.34,1.34,0,0,1-.14-1.05l3-11.14a1.23,1.23,0,0,1,1.56-.85ZM35.74,33.78c.75-1.71.2-2.94-.8-3.48-1.23-.66-2.67-.29-4.51,2.83-1.18,2-2.05,4.48-5.09,4.3-4.83-.28-8.95-4.19-12.51-6.33-4-2.44-5.81-.31-4.2,1.51,1,1.16,9,11.54,12.93,14.43,2.94,2.17,5.19,2.17,8.06,4a13.77,13.77,0,0,1,3.5,3l2.69-9.7A12.38,12.38,0,0,1,35.74,33.78ZM42,26.52v1a.52.52,0,0,1-.52.52H.52A.52.52,0,0,1,0,27.48v-1A.52.52,0,0,1,.52,26H2V15.42L17,5.8l11.83,7.53A4.18,4.18,0,0,0,31.1,14H40V26h1.48A.52.52,0,0,1,42,26.52Zm-10-7a.44.44,0,0,0,.44.44h3.12a.44.44,0,0,0,.44-.44V16.44a.44.44,0,0,0-.44-.44H32.44a.44.44,0,0,0-.44.44Zm-8,0a.44.44,0,0,0,.44.44h3.12a.44.44,0,0,0,.44-.44V16.44a.44.44,0,0,0-.44-.44H24.44a.44.44,0,0,0-.44.44Zm-18,0a.44.44,0,0,0,.44.44H9.56a.44.44,0,0,0,.44-.44V16.44A.44.44,0,0,0,9.56,16H6.44a.44.44,0,0,0-.44.44ZM14.52,26h5a.52.52,0,0,0,.52-.52v-9a.52.52,0,0,0-.52-.52h-5a.52.52,0,0,0-.52.52v9A.52.52,0,0,0,14.52,26ZM.77,12.6A.88.88,0,0,0,2,12.87L17,3.23l8.48,5.44,4.63,3A2.2,2.2,0,0,0,31.3,12H41.49a.53.53,0,0,0,.48-.31.47.47,0,0,0-.15-.53L33.88,4.37A1.77,1.77,0,0,0,32.79,4h-9.2L17.66.19a1.26,1.26,0,0,0-1.32,0L8,5.55V2.85A.85.85,0,0,0,7.14,2H5.85A.85.85,0,0,0,5,2.85V7.48L.4,10.43A.93.93,0,0,0,0,11a.89.89,0,0,0,.12.66Z"/></g></g></svg>