<svg xmlns="http://www.w3.org/2000/svg" viewBox="0 0 500 319.13"><g id="Layer_2" data-name="Layer 2"><g id="Layer_1-2" data-name="Layer 1"><path d="M87.1,267.4c-3-2.2-12.2-8.4-19.5-15.3L50,235.5a297,297,0,0,1-24.6-26.8L22,204.4c-6.2-7.9-14-19.3-17.2-25.3S-.5,162.8.1,156.4s4-15.7,7.5-20.6,9.8-13.8,14.3-19.6,12-14.9,16.8-20.2S51.3,82.6,56.1,78s14.7-13,22-18.6S96.6,45.9,102.9,42s15.8-9.4,21.1-12.1,11.5-6.3,14-7.5c17-8.1,47.8-18,71.1-20.2,6.4-.6,16.8-2.2,23.3-2.2h23.3a188.62,188.62,0,0,1,24.2,1.9c7,1,16.9,2.7,22,3.7s13.4,2.7,18.3,3.7a150.62,150.62,0,0,1,20.2,6.2c6.2,2.4,16.6,6.6,23.3,9.3s19,9.2,27.3,14.3a299.79,299.79,0,0,1,26.1,18c6,4.8,16.2,13.3,22.7,18.9a308.89,308.89,0,0,1,23.6,23.6c6.5,7.3,15,17.8,18.9,23.3a216,216,0,0,1,12.4,19.9c2.9,5.5,5.3,13.8,5.3,18.6s-2.4,12.6-5.3,17.4S485.6,192.7,481,199s-13.1,16.8-18.9,23.3-16.7,17.3-24.1,24l-3.9,3.5A294.15,294.15,0,0,1,405.3,272l-1.8,1.2c-8.4,5.5-22.3,13.4-30.8,17.7C269.7,343.8,152.6,314.5,87.1,267.4Zm262.3.6c3.8-1.8,10.8-4.7,15.2-7.1s11.7-6.6,16.1-9.3,11.7-7.6,16.1-10.9,10.7-8,14-10.6,8.8-7.6,12.4-11.2,10.4-11,15.2-16.5,11.2-13.1,14.3-17.1,8-10.5,10.9-14.6,4.3-9,3.1-11-3.9-6-5.9-9-6.1-8.5-9-12.3-8.2-10.2-11.8-14.3-10.3-11.2-14.9-15.8S411.8,96,405.9,91.2,391.1,80,386.3,76.9s-12.6-7.8-17.4-10.6a176.32,176.32,0,0,0-18.6-8.7c-5.5-2-7-.1-3.4,4.3A166.56,166.56,0,0,1,359,79.6a145.42,145.42,0,0,1,9.6,21.1,153.27,153.27,0,0,1,5.9,26l.7,5.2a139.58,139.58,0,0,1,0,28.9v.2c-1,8-3.8,19.2-6.2,25a184.12,184.12,0,0,1-12.1,22.9l-.1.1c-4.3,6.8-11.5,18-17.9,22.8-42.7,32.7-118.1,76-196-11.2C95,167,119.8,85.4,150.4,56.6c7.4-7-1.2-7.5-16,2.7S84.9,79.8,37.5,148.8c-6.3,9.1-1.1,16,6.8,26.8C52.3,186.8,180.8,349.7,349.4,268ZM329.2,166.8l6.8-.8,5-3.2,3.3-3.8,2.8-5.5.8-9.8-.8-10-3.3-13.3-4.3-12.5-8-14.5-8-10.5-8-8.3-12-10-13.8-8.3-14.8-6-11.8-2.8-13-2.3-9,.8-7.3,3-3.5,3.3-3.3,5v4l.8,5.3,2.8,5.5,5.8,4.5,10,3,7.8.8,12,2L280,88.7l8.8,6.5,8.3,7.8,6,7.8,4.8,8.3,3.3,9,2,7.5.8,5.3.3,5.8,1.5,7.8.5,4.3,3.5,3.5Z"/></g></g></svg>