<svg xmlns="http://www.w3.org/2000/svg" viewBox="0 0 295.36 342.42"><g id="Layer_2" data-name="Layer 2"><g id="Web_Contact_Icons" data-name="Web Contact Icons"><path d="M220.81,114.11c-1.89,18.5-7.21,34.61-15.56,47.39a74.58,74.58,0,0,1-8.61,10.87c-.15.16-.3.32-.46.47a63.76,63.76,0,0,1-46.49,19.44h-3.52a64.43,64.43,0,0,1-46.75-19.44l-.5-.51a74.76,74.76,0,0,1-8.65-10.82c-8.45-12.8-13.83-28.92-15.72-47.4-.42-4.07-.72-22.18-.72-28.62,0-26.88,7.35-49.08,21.27-64.21C107.87,7.4,125.53,0,146.14,0h3.05c20.64,0,38.31,7.4,51.07,21.28,13.92,15.13,21.27,37.33,21.27,64.21C221.53,91.93,221.23,110,220.81,114.11Z"/><path d="M286.92,240.11a69.38,69.38,0,0,0-24.7-31c-10.49-7.41-23.87-13-40.62-16.86q-1.29,1.72-2.64,3.39a96.39,96.39,0,0,1-31.38,25.75,84,84,0,0,1-37.87,9H146a84.56,84.56,0,0,1-38-9,97.15,97.15,0,0,1-31.54-25.72q-1.37-1.68-2.7-3.44c-16.76,3.88-30.14,9.46-40.64,16.87a69.38,69.38,0,0,0-24.7,31C2.76,253.8,0,270.69,0,291.72v.58c42.79,31.75,93.42,50.12,147.68,50.12s104.89-18.37,147.68-50.12v-.58C295.36,270.69,292.6,253.8,286.92,240.11Z"/></g></g></svg>