<svg xmlns="http://www.w3.org/2000/svg" viewBox="0 0 17.05 22.34"><defs><style>.cls-1{fill:#bd0711;}</style></defs><g id="Layer_2" data-name="Layer 2"><g id="Design_2" data-name="Design 2"><path class="cls-1" d="M16.25,12.64a9.08,9.08,0,0,0-2.7-3.53,6.63,6.63,0,0,1-.71,4.17c-.75,1.27-1.63,1.53-2.31,2.46s-1.28,2.91,0,6.6A4.45,4.45,0,0,1,11.29,19c.67-.81,1.52-.95,2.3-2.09a5.17,5.17,0,0,0,.8-2,4.63,4.63,0,0,1,1.2,2.73,5.13,5.13,0,0,1-.38,2.16,4.29,4.29,0,0,1-1,1.38A6.41,6.41,0,0,0,16.73,18,7.5,7.5,0,0,0,16.25,12.64Z"/><path class="cls-1" d="M10.2,4.65A11.88,11.88,0,0,0,7.3,0a5,5,0,0,1,0,2A5.42,5.42,0,0,1,6.14,4.16c-1.28,1.71-2.39,3-2.71,3.34C1.88,9.32.72,10.65.25,12.63a7.53,7.53,0,0,0,.41,5,6.66,6.66,0,0,0,2.12,2.48,5.3,5.3,0,0,1-1.34-4.52,6.65,6.65,0,0,1,4.91-5,7.65,7.65,0,0,0-1.6,6A7.47,7.47,0,0,0,7.83,21.3c-.72-1.77-1.25-4.05-.33-6.08.77-1.73,1.9-1.76,2.78-3.7C11.55,8.72,10.56,5.74,10.2,4.65Z"/></g></g></svg>