<svg xmlns="http://www.w3.org/2000/svg" viewBox="0 0 64 54"><defs><style>.cls-1{fill:#4d4d4d;}</style></defs><g id="Layer_2" data-name="Layer 2"><g id="Icon"><path class="cls-1" d="M32,11.76l24,20.8V50a4,4,0,0,1-4,4H38V37a1,1,0,0,0-1-1H27a1,1,0,0,0-1,1V54H12a4,4,0,0,1-4-4V32.57Zm22,3.51V5.78A1.79,1.79,0,0,0,52.21,4H47.78A1.78,1.78,0,0,0,46,5.78V8.34Zm9.52,13.87a1.77,1.77,0,0,0-.14-2.56L33.25.46a1.94,1.94,0,0,0-2.5,0L.62,26.58a1.77,1.77,0,0,0-.14,2.56L2.57,31.4a1.93,1.93,0,0,0,2.65.14L32,8.32,58.78,31.54a1.93,1.93,0,0,0,2.65-.14Z"/></g></g></svg>