<svg xmlns="http://www.w3.org/2000/svg" viewBox="0 0 500 346.15"><g id="Layer_2" data-name="Layer 2"><g id="Layer_1-2" data-name="Layer 1"><g id="Layer_2-2" data-name="Layer 2"><g id="Layer_1-2-2" data-name="Layer 1-2"><path d="M500,327.52,369.33,199,325.5,242.09c-17.54,17.28-38.76,33.26-75,33.26s-57.46-16-75-33.26L131.68,199,0,328.51v1.91a15.88,15.88,0,0,0,16,15.73H485A16,16,0,0,0,497.58,340a20.5,20.5,0,0,0,2.42-9.52Z"/><path d="M0,15.73v1.89L207.93,222.23a60.91,60.91,0,0,0,85.15,0L500,18.62V15.84a20.51,20.51,0,0,0-2.74-10.11A16,16,0,0,0,485,0H16A15.88,15.88,0,0,0,0,15.73Z"/><polygon points="0 70.31 0 275.86 105.19 173.09 0 70.31"/><polygon points="500 274.87 500 71.3 395.82 173.09 500 274.87"/></g></g></g></g></svg>