<svg xmlns="http://www.w3.org/2000/svg" viewBox="0 0 77.86 68.94"><g id="Layer_2" data-name="Layer 2"><g id="Layer_1-2" data-name="Layer 1"><path class="cls-1" d="M74.76,31.13A25,25,0,0,0,76,28.53c.91-2.9-2.48-10.94-5.24-12.27a12.44,12.44,0,0,0-2.28-.61C69.76,18.54,71.81,23.35,74.76,31.13Z"/><path class="cls-1" d="M37.15,58.64c-.25-2.21-.31-4.44-.48-7.43,2.14-1,2.94-1.34,5.15-2.16C38.57,36.63,34.08,29.4,31.47,25.84c-6.9,3-12.34,5.19-19.27,8.1-6.39,2.68-8.35,7.28-5.79,13.58.76,1.87,1.5,3.75,2.29,5.6,1.45,3.43,6.34,5.82,10,5.46a6.49,6.49,0,0,1,4.53,1.63c2.38,2.26,4.21,5.08,6.52,7.44,2.05,2.09,6.88,1.57,9.46-.89s.26-4.08-1-5.93A5.29,5.29,0,0,1,37.15,58.64Z"/><path class="cls-1" d="M77.65,47c-1.34-4.1-3.33-8-4.71-12.07a1.61,1.61,0,0,1-.07-.44c-4.24-11.38-6.79-17-8-19.54a.92.92,0,0,1-.1-.16l-.18-.4c-.46-.89-.67-1.24-.68-1.25l.09-.06C62.31,9.27,60.9,5.38,59.14,1.65A3.76,3.76,0,0,0,55.85,0c-.91.26-1.64,1.92-2,3.11-.51,1.55-.27,3.38-.94,4.83A29.17,29.17,0,0,1,38.07,23L35.94,24c2.75,3.82,7.36,11.17,10.56,23.42,7.51-2.55,13.89-3.15,22.35.14,1.4.54,2.56,1.69,3.92,2.36S76,52.11,77,51.46,78.07,48.26,77.65,47Z"/><path class="cls-1" d="M6.75,55.61S2.26,46.8,2.59,43.75c0,0-3.82,1.26-2.18,7.16S6.16,55.63,6.75,55.61Z"/></g></g></svg>