<svg xmlns="http://www.w3.org/2000/svg" viewBox="0 0 62 56"><defs><style>.cls-1{fill:#4d4d4d;}</style></defs><g id="Layer_2" data-name="Layer 2"><g id="Icon"><path class="cls-1" d="M34,25.54a.46.46,0,0,1-.46.46H10.46a.45.45,0,0,1-.46-.46V24.46a.45.45,0,0,1,.46-.46H33.54a.46.46,0,0,1,.46.46ZM40,51a1,1,0,0,1-1,1H5a1,1,0,0,1-1-1V14h6a4,4,0,0,0,4-4V4H39a1,1,0,0,1,1,1V20.1l4-4V4a4,4,0,0,0-4-4H13.66a4,4,0,0,0-2.83,1.17L1.17,10.83A4,4,0,0,0,0,13.66V52a4,4,0,0,0,4,4H40a4,4,0,0,0,4-4V35.9l-4,4ZM11,46a1,1,0,0,0,1-1c.13-3.29,1.3-4.93,1.74-4.93s.41,1.46.46,2.89c.14,3.44.2,5,1.6,5s2.3-1.35,2.91-2.34l.25-.4.23.41A4.34,4.34,0,0,0,22.75,48a.74.74,0,0,0,.53-.22l.9-.89c2.14.47,7-2.44,12-7.44L38,37.62,32.38,32,30.55,33.8c-5,5-7.91,9.88-7.44,12l-.36.37c-1.16,0-1.54-.63-2-1.5-.32-.58-.48-1.24-1.15-1.58-1.27-.66-2.1.69-2.59,1.5a8.56,8.56,0,0,1-.65,1c-.07-.73-.15-1.8-.15-2.66,0-2.7-.27-4.92-2.18-4.92-3.4,0-3.93,4.84-4,7A1,1,0,0,0,11,46ZM61.6,19.2a1.33,1.33,0,0,0-1.9,0l-1.19,1.18-1.62-1.61,1.94-1.94a4,4,0,0,0-5.66-5.66L33.93,30.41l5.66,5.66L55,20.67l1.62,1.62-9.53,9.53a1.36,1.36,0,0,0,0,1.91c.53.53,7-5.13,14.54-12.62A1.35,1.35,0,0,0,61.6,19.2ZM34,14.05a.44.44,0,0,0-.16-.34L27.25,8.09a.39.39,0,0,0-.5,0l-6.59,5.62a.44.44,0,0,0-.16.34v.52a.43.43,0,0,0,.43.43H22v4.21a.81.81,0,0,0,.84.79H26V16.2a.21.21,0,0,1,.22-.2h1.56a.21.21,0,0,1,.22.2V20h3.16a.81.81,0,0,0,.84-.79V15h1.57a.43.43,0,0,0,.43-.43ZM10.46,30H30.1l2-2H10.46a.46.46,0,0,0-.46.46v1.08A.46.46,0,0,0,10.46,30ZM10,33.54a.46.46,0,0,0,.46.46H26.25c.72-.82,1.36-1.5,1.86-2H10.46a.46.46,0,0,0-.46.46Z"/></g></g></svg>