<svg xmlns="http://www.w3.org/2000/svg" viewBox="0 0 6.5 13"><defs><style>.cls-1{fill:#6ca7da;}</style></defs><g id="Layer_2" data-name="Layer 2"><g id="Layer_1-2" data-name="Layer 1"><path class="cls-1" d="M0,0H1.63V.81H0ZM2.44,0V.81H4.06V0ZM0,4.06H1.63V2.44H0Zm2.44,0H4.06V2.44H2.44ZM0,7.31H1.63V5.69H0Zm2.44,0H4.06V5.69H2.44ZM0,10.56H1.63V8.94H0Zm2.44,0H4.06V8.94H2.44ZM0,13H1.63v-.81H0Zm2.44,0H4.06v-.81H2.44ZM4.88,0V.81H6.5V0Zm0,4.06H6.5V2.44H4.88Zm0,3.25H6.5V5.69H4.88Zm0,3.25H6.5V8.94H4.88Zm0,2.44H6.5v-.81H4.88Z"/></g></g></svg>