<svg xmlns="http://www.w3.org/2000/svg" viewBox="0 0 64 56"><defs><style>.cls-1{fill:#4d4d4d;}</style></defs><g id="Layer_2" data-name="Layer 2"><g id="Icon"><path class="cls-1" d="M62.94,52H60V10a1.82,1.82,0,0,0-1-1.62L54.52,6.18A1.65,1.65,0,0,0,53.43,6L42,8.48V4a1.82,1.82,0,0,0-1-1.62L36.52.18A1.65,1.65,0,0,0,35.43,0l-12,2.57A1.79,1.79,0,0,0,22,4.37V13.8l-3.52-1.64a1.66,1.66,0,0,0-1-.13l-12,2.23A1.79,1.79,0,0,0,4,16V52H1.06A1.07,1.07,0,0,0,0,53.06v1.88A1.07,1.07,0,0,0,1.06,56H62.94A1.07,1.07,0,0,0,64,54.94V53.06A1.07,1.07,0,0,0,62.94,52ZM34,21.86v4l-10,1.2V23.23Zm-10-.55V17.48l10-1.62v4Zm10,6.55v4l-10,1V29Zm0,6v4l-10,.83V34.81Zm0,6v4l-10,.65V40.63Zm0,6v4l-10,.47V46.45Zm18-24v4L42,27.31V23.48Zm-10-.29V17.74l10-1.88v4Zm10,6.29v4l-10,1.2V29.23Zm0,6v4l-10,1V35Zm0,6v4l-10,.83V40.81Zm0,6v4l-10,.65V46.63Zm0-36v4l-10,2V12ZM24,6,34,3.86v4l-10,2Zm0,5.74L34,9.86v4L24,15.57V11.74ZM6,17.6l10-1.74v4L6,21.43Zm0,5.74,10-1.48v4L6,27.17Zm0,5.75,10-1.23v4l-10,1Zm0,5.74,10-1v4l-10,.8ZM6,40.6l10-.74v4L6,44.48Zm0,5.81,10-.55v4L6,50.29Z"/></g></g></svg>