<svg xmlns="http://www.w3.org/2000/svg" viewBox="0 0 453.45 499.98"><g id="Layer_2" data-name="Layer 2"><g id="Layer_1-2" data-name="Layer 1"><path class="cls-1" d="M415.77,329.08c-43.9-10.5-127.3-36.1-127.3-36.1s2.5,72.2-3.8,92.4c-4.2,13.5-16.3,41-31,66.1l-6.3-76.2-11.9-21.1,5.7-5.7,4.5-15.3-13-9.6h-13.2L207,333.77l3.4,14.8,7.9,5.7-11.9,23.1-6.3,73c-15.2-24.1-28.4-49.9-32.4-63-6.3-20.2-3.8-93.7-3.8-93.7s-79.4,25-123.5,36.1c-24.8,13.9-41.6,109.6-40.3,124.3,1.5,17,146.2,45.9,223.8,45.9,109.2,0,228.1-29.5,229.5-46.6C454.87,438.68,434.87,343.18,415.77,329.08Z"/><path class="cls-1" d="M283.07,177.37A12.62,12.62,0,0,0,280,172a7,7,0,0,0-4.9-2h-.4a10.28,10.28,0,0,0-1.7.1,12.88,12.88,0,0,0-2.5.6,21.16,21.16,0,0,0-2.9,1.1,25.86,25.86,0,0,0-3.3,1.7,44.09,44.09,0,0,0-12,9.7,41.26,41.26,0,0,0-7,12.1,58.9,58.9,0,0,0-3.3,13.6,100.33,100.33,0,0,0-.8,14.1,103.48,103.48,0,0,0,.5,10.4,43.73,43.73,0,0,0,1.8,8.8c.9,2.5,2,4.9,3.3,6.2,2.8,2.8,6.4,1.9,9.8.6a22.39,22.39,0,0,0,2.9-1.2,33.72,33.72,0,0,0,3.2-1.7,41.33,41.33,0,0,0,11.8-10.1,46.63,46.63,0,0,0,6.9-12.4,59.54,59.54,0,0,0,3.2-13.8,117.63,117.63,0,0,0,.8-14,97.8,97.8,0,0,0-.4-10A77.24,77.24,0,0,0,283.07,177.37Z"/><path class="cls-1" d="M225.87,63.57c-5.6-3.2-11.5-2.3-18.8,1.9l-17.5,10.1,15.4,8.9,17.5-10.1C229.77,70.17,231.37,66.78,225.87,63.57Z"/><path class="cls-1" d="M98.87,237.48l120,69.3c4.4,2.5,11.6,2.5,16,0l120-69.3c4.4-2.5,8-8.8,8-13.9V85c0-5.1-3.6-11.3-8-13.9L262.77,18c-4.4-2.5-11.6-6.7-16-9.3l-11.9-6.8c-4.4-2.5-11.6-2.5-16,0l-120,69.3c-4.4,2.5-8,8.8-8,13.9v138.6C90.87,228.67,94.47,235,98.87,237.48Zm191.8-26.9a73,73,0,0,1-4.1,15.8,50.3,50.3,0,0,1-8.4,14.2,57,57,0,0,1-14,11.6c-9.9,6.2-17,7-22.3,2.4a20.14,20.14,0,0,1-4.7-7.6,42.24,42.24,0,0,1-2.2-10.1,107.37,107.37,0,0,1-.6-12.1,118,118,0,0,1,1.1-16.5,70.55,70.55,0,0,1,4.2-15.7,53.76,53.76,0,0,1,8.6-14,52.06,52.06,0,0,1,14.1-11.2q2.25-1.2,4.2-2.1a22.15,22.15,0,0,1,3.8-1.4,24.89,24.89,0,0,1,3.5-.8,22.85,22.85,0,0,1,2.5-.2h.6a11.22,11.22,0,0,1,7.5,3,18.43,18.43,0,0,1,4.5,7,39.15,39.15,0,0,1,2.1,9.6,96.38,96.38,0,0,1,.6,11.5A106.54,106.54,0,0,1,290.67,210.58Zm18.7-65.7a52.9,52.9,0,0,1,8.5-5.8c1.7-1,3.5-1.9,5.2-2.7s3.5-1.6,5.2-2.2a53.44,53.44,0,0,1,5.2-1.8c1.8-.5,3.5-1,5.3-1.4l2.1-.5v16l-6,3.5V139c-1.2.3-2.2.7-3.2,1-1.6.5-3.1,1.1-4.4,1.6s-2.6,1.1-3.9,1.7-2.5,1.3-3.7,2a45.2,45.2,0,0,0-8.3,5.9,30.06,30.06,0,0,0-5.2,6.2,21,21,0,0,0-2.6,6.2,22.55,22.55,0,0,0-.8,5.8,11.42,11.42,0,0,0,.6,3.9,5.24,5.24,0,0,0,1.6,2.2,6.81,6.81,0,0,0,2.4,1.3,13.4,13.4,0,0,0,3.1.5h.7a12.1,12.1,0,0,0,1.9-.1,20.24,20.24,0,0,0,2.6-.4c.9-.2,1.7-.3,2.5-.5s1.5-.4,2.1-.6c.9-.3,1.8-.5,2.7-.8l2.7-.6a25.12,25.12,0,0,1,2.7-.4,12.1,12.1,0,0,1,1.9-.1h.7a14.29,14.29,0,0,1,4.3.8,9.12,9.12,0,0,1,3.6,2.4,12.18,12.18,0,0,1,2.4,4.2,20.32,20.32,0,0,1,.8,5.8,34.93,34.93,0,0,1-1.7,10.5,42.22,42.22,0,0,1-4.6,9.6,42.8,42.8,0,0,1-7.1,8.3,50.14,50.14,0,0,1-9,6.7c-1.7,1-3.5,2-5.4,2.9s-3.7,1.8-5.6,2.6-3.8,1.6-5.7,2.2-3.8,1.2-5.6,1.7l-2.2.5v-16.1l6-3.5v10.8c1.2-.4,2.4-.8,3.5-1.2,1.7-.6,3.3-1.3,4.9-1.9s2.9-1.3,4.3-2,2.7-1.4,4-2.2a39.17,39.17,0,0,0,8.4-6.5,33.9,33.9,0,0,0,5.4-7.2,28.71,28.71,0,0,0,2.9-7.1,23.23,23.23,0,0,0,.9-6.2,11.42,11.42,0,0,0-.6-3.9,6.75,6.75,0,0,0-1.3-2.2,5.61,5.61,0,0,0-2-1.2,7.1,7.1,0,0,0-2.6-.4h-.5a10.87,10.87,0,0,0-1.8.1,20,20,0,0,0-2.4.4c-.8.2-1.6.3-2.3.5s-1.5.4-2.1.6a21.29,21.29,0,0,1-2.7.7,23.26,23.26,0,0,1-2.8.5,13.33,13.33,0,0,1-2.8.3c-.6,0-1.3.1-1.9.1h-.9a17.19,17.19,0,0,1-4.8-.8,9.91,9.91,0,0,1-4.1-2.4,11.08,11.08,0,0,1-2.8-4.2,16.07,16.07,0,0,1-1-6,32.71,32.71,0,0,1,1.7-10.3,36.25,36.25,0,0,1,4.7-8.9A64.06,64.06,0,0,1,309.37,144.87Zm-117.9-91.5c21.8-12.6,41.5-14.7,56-6.3,9.3,5.4,10.6,13,4.9,19.9l.3.1c13.1-4.3,27.5-4.7,39,2,15.3,8.8,12.7,20.8-9.1,33.4l-46.9,27.1-88-50.8Z"/><path class="cls-1" d="M260.27,94.17c7.2-4.1,10.7-8,3.3-12.2-7.2-4.2-14-2.2-21.6,2.2L223.17,95l17.9,10.3Z"/></g></g></svg>