<svg xmlns="http://www.w3.org/2000/svg" viewBox="0 0 48 55.98"><defs><style>.cls-1{fill:#4d4d4d;}</style></defs><g id="Layer_2" data-name="Layer 2"><g id="Icon"><path class="cls-1" d="M47,8.83C41,8.61,33.35,6.44,24.62.2a1.05,1.05,0,0,0-1.24,0C14.65,6.44,7,8.61,1,8.83A1.05,1.05,0,0,0,0,9.89V30.06C0,47,20.68,54.87,23.65,55.92a1.08,1.08,0,0,0,.71,0C27.33,54.87,48,47,48,30.06V9.89A1.05,1.05,0,0,0,47,8.83ZM38.13,25.7a.74.74,0,0,1,.06,1.09l-1.11,1.35a.85.85,0,0,1-1.16.06L24,18.13,12.08,28.2a.84.84,0,0,1-1.15-.06L9.81,26.79a.74.74,0,0,1,.07-1.09L23.45,14a.9.9,0,0,1,1.1,0L30,18.58V16.77a.79.79,0,0,1,.78-.79h2.44a.79.79,0,0,1,.78.79v5.39ZM34,29.65s0,0,0,0v6.56A1.69,1.69,0,0,1,32.41,38H26V30.31a.31.31,0,0,0-.31-.31H22.31a.31.31,0,0,0-.31.31V38H15.59A1.69,1.69,0,0,1,14,36.22V29.65l.06,0,10-8.52Z"/></g></g></svg>