<svg xmlns="http://www.w3.org/2000/svg" viewBox="0 0 18.1 26.22"><defs><style>.cls-1{fill:#fff;}</style></defs><g id="Layer_2" data-name="Layer 2"><g id="Design_2" data-name="Design 2"><path class="cls-1" d="M17.71,11.82H13.8A3.6,3.6,0,0,0,12.62,8.6a11.08,11.08,0,0,1-1.4-1.37A4.22,4.22,0,0,1,10.65,4,2.23,2.23,0,0,1,15,4a4.22,4.22,0,0,1-.57,3.24c-.7.84-.39,1.19-.39,1.19.83,1.09,2.16.77,3,1.38A2.3,2.3,0,0,1,17.71,11.82ZM5.37,7.61c-.73,1-1.78,1-2.71,1.28a3,3,0,0,0-1,.44,2.83,2.83,0,0,0-.81,2.49H12.91s.27-1.73-.8-2.49a2.83,2.83,0,0,0-1-.43c-.93-.25-2-.31-2.73-1.29,0,0-.38-.43.48-1.47a5.27,5.27,0,0,0,.71-4A2.69,2.69,0,0,0,6.87,0,2.7,2.7,0,0,0,4.18,2.14a5.23,5.23,0,0,0,.72,4C5.75,7.18,5.37,7.61,5.37,7.61Zm12.24,5.87H.49c-.5,0-.64.31-.32.69l7,8.25A2.89,2.89,0,0,1,7.74,24v1.3a.9.9,0,0,0,.9.9h.82a.9.9,0,0,0,.9-.9V24a2.83,2.83,0,0,1,.59-1.6l7-8.25C18.25,13.79,18.11,13.48,17.61,13.48Z"/></g></g></svg>