<svg xmlns="http://www.w3.org/2000/svg" viewBox="0 0 396.93 500"><g id="Layer_2" data-name="Layer 2"><g id="Layer_1-2" data-name="Layer 1"><path d="M374,250s6.3,77.5-53,117.6c0,0,116.4-231.1-132.3-367.6,0,0,19.4,33.2-4.7,79.6h54.8V185.7H159.2v79.6H53.1V240.2C7.9,322.8-2.2,428.1,149.8,500c0,0-97-127,23.7-196.8,0,0-46,74,36.5,136.5,48.4-51.5,35.3-77.3,35.3-77.3s71,56.9,18.5,137.6C263.8,500,463.1,452.1,374,250Z"/><polygon points="212.3 106.1 132.7 106.1 132.7 26.5 79.6 26.5 79.6 106.1 0 106.1 0 159.2 79.6 159.2 79.6 238.8 132.7 238.8 132.7 159.2 212.3 159.2 212.3 106.1"/></g></g></svg>