<svg xmlns="http://www.w3.org/2000/svg" viewBox="0 0 4200 4200"><defs><style>.cls-1{fill:#dc0000;}.cls-2{fill:#333;}</style></defs><g id="Layer_2" data-name="Layer 2"><g id="svg2996"><g id="g11929"><path id="path10097" class="cls-1" d="M3584.93,615.13c820.09,820.09,820.09,2149.71,0,2969.8s-2149.71,820.09-2969.8,0S-205.07,1435.1,615,615s2149.82-820,2969.92.14ZM3333,898.43c-5.17-5.3-10.55-10.54-15.8-15.81-627.1-627.09-1617.52-669.2-2293.51-126.46L3443.81,3176.25C3982,2505.9,3945.18,1526.28,3333,898.43ZM3176.22,3443.82,756.14,1023.73c-542.72,676-500.62,1666.41,126.47,2293.51s1617.62,669.29,2293.61,126.57Z"/><path id="path11910" class="cls-2" d="M2511.09,943.31c-3.06.08-6.09.22-9.16.39-32.68,1.93-65.74,9.72-96.93,25.16-124.76,61.66-176,212.61-114.29,337.42s212.52,176.11,337.28,114.43,176-212.63,114.3-337.42c-44.79-90.68-136.38-142.15-231.19-140Zm-327,265.1-473.32,160.91,287.11,287.11,306.39-205.76C2234,1390.77,2189.44,1300.26,2184.06,1208.41Zm643.54,104.72c-22.34,60.19-64.15,111.85-116.35,149.3l191,145.33c-60.69,148.19-18.65,324.78,114.3,426.56a363.77,363.77,0,0,0,222,74.65,45.56,45.56,0,0,0,28-81.35c-68.58-52.75-114.92-120.7-133.71-184.29s-11.59-120.11,20.37-161.88,84.89-63.57,151.21-62.07,143.39,28.1,212.19,80.53a45.55,45.55,0,0,0,71.77-48.54,362.79,362.79,0,0,0-347.94-268.51c-5.11,0-10.36-.17-15.45,0a365,365,0,0,0-208.5,74.65ZM1147.32,1488.68c-95.5,109.78-121.32,270.33-52.77,409.06,91.08,184.37,313.89,260.64,498.2,169.53A371.53,371.53,0,0,0,1672.6,2014Q1410,1751.3,1147.32,1488.68Zm131.39,667.87-467.17,807.6a97.25,97.25,0,0,0,84.36,146.29H1960.12a97.25,97.25,0,0,0,83.39-146.29l-466.21-807.6a414.42,414.42,0,0,1-92.15,22.28C1414.68,2190.32,1344,2180.92,1278.71,2156.55Z"/></g></g></g></svg>