<svg xmlns="http://www.w3.org/2000/svg" viewBox="0 0 45.79 50"><g id="Layer_2" data-name="Layer 2"><g id="Common"><path class="cls-1" d="M22.84,0,13.63,9.2h6.14V23.63l3.61,1.29L25.91,24V9.2H32Z"/><path class="cls-1" d="M41.66,22.33l3.64-3.7a1.72,1.72,0,0,0-.64-2.82L33.81,11.87H29.68l13.81,5.67-3.54,3.6L28.05,17v2.17l9.08,3.19L23.36,27.19a1.67,1.67,0,0,0-.2-.1l-14.07-5,8.61-3,0-2.18L5.81,21.12,2.3,17.55l13.91-5.79H11.9l-10.76,4A1.72,1.72,0,0,0,.5,18.62l4,4.07a1.68,1.68,0,0,0,.18.12L1.53,26a1.72,1.72,0,0,0,.62,2.83l15,5.61a1.71,1.71,0,0,0,.6.11,1.73,1.73,0,0,0,1.11-.4l3-2.49V47.47L6.47,42.06V31.53h-2v12L22.83,50l18.41-6.5V32.55h-2v9.5L23.85,47.47V30.65L28,34.1a1.72,1.72,0,0,0,1.1.4,1.74,1.74,0,0,0,.61-.11l15-5.61h0A1.72,1.72,0,0,0,45.28,26Zm-1.48-1.15,0,0-.08,0S40.14,21.16,40.18,21.17Zm-34.54,0h0Zm12,11.23L3.33,27l3.23-3.23,15,5.31Zm11.52,0-4.3-3.58,15.08-5.32L43.48,27Z"/></g></g></svg>