<svg xmlns="http://www.w3.org/2000/svg" viewBox="0 0 68.62 47.83"><g id="Layer_2" data-name="Layer 2"><g id="Layer_1-2" data-name="Layer 1"><path d="M68.62,30.19c0-5.11-3.73-9.59-9.34-12.12A15,15,0,0,1,60,22.69c0,9.57-9.18,17.59-21.57,19.8a26,26,0,0,0,10.21,2,26.67,26.67,0,0,0,8.17-1.26L67,47.83l-3.64-8C66.63,37.32,68.62,33.92,68.62,30.19Z"/><path d="M28.44,0C12.73,0,0,9.14,0,20.4c0,5.32,2.84,10.16,7.48,13.79L2.29,45.54,16.79,39a38,38,0,0,0,11.65,1.79c15.71,0,28.44-9.14,28.44-20.4S44.15,0,28.44,0ZM16.92,22.84a2.69,2.69,0,1,1,2.69-2.69A2.69,2.69,0,0,1,16.92,22.84Zm11.52,0a2.69,2.69,0,1,1,2.69-2.69A2.69,2.69,0,0,1,28.44,22.84Zm11.52,0a2.69,2.69,0,1,1,2.69-2.69A2.69,2.69,0,0,1,40,22.84Z"/></g></g></svg>