<svg xmlns="http://www.w3.org/2000/svg" viewBox="0 0 64 50"><defs><style>.cls-1{fill:#4d4d4d;}</style></defs><g id="Layer_2" data-name="Layer 2"><g id="Icon"><path class="cls-1" d="M63,46H62V4a2,2,0,0,0-2-2H46a2,2,0,0,0-2,2V46H42V11.4a2,2,0,0,0-1.06-1.77L38,8.06V2a2,2,0,0,0-4,0V8.06L31.06,9.63A2,2,0,0,0,30,11.4V46H28V22a2,2,0,0,0-2-2H22a2,2,0,0,0-2,2V46H18V10a2,2,0,0,0-2-2H4a2,2,0,0,0-2,2V46H1a1,1,0,0,0-1,1v2a1,1,0,0,0,1,1H63a1,1,0,0,0,1-1V47A1,1,0,0,0,63,46ZM6,12H8v4H6Zm6,16H10V24h2ZM6,18H8v4H6Zm0,6H8v4H6Zm0,6H8v4H6Zm0,6h4v4H6ZM6,46V42H8v4Zm8,0H10V42h4Zm0-6H12V36h2Zm0-6H10V30h4Zm0-12H12V18h2Zm0-6H10V12h4Zm8,8h2v2H22Zm0,8h2v2H22Zm0,14V44h2v2Zm4-4H22V40h4Zm0-4H24V36h2Zm0-8H22V28h4Zm6-18h2v2H32Zm0,4h4v2H32Zm0,8h2v2H32Zm6,6H34V28h4Zm-6,2h2v2H32Zm6,6H34V36h4Zm-6,2h4v2H32Zm0,6V44h2v2Zm8,0H36V44h4Zm0-4H38V40h2Zm0-8H36V32h4Zm0-8H38V24h2Zm0-4H34V20h6Zm0-4H38V16h2Zm0-4H38V12h2ZM52,40H48V36h4Zm0-12H48V24h4Zm0-6H48V18h4Zm0-12H48V6h4Zm6,36H54V42h4Zm0-12H54V30h4Zm0-6H54V24h4Zm0-12H54V12h4Zm0-6H54V6h4Z"/></g></g></svg>