<svg xmlns="http://www.w3.org/2000/svg" viewBox="0 0 438.81 324.43"><g id="Layer_2" data-name="Layer 2"><g id="Web_Contact_Icons" data-name="Web Contact Icons"><path d="M438.64,246.55,398.84,10.63A12.74,12.74,0,0,0,384.15.18l-373.52,63A12.74,12.74,0,0,0,.18,77.87L40,313.79a12.76,12.76,0,0,0,12.56,10.64,13,13,0,0,0,2.14-.18l373.51-63A12.75,12.75,0,0,0,438.64,246.55ZM222.72,183,47.84,82.77,355.05,31Zm-3.6,27.34a12.75,12.75,0,0,0,16-2.69l29.13-33.46,123.2,68.09L86.57,293l94.05-104.74Zm190,14.81L281.34,154.48,378.43,43ZM30.12,102,158,175.28,60.74,283.58Z"/></g></g></svg>