<svg xmlns="http://www.w3.org/2000/svg" viewBox="0 0 347.84 346.96"><g id="Layer_2" data-name="Layer 2"><g id="Web_Contact_Icons" data-name="Web Contact Icons"><path d="M332.33,284.63l-57.63-51.7-.06-.05-.05,0a16.49,16.49,0,0,0-6.57-4,18.12,18.12,0,0,0-5.6-.88,20.15,20.15,0,0,0-14.11,6L215.18,267l-1,1-1.34-.12c-9-.79-22.84-6.23-37.84-14.92a244,244,0,0,1-48.77-37.59c-14.22-14.22-26.15-30-34.51-45.7C85,156.92,80.68,144.26,80,134.92l-.1-1.32.94-.94,33.13-33.13A19.61,19.61,0,0,0,119,79.82a16.58,16.58,0,0,0-4-6.57l-.06,0,0-.06L63.2,15.5A17.14,17.14,0,0,0,51,10.61a20.13,20.13,0,0,0-14.08,5.93L10.47,47.07l-.06.07-.07.07c-.25.25-.49.5-.74.78l-.11.12-.12.11c-.27.25-.5.46-.71.67C3,54.59,0,65,0,79.1,0,93.56,3.33,111,9.5,129.63,24,173.36,51.92,217.37,88.09,253.54a360.78,360.78,0,0,0,99,70C218.4,338.43,249.29,347,271.87,347c12.63,0,22-2.7,27.08-7.79.21-.21.43-.44.67-.71l.11-.12.12-.11c.26-.23.53-.48.78-.73l.07-.07.07-.06,30.52-26.46C338.8,303.37,339.27,291.6,332.33,284.63Z"/><path d="M269.91,168.57a12.29,12.29,0,0,1-12.29-12.29,66.14,66.14,0,0,0-66.06-66.06,12.29,12.29,0,1,1,0-24.58,90.74,90.74,0,0,1,90.64,90.64A12.29,12.29,0,0,1,269.91,168.57Z"/><path d="M335.55,148a12.29,12.29,0,0,1-12.29-12.29A111.17,111.17,0,0,0,212.09,24.58a12.29,12.29,0,1,1,0-24.58A135.75,135.75,0,0,1,347.84,135.75,12.29,12.29,0,0,1,335.55,148Z"/></g></g></svg>