<svg xmlns="http://www.w3.org/2000/svg" viewBox="0 0 388.28 337.34"><g id="Layer_2" data-name="Layer 2"><g id="Web_Contact_Icons" data-name="Web Contact Icons"><path d="M382.22,128.35,319,84.18V17.68H272.78V51.85L202.26,2.56a14.17,14.17,0,0,0-16.24,0L6.06,128.35a14.17,14.17,0,1,0,16.23,23.23L194.14,31.47,366,151.58a14.17,14.17,0,0,0,16.23-23.23Z"/><path d="M333.47,165.14,198.2,70.59a7.07,7.07,0,0,0-8.12,0L54.81,165.14a7.06,7.06,0,0,0-3,5.8V330.25a7.09,7.09,0,0,0,7.09,7.09H146a7.09,7.09,0,0,0,7.08-7.09V231.12h82.22v99.13a7.09,7.09,0,0,0,7.08,7.09h87.08a7.09,7.09,0,0,0,7.09-7.09V170.94A7.06,7.06,0,0,0,333.47,165.14Z"/></g></g></svg>