<svg xmlns="http://www.w3.org/2000/svg" viewBox="0 0 500 343.68"><g id="Layer_2" data-name="Layer 2"><g id="Layer_1-2" data-name="Layer 1"><g id="Layer_2-2" data-name="Layer 2"><g id="Layer_1-2-2" data-name="Layer 1-2"><path d="M7.4,229.33H287.74a7.55,7.55,0,0,0,7.4-7.65V7.65A7.55,7.55,0,0,0,287.74,0H7.4A7.55,7.55,0,0,0,0,7.65v214A7.55,7.55,0,0,0,7.4,229.33Z"/><path d="M24.42,267a7.66,7.66,0,0,0-7.64,7.64v17.55a7.66,7.66,0,0,0,7.64,7.65h53a60.85,60.85,0,0,1,16-32.84Z"/><path d="M500,182.48a15.73,15.73,0,0,0-3.53-9.93l-64.33-79A15.72,15.72,0,0,0,420,87.75H361a23.44,23.44,0,0,0-23.36,23.38V267H182.11a60.85,60.85,0,0,1,15.95,32.84h162a61,61,0,0,1,120.62,0h11.63a7.67,7.67,0,0,0,7.64-7.65V274.63a7.66,7.66,0,0,0-.14-1.4,23.78,23.78,0,0,0,.14-2.52Zm-139.75,4.6v-61a16.44,16.44,0,0,1,16.39-16.4H418a11,11,0,0,1,8.55,4.07l45.11,55.43a11,11,0,0,1,2.48,7v11Z"/><path d="M172.68,308.82a34.93,34.93,0,1,1-34.93-35,34.93,34.93,0,0,1,34.93,35Z"/><path d="M458.54,308.82a34.93,34.93,0,1,1-34.93-35,34.93,34.93,0,0,1,34.93,35Z"/></g></g></g></g></svg>