<svg xmlns="http://www.w3.org/2000/svg" viewBox="0 0 50 29.3"><g id="Layer_2" data-name="Layer 2"><g id="Layer_1-2" data-name="Layer 1"><g id="Layer_2-2" data-name="Layer 2"><g id="Layer_1-2-2" data-name="Layer 1-2"><path d="M44.88,17.59a7.12,7.12,0,0,0-2.27.6C35.84,14.24,30.48,8.91,23,5.6c-3.27.67-4.74,4-8,3.8a2.71,2.71,0,0,1-2.47-3.2c.23-1.68,2.86-2.71,4.13-3.39C18.12,2,21.13-.06,22.42,0c4.7.23,10.17,5.18,14.22,5.6,1.26.13,3.29-.66,4.32-.4,1.55.39,2.56,3.46,3.08,5.19a20.34,20.34,0,0,1,.83,7.2"/><path d="M8.45,2.88c-1.83,4.68-4.06,9-3.91,15.59C2.84,18.24.87,18.29,0,17.27A60.78,60.78,0,0,1,5.16,1.68c1.64-.13,2.12.87,3.29,1.2"/><path d="M48.46,3.08c.7,4.51,1.86,10.51,1.45,14.79-.78.38-2.32,0-3.09.4A22.64,22.64,0,0,0,42.7,3.68c2,0,4-1.6,5.76-.6"/><path d="M12,4.12a4.18,4.18,0,0,0,3.92,7c2.91-.44,4.82-3.3,6.59-3.4,2.62-.14,8.08,4.54,9.88,5.79,3.18,2.22,6.09,4.35,9.06,6.6.19,7.11-6.4-1.42-9.27-1.8.74,2,4.2,3,5.77,4.8-1.22,5.94-7-2.85-9.68-2.59,1.35,2.22,4.21,3,6,4.79-1.41,4.89-4.91-.8-7.62-1.2.46,1.62,2.5,1.71,3.29,3,.08,1.34-.85,1.71-1.65,2.2a12,12,0,0,1-3.7-2.6c1-3.17.78-6.17-3.09-6.4-.35-1.35-.81-2.29-2.27-2.6-.93-.19-1.83.49-2.67.4s-1.3-.74-1.85-.8-1.64.48-2.48.4-1.37-.8-2.07-.8c-1.83,0-2.35,1.44-3.7,1.8,0-6.1,1.87-10.3,3.7-14.58Z"/><path d="M11.83,19.83c.95-1.58,3.81-1.45,4.12.6.86-2.25,5.41-1.05,3.91,1.8,3.82-2.06,4.29,3.21,2.68,6C21.4,29.56,18.6,29,18.63,27c-1.23,1.3-4.09.69-3.7-1.8-.59,1.1-3.38,1.12-3.5-.4-5.62.89-3.42-10.44.41-5"/></g></g></g></g></svg>