<svg xmlns="http://www.w3.org/2000/svg" viewBox="0 0 65.78 65.78"><g id="Layer_2" data-name="Layer 2"><g id="Layer_1-2" data-name="Layer 1"><path class="cls-1" d="M65.41,36.66a5.54,5.54,0,0,0-2.12-4.2c1.32-1.54,2.12-2.5,2.12-5.81,0-2.95-2.26-6.09-8.62-6.09H46c2.29-11.76.51-15.64-1.41-18A5.36,5.36,0,0,0,40.5.37C38.22.37,36.1,2.83,36,2.93a.7.7,0,0,0-.17.45v8.48a37.65,37.65,0,0,0-1.29,3.8c-.62,2.16-5.79,9-7.78,11.29-.42.49-.81,1-1.18,1.44C24.29,30,23.26,31.34,22,31.34H19.39l-.13,0V29.75a3.51,3.51,0,0,0-3.5-3.5H3.87a3.51,3.51,0,0,0-3.5,3.5V61.91a3.51,3.51,0,0,0,3.5,3.5H15.76a3.51,3.51,0,0,0,3.5-3.5V59.86a13.23,13.23,0,0,1,6.37,1.77A15.79,15.79,0,0,0,33.9,63.7H50.19c4.76,0,9.16-2.55,9.92-6.09a4,4,0,0,0-.64-3.4c1.57-.43,3.33-2.34,3.94-6.67a5.16,5.16,0,0,0-.87-4.25l-.23-.24C64,42,65.41,39.39,65.41,36.66ZM17.86,61.91a2.1,2.1,0,0,1-2.1,2.1H3.87a2.1,2.1,0,0,1-2.1-2.1V29.75a2.1,2.1,0,0,1,2.1-2.1H15.76a2.1,2.1,0,0,1,2.1,2.1ZM60.75,42.12H52.29a.7.7,0,0,0,0,1.4h7.79a2.06,2.06,0,0,1,1.42.7A3.91,3.91,0,0,1,62,47.35c-.63,4.4-2.41,5.56-3.27,5.56H50.19a.7.7,0,0,0,0,1.4h7.14a2.38,2.38,0,0,1,1.41,3c-.56,2.6-4.17,5-8.55,5H33.9a14.43,14.43,0,0,1-7.64-1.91,14.5,14.5,0,0,0-7-1.93V32.71l.13,0H22c1.9,0,3.18-1.6,4.66-3.46.36-.45.74-.93,1.15-1.41,1.93-2.26,7.34-9.32,8.06-11.82a35.47,35.47,0,0,1,1.29-3.77.69.69,0,0,0,.06-.28V3.66c.62-.66,2-1.88,3.26-1.88a4,4,0,0,1,3,1.66c1.78,2.18,3.39,5.86,1,17.68a.7.7,0,0,0,.68.84H56.79c4.52,0,7.22,1.76,7.22,4.69,0,2.66-.47,3.37-1.6,4.69H53.73a.7.7,0,1,0,0,1.4h7.51C61.8,33,64,34.37,64,36.66,64,39.55,62.19,42.12,60.75,42.12Z"/><path class="cls-1" d="M15.76,65.78H3.87A3.88,3.88,0,0,1,0,61.91V29.75a3.88,3.88,0,0,1,3.87-3.87H15.76a3.88,3.88,0,0,1,3.87,3.87V31H22c1,0,2-1.23,3.27-2.79.37-.47.77-1,1.19-1.45,2.07-2.42,7.12-9.14,7.7-11.15a38.25,38.25,0,0,1,1.28-3.77V3.39a1.08,1.08,0,0,1,.26-.7C36,2.41,38.1,0,40.5,0a5.73,5.73,0,0,1,4.35,2.31c2,2.44,3.73,6.48,1.58,17.87H56.79c6.63,0,9,3.34,9,6.47s-.77,4.37-2,5.78a5.8,5.8,0,0,1,2,4.24,8.41,8.41,0,0,1-2.89,6.46,5.58,5.58,0,0,1,.9,4.48c-.67,4.72-2.58,6.28-3.74,6.8a4.46,4.46,0,0,1,.43,3.29c-.78,3.64-5.2,6.38-10.29,6.38H33.9A16.11,16.11,0,0,1,25.46,62a12.82,12.82,0,0,0-5.83-1.71v1.66A3.88,3.88,0,0,1,15.76,65.78ZM3.87,26.62A3.13,3.13,0,0,0,.75,29.75V61.91A3.13,3.13,0,0,0,3.87,65H15.76a3.12,3.12,0,0,0,3.12-3.12V59.48h.39A13.6,13.6,0,0,1,25.8,61.3a15.48,15.48,0,0,0,8.1,2H50.19c4.66,0,8.86-2.54,9.55-5.79a3.6,3.6,0,0,0-.57-3.09L58.84,54l.54-.15c.68-.19,2.94-1.2,3.67-6.36a4.82,4.82,0,0,0-.78-4l-.21-.22L61.71,43l.42-.25c1.68-1,2.9-3.57,2.9-6.07a5.2,5.2,0,0,0-2-3.92l-.28-.24.24-.29c1.26-1.48,2-2.37,2-5.57,0-2.76-2.17-5.72-8.24-5.72H45.51l.09-.45c2.22-11.43.57-15.36-1.34-17.7a5,5,0,0,0-3.77-2c-2.1,0-4.12,2.33-4.21,2.42a.33.33,0,0,0-.08.21l0,8.62a37.76,37.76,0,0,0-1.28,3.76c-.68,2.38-6.19,9.5-7.85,11.44-.42.48-.8,1-1.17,1.43-1.37,1.72-2.45,3.08-3.86,3.08H19.39l-.45.09-.06-.44V29.75a3.13,3.13,0,0,0-3.12-3.12ZM15.76,64.39H3.87A2.48,2.48,0,0,1,1.4,61.91V29.75a2.48,2.48,0,0,1,2.47-2.47H15.76a2.48,2.48,0,0,1,2.47,2.47V61.91A2.48,2.48,0,0,1,15.76,64.39ZM3.87,28a1.72,1.72,0,0,0-1.72,1.72V61.91a1.72,1.72,0,0,0,1.72,1.72H15.76a1.72,1.72,0,0,0,1.72-1.72V29.75A1.72,1.72,0,0,0,15.76,28ZM50.19,62.67H33.9a14.74,14.74,0,0,1-7.81-2,14.16,14.16,0,0,0-6.85-1.89h-.37V32.25l.54.11H22c1.72,0,2.95-1.54,4.37-3.32.36-.46.75-.94,1.16-1.42,2.08-2.44,7.32-9.35,8-11.68a36.49,36.49,0,0,1,1.3-3.8.35.35,0,0,0,0-.14V3.51L37,3.4c.32-.33,2-2,3.53-2a4.39,4.39,0,0,1,3.26,1.79c2,2.41,3.45,6.25,1,18a.32.32,0,0,0,.32.39H56.79c4.75,0,7.59,1.9,7.59,5.07,0,2.7-.46,3.5-1.69,4.94l-.11.13H53.73a.32.32,0,0,0,0,.65l7.69,0c.7.38,3,1.79,3,4.25,0,3.15-2,5.84-3.63,5.84H52.29a.32.32,0,0,0,0,.65h7.79A2.46,2.46,0,0,1,61.8,44a4.25,4.25,0,0,1,.61,3.42c-.66,4.65-2.6,5.89-3.64,5.89H50.19a.32.32,0,0,0,0,.65l7.27,0a2.77,2.77,0,0,1,1.65,3.44C58.48,60.36,54.56,62.67,50.19,62.67ZM19.63,58.09a14.78,14.78,0,0,1,6.8,2,14.12,14.12,0,0,0,7.47,1.87H50.19c4.44,0,7.7-2.43,8.19-4.68a2,2,0,0,0-1.12-2.55H50.19a1.07,1.07,0,0,1,0-2.15h8.58c.6,0,2.28-.94,2.9-5.24a3.58,3.58,0,0,0-.44-2.83,1.7,1.7,0,0,0-1.15-.57H52.29a1.07,1.07,0,0,1,0-2.15h8.46c1.14,0,2.88-2.28,2.88-5.09,0-2-1.81-3.17-2.49-3.55H53.73a1.07,1.07,0,0,1,0-2.15h8.5c1-1.18,1.4-1.84,1.4-4.32,0-2.71-2.56-4.32-6.84-4.32H45.12A1.07,1.07,0,0,1,44.07,21c2.35-11.46.87-15.21-.88-17.36A3.62,3.62,0,0,0,40.5,2.15a5,5,0,0,0-2.88,1.66V12a1.06,1.06,0,0,1-.09.43,36,36,0,0,0-1.27,3.72c-.74,2.59-6.12,9.61-8.13,12-.4.47-.78.94-1.14,1.4-1.54,1.93-2.87,3.6-5,3.6h-2.4Z"/></g></g></svg>