<svg xmlns="http://www.w3.org/2000/svg" viewBox="0 0 42 42"><g id="Layer_2" data-name="Layer 2"><g id="Layer_1-2" data-name="Layer 1"><path class="cls-1" d="M21,3.79c5.61,0,6.27,0,8.49.12,5.69.26,8.35,3,8.61,8.61.1,2.21.12,2.88.12,8.49s0,6.27-.12,8.49c-.26,5.64-2.91,8.35-8.61,8.61-2.22.1-2.88.12-8.49.12s-6.27,0-8.49-.12c-5.7-.26-8.35-3-8.61-8.61-.1-2.21-.12-2.88-.12-8.49s0-6.27.12-8.49c.26-5.65,2.91-8.35,8.61-8.61C14.73,3.81,15.39,3.79,21,3.79ZM21,0c-5.7,0-6.42,0-8.66.13C4.72.48.48,4.71.13,12.34,0,14.58,0,15.3,0,21s0,6.42.13,8.66c.35,7.63,4.58,11.87,12.22,12.21,2.24.1,3,.13,8.66.13s6.42,0,8.66-.13c7.62-.35,11.87-4.58,12.21-12.21.1-2.24.13-3,.13-8.66s0-6.42-.13-8.66C41.53,4.72,37.29.48,29.66.13,27.42,0,26.7,0,21,0Zm0,10.22A10.78,10.78,0,1,0,31.78,21,10.78,10.78,0,0,0,21,10.22ZM21,28a7,7,0,1,1,7-7A7,7,0,0,1,21,28ZM32.21,7.27a2.52,2.52,0,1,0,2.52,2.52A2.52,2.52,0,0,0,32.21,7.27Z"/></g></g></svg>