<svg xmlns="http://www.w3.org/2000/svg" viewBox="0 0 500 500"><g id="Layer_2" data-name="Layer 2"><g id="Layer_1-2" data-name="Layer 1"><path d="M250,29.7C128.3,29.7,29.7,128.3,29.7,250S128.4,470.3,250,470.3,470.3,371.7,470.3,250,371.7,29.7,250,29.7Zm4.3,340.9a128.35,128.35,0,0,1-26.1,5.9,279.13,279.13,0,0,1-37.4,2.1,122.65,122.65,0,0,1-43.5-7.7c-13.2-5-23.4-11.5-30.4-23.5-6.6-11.3-9.8-24.1-10.6-42.4-.8-17.2.6-31.3,5-56.8,4.6-25.6,10.3-47.1,17-64.2,6.9-17.7,14.5-27,24.6-37.4,21.3-22,60.6-24.1,75.6-24.1,39.3,0,56,7.7,56,7.7l-4,19.1H238.4c-18.5,0-26.5,8.1-34.2,20.9-4.3,7.2-11.1,22.5-15.5,34.5-4.6,12.4-8.7,28.4-12.1,47.6s-5,34.9-4.6,47.2c.3,11.6,2.1,26.7,5.1,32.7,6,12.3,17.6,12.5,24,12.6l18.8-105H286L263,367.9Zm96.5,3.3h-66l43.2-248h66ZM250,0C111.9,0,0,111.9,0,250S111.9,500,250,500,500,388.1,500,250,388.1,0,250,0Zm0,484.1C120.7,484.1,15.9,379.3,15.9,250S120.7,15.9,250,15.9,484.1,120.7,484.1,250,379.3,484.1,250,484.1Z"/></g></g></svg>