<svg xmlns="http://www.w3.org/2000/svg" viewBox="0 0 13 13"><g id="Layer_2" data-name="Layer 2"><g id="Layer_1-2" data-name="Layer 1"><path class="cls-1" d="M11.95,5.27H6.65l1.8-2a1.31,1.31,0,0,0,0-1.73,1,1,0,0,0-1.57,0L3.16,5.64h0l0,0L3,5.82l0,.06A1.38,1.38,0,0,0,2.93,6l0,.08a1.33,1.33,0,0,0,0,.15s0,.07,0,.1,0,.08,0,.13,0,.09,0,.13,0,.07,0,.1a1.22,1.22,0,0,0,0,.14l0,.08A1.29,1.29,0,0,0,3,7.1l0,.06.1.14,0,.05h0l3.71,4.08a1,1,0,0,0,1.57,0,1.31,1.31,0,0,0,0-1.73l-1.8-2h5.3A1.18,1.18,0,0,0,13,6.49,1.18,1.18,0,0,0,11.95,5.27Z"/><path class="cls-1" d="M3.06,11.64c-.51,0-1.2.14-1.61-.25s-.23-.74-.23-1.11V2.7a1.62,1.62,0,0,1,.23-1.11c.32-.41,1.17-.25,1.61-.25.79,0,.79-1.34,0-1.34a4.44,4.44,0,0,0-2,.26A2.26,2.26,0,0,0,0,2.29v8.41a2.36,2.36,0,0,0,1.05,2,3.54,3.54,0,0,0,2,.26C3.84,13,3.84,11.64,3.06,11.64Z"/></g></g></svg>