<svg xmlns="http://www.w3.org/2000/svg" viewBox="0 0 41.33 41.33"><g id="Layer_2" data-name="Layer 2"><g id="Design_2" data-name="Design 2"><path class="cls-1" d="M20.67,0A20.67,20.67,0,1,0,41.33,20.67,20.67,20.67,0,0,0,20.67,0Zm0,38.67a18,18,0,1,1,18-18A18,18,0,0,1,20.67,38.67Z"/><path class="cls-1" d="M26,31.43H15.75a5.87,5.87,0,0,1-5.86-5.86V15.23a5.87,5.87,0,0,1,5.86-5.86H26a5.87,5.87,0,0,1,5.86,5.86V25.57A5.87,5.87,0,0,1,26,31.43Zm-10.23-20a3.83,3.83,0,0,0-3.83,3.83V25.57a3.83,3.83,0,0,0,3.83,3.83H26a3.83,3.83,0,0,0,3.83-3.83V15.23A3.83,3.83,0,0,0,26,11.4Zm5.12,14.14A5.14,5.14,0,1,1,26,20.4,5.15,5.15,0,0,1,20.87,25.54Zm0-8.25A3.11,3.11,0,1,0,24,20.4,3.11,3.11,0,0,0,20.87,17.29Zm5.77-1.4a1.47,1.47,0,1,1,1.47-1.47A1.47,1.47,0,0,1,26.64,15.89Z"/></g></g></svg>