<svg xmlns="http://www.w3.org/2000/svg" viewBox="0 0 50.34 55.47"><defs><style>.cls-1{fill:#fff;}</style></defs><title>icon_svg_thumb_up</title><g id="Layer_2" data-name="Layer 2"><g id="Layer_1-2" data-name="Layer 1"><path class="cls-1" d="M47.92,37.83a5.27,5.27,0,0,0,2.41-5c-.16-2.24-2.73-4.32-2.73-4.32a10.19,10.19,0,0,0,1.13-3.05,4.82,4.82,0,0,0-2.41-4.65c-2.4-1.28-14,.48-14,.48l1.27-7.62c.16-1,1.19-1.93,1.3-5,.15-4-1.45-8.82-5-8.66s-2.56,5.77-2.56,6.74-2.56,6.73-4.81,10.42-4.8,5.36-5.61,9c-.71,3.16-4.16,4.34-4.16,4.34-1.06.27-1,1.11-.87,2a172.79,172.79,0,0,0,4.4,20.8s5.76,1.24,7.84,1.41a24,24,0,0,1,3.85.64c2.11.36,6.41,0,9.78,0s4.8-.81,8.17-3.21,1-5.77,1-5.77,2.77-.73,2.77-4.42C49.72,38.68,47.92,37.83,47.92,37.83Z"/><path class="cls-1" d="M12.64,52.73l-4-20.29A2.4,2.4,0,0,0,6.43,30.6H2.14A2.21,2.21,0,0,0,0,32.49L0,53.34a2,2,0,0,0,1.94,1.89h9.44C12.41,55.22,12.91,53.9,12.64,52.73ZM6.57,52h-2a1.5,1.5,0,0,1,0-3h2a1.5,1.5,0,0,1,0,3Z"/></g></g></svg>