<svg xmlns="http://www.w3.org/2000/svg" viewBox="0 0 500 230"<g id="Layer_2" data-name="Layer 2"><g id="Layer_1-2" data-name="Layer 1"><g id="Layer_2-2" data-name="Layer 2"><g id="Layer_1-2-2" data-name="Layer 1-2"><path d="M466.59,0H33.41C15,0,0,14.71,0,32.72V197.28C0,215.29,15,230,33.41,230H466.59C485,230,500,215.29,500,197.28V32.72C500,14.71,485,0,466.59,0ZM127.76,151.61c-20.66,0-37.39-16.39-37.39-36.61s16.74-36.61,37.39-36.61S165.15,94.78,165.15,115,148.41,151.61,127.76,151.61Zm122.24,0c-20.66,0-37.39-16.39-37.39-36.61S229.35,78.39,250,78.39,287.38,94.78,287.38,115,270.65,151.61,250,151.61Zm122.24,0c-20.65,0-37.39-16.39-37.39-36.61s16.74-36.61,37.39-36.61S409.63,94.78,409.63,115,392.9,151.61,372.24,151.61Z"/></g></g></g></g></svg>