<svg xmlns="http://www.w3.org/2000/svg" viewBox="0 0 49 50"><g id="Layer_2" data-name="Layer 2"><g id="Layer_1-2" data-name="Layer 1"><path class="cls-1" d="M15.55,16.25a3,3,0,1,0,2.14.89A3,3,0,0,0,15.55,16.25Z"/><path class="cls-1" d="M33.43,33.73a3,3,0,1,0-2.14-.89A3,3,0,0,0,33.43,33.73Z"/><path class="cls-1" d="M48.34,27.65l-.75-1a3.08,3.08,0,0,1,0-3.59l.73-1a3.4,3.4,0,0,0-1.17-5L46,16.44a3.07,3.07,0,0,1-1.58-3.22L44.63,12a3.39,3.39,0,0,0-3.2-4L40.16,8a3.09,3.09,0,0,1-2.83-2.22L37,4.52a3.39,3.39,0,0,0-4.6-2.17l-1.17.5A3,3,0,0,1,29.32,3a3,3,0,0,1-1.63-1l-.85-.95a3.39,3.39,0,0,0-5.08,0l-.83,1a3.07,3.07,0,0,1-1.62,1A3.06,3.06,0,0,1,17.44,3l-1.18-.49A3.4,3.4,0,0,0,11.69,4.7l-.34,1.23a3.06,3.06,0,0,1-1,1.58,3,3,0,0,1-1.76.67l-1.27.07a3.39,3.39,0,0,0-3.14,4l.23,1.25a3,3,0,0,1-.24,1.87,3.05,3.05,0,0,1-1.29,1.37l-1.11.62a3.39,3.39,0,0,0-1.09,5l.75,1A3.08,3.08,0,0,1,2,25.17,3.06,3.06,0,0,1,1.44,27L.7,28a3.4,3.4,0,0,0,1.17,5l1.12.6a3.07,3.07,0,0,1,1.58,3.22L4.36,38a3.39,3.39,0,0,0,3.2,4L8.84,42a3.09,3.09,0,0,1,2.83,2.22L12,45.48a3.39,3.39,0,0,0,4.6,2.17l1.17-.5a3.07,3.07,0,0,1,3.5.77l.85.95A3.41,3.41,0,0,0,24.67,50h0a3.37,3.37,0,0,0,2.53-1.17l.83-1A3.08,3.08,0,0,1,31.56,47l1.18.49a3.4,3.4,0,0,0,4.57-2.24l.34-1.23a3.05,3.05,0,0,1,1-1.58,3,3,0,0,1,1.76-.67l1.27-.07a3.39,3.39,0,0,0,3.14-4l-.23-1.25a3.07,3.07,0,0,1,1.53-3.24l1.11-.62a3.39,3.39,0,0,0,1.09-5ZM28.78,26.06a6.58,6.58,0,1,1-1.92,4.65A6.53,6.53,0,0,1,28.78,26.06ZM34.49,15.2,16.68,36.65h0a1.42,1.42,0,0,1-1,.51,1.44,1.44,0,0,1-1.06-.32,1.44,1.44,0,0,1-.19-2L32.27,13.36a1.42,1.42,0,0,1,1-.51h.14a1.44,1.44,0,0,1,1.11,2.36ZM22.11,19.28a6.57,6.57,0,1,1-1.92-4.65A6.53,6.53,0,0,1,22.11,19.28Z"/></g></g></svg>