<svg xmlns="http://www.w3.org/2000/svg" viewBox="0 0 46.01 47"><defs><style>.cls-1{fill:#fff;}</style></defs><g id="Layer_2" data-name="Layer 2"><g id="Icon"><path class="cls-1" d="M43.93,3.24A9,9,0,0,0,37,0,13.56,13.56,0,0,0,27,4L2,29v5L0,36V46.29A.71.71,0,0,0,.73,47a.66.66,0,0,0,.49-.21L8,40h6L31.51,22.5c8.93-8.94,9.66-4.37,12.55-7.9A9,9,0,0,0,43.93,3.24ZM32.54,12.78,30.31,15A2,2,0,0,1,30,17.41L22.41,25a2,2,0,0,1-1.41.59,1.9,1.9,0,0,1-1-.28L1.91,43.42V36.79L16.69,22A2,2,0,0,1,17,19.59L24.59,12a2,2,0,0,1,2.4-.31l2.23-2.23a1.11,1.11,0,0,1,1.56,0l1.76,1.76A1.12,1.12,0,0,1,32.54,12.78Z"/><rect class="cls-1" x="18.14" y="16.67" width="10.73" height="3.66" transform="translate(-6.2 22.04) rotate(-45)"/></g></g></svg>