<svg xmlns="http://www.w3.org/2000/svg" viewBox="0 0 64 56"><defs><style>.cls-1{fill:#4d4d4d;}</style></defs><g id="Layer_2" data-name="Layer 2"><g id="Icon"><path class="cls-1" d="M48,0C39.16,0,32,6.27,32,14a13.27,13.27,0,0,0,5.33,10.41,6.85,6.85,0,0,1-2.6,4l-.51.42a.62.62,0,0,0-.2.63.66.66,0,0,0,.49.45A8.25,8.25,0,0,0,36,30c1.72,0,4.59-.48,8.82-2.28A18.76,18.76,0,0,0,48,28c8.84,0,16-6.27,16-14S56.84,0,48,0Zm6,19.53a.47.47,0,0,1-.47.47H50V16.21a.22.22,0,0,0-.21-.21H46.22a.22.22,0,0,0-.22.21V20H42.47a.47.47,0,0,1-.47-.47V14.75l6-4.2,6,4.2Zm4-6.34-.84,1.14a.61.61,0,0,1-.48.25.66.66,0,0,1-.35-.11L48,8.65l-8.31,5.82a.66.66,0,0,1-.35.11.61.61,0,0,1-.48-.25L38,13.19a.65.65,0,0,1-.11-.45.61.61,0,0,1,.25-.39l9.5-6.65a.58.58,0,0,1,.68,0l9.5,6.65a.61.61,0,0,1,.25.39A.65.65,0,0,1,58,13.19ZM13.66,40H14v1.26l5,14.58,5-14.61V40c6.77,0,10-2.94,10-2.94-7.6-5,.48-25.23-11.21-25.23,0,0-.93-1.83-4-1.83C2.38,10,11.6,32.07,4,37.06,4,37.06,6.89,40,13.66,40ZM38,51.76v1.56A2.54,2.54,0,0,1,35.63,56H2.38A2.54,2.54,0,0,1,0,53.32V51.76c0-5.48,4.17-6.51,6-7.31.63-.27,3.32-1.16,5.5-1.93L7.14,48h5L19,55.85h0L25.83,48h5l-4.39-5.48c2.18.77,4.87,1.66,5.5,1.93C33.82,45.25,38,46.28,38,51.76Z"/></g></g></svg>