<svg xmlns="http://www.w3.org/2000/svg" viewBox="0 0 397.9 499.9"><g id="Layer_2" data-name="Layer 2"><g id="Layer_1-2" data-name="Layer 1"><path d="M327.2,151.2V76.8a18.76,18.76,0,0,0-19-18.5H214.6a30.62,30.62,0,0,1-2.5-11.4c-.1-5.1-2.7-12.2-8-15-3.9-2.1-8.7-1.3-12.6-3.4-3.3-1.7-5.3-6.1-9.2-17.5C178.8,1,168.8.1,166.3,0h-1c-2.4.1-12.4,1-15.9,10.9-3.9,11.4-5.9,15.8-9.2,17.5-3.9,2.1-8.7,1.3-12.6,3.4-5.3,2.8-7.9,9.9-8,15a30.62,30.62,0,0,1-2.5,11.4H19A18.76,18.76,0,0,0,0,76.7V481.4a18.76,18.76,0,0,0,19,18.5H308.2a18.76,18.76,0,0,0,19-18.5V419.7a162.81,162.81,0,0,0,0-268.5ZM165.8,11.4a9,9,0,1,1-9,9A9,9,0,0,1,165.8,11.4ZM299.3,472.1l-272.2-.2.3-386.8H64.8c-.8.5-1.5,1-2.3,1.6A22.23,22.23,0,0,0,56,97.2c-.8,2.4-1.4,4.8-2,7.2H277.4c-.6-2.2-1.2-4.5-1.9-6.8-1.3-4.1-3.1-8.1-6.6-10.9-.6-.5-1.3-1-2-1.5h32.6v50.5a162.46,162.46,0,0,0-64.7-13.4c-89.9,0-163.1,73.2-163.1,163.1s73.1,163.1,163.1,163.1a163.16,163.16,0,0,0,64.5-13.3Zm-64.5-48.2c-76.3,0-138.4-62.1-138.4-138.5s62.1-138.5,138.4-138.5S373.3,209,373.3,285.4,311.1,423.9,234.8,423.9Zm70.9-196.3c-21.8,32.5-74.9,124.3-82.5,135.5s-20.9,18.7-34.6.5c-14.9-19.7-39.6-49.8-45-55.9-8.4-9.5.6-31.3,16.9-19.1,25.3,19.1,42.2,28.6,42.2,28.6s33.8-36.4,89.7-104.9C303,199.3,316.6,211.4,305.7,227.6Z"/></g></g></svg>