<svg xmlns="http://www.w3.org/2000/svg" viewBox="0 0 39.03 50"><g id="Layer_2" data-name="Layer 2"><g id="Layer_1-2" data-name="Layer 1"><path class="cls-1" d="M29.11,13H38.7a.33.33,0,0,0,.23-.57L26.6.11A.34.34,0,0,0,26.24,0,.38.38,0,0,0,26,.34V9.93A3.08,3.08,0,0,0,29.11,13Z"/><path class="cls-1" d="M38.7,15H29.11c-3.77,0-5.46-2-5.46-5.07V.34A.33.33,0,0,0,23.31,0H3.07A3.08,3.08,0,0,0,0,3.09V46.93A3.08,3.08,0,0,0,3.07,50H36A3.08,3.08,0,0,0,39,46.93V15.33A.33.33,0,0,0,38.7,15Z"/><path class="inner_path" d="M14.37,31.75a3.34,3.34,0,0,0,3.17-2.28,5.91,5.91,0,0,1-1.29-3.69s0-.09,0-.14a3.34,3.34,0,1,0-1.88,6.11Z"/><circle class="inner_path" cx="22.21" cy="25.66" r="4.91"/><path class="inner_path" d="M15.39,32.76A6.4,6.4,0,0,0,14,32.6a5.83,5.83,0,0,0-6,5.62,5.28,5.28,0,0,0,.62,2.48c1.2.11,2.44.18,3.69.22,0-.32,0-.64,0-1A9.66,9.66,0,0,1,15.39,32.76Z"/><path class="inner_path" d="M22.21,31.55c-4.88,0-8.84,3.69-8.84,8.25a7.76,7.76,0,0,0,.91,3.64c2.56.23,5.21.36,7.93.36s5.37-.12,7.93-.36a7.76,7.76,0,0,0,.91-3.64C31.05,35.24,27.1,31.55,22.21,31.55Z"/></g></g></svg>