<svg xmlns="http://www.w3.org/2000/svg" viewBox="0 0 444.12 500.01"><g id="Layer_2" data-name="Layer 2"><g id="Layer_1-2" data-name="Layer 1"><g id="Layer_2-2" data-name="Layer 2"><g id="Layer_1-2-2" data-name="Layer 1-2"><path d="M222.06,0C99.42,0,0,37.84,0,84.52l.41,35.29a20,20,0,0,0,5.35,13.38l150.41,162A40,40,0,0,1,166.54,322V480a20,20,0,0,0,32.52,15.61l71-67A20,20,0,0,0,277.57,413V321.56A40,40,0,0,1,288,294.63L438.73,133.3a20,20,0,0,0,5.39-13.66V84.52C444.12,37.84,344.7,0,222.06,0Zm0,128C128.7,128,53,107.45,53,84.52S128.7,41,222.06,41s169,20.59,169,43.51S315.42,128,222.06,128Z"/></g></g></g></g></svg>