<svg xmlns="http://www.w3.org/2000/svg" viewBox="0 0 7 13"><defs><style>.cls-1{fill:#fff;}</style></defs><g id="Layer_2" data-name="Layer 2"><g id="Layer_1-2" data-name="Layer 1"><path class="cls-1" d="M7,8.52a2.61,2.61,0,0,1-.8,2,3.76,3.76,0,0,1-2.25.9V13H3V11.44a7.15,7.15,0,0,1-3-.67v-2a7.88,7.88,0,0,0,1.47.59A6.89,6.89,0,0,0,3,9.61V7.2L2.53,7A5,5,0,0,1,.58,5.68,2.67,2.67,0,0,1,0,3.92,2.4,2.4,0,0,1,.79,2.07,3.78,3.78,0,0,1,3,1.19V0H4V1.16a7.28,7.28,0,0,1,2.89.71L6.18,3.69A7.05,7.05,0,0,0,4,3.08v2.3a10.24,10.24,0,0,1,1.94,1,2.83,2.83,0,0,1,.84.94A2.52,2.52,0,0,1,7,8.52ZM2.1,3.92a.8.8,0,0,0,.21.57A2.28,2.28,0,0,0,3,4.94V3.12C2.4,3.21,2.1,3.48,2.1,3.92ZM4.9,8.64a.72.72,0,0,0-.24-.55A2.8,2.8,0,0,0,4,7.62V9.56C4.59,9.44,4.9,9.13,4.9,8.64Z"/></g></g></svg>