<svg xmlns="http://www.w3.org/2000/svg" viewBox="0 0 502.61 389.41"><defs><style>.cls-1{fill:#231f20;fill-rule:evenodd;}</style></defs><title>icon_svg_paper_plane</title><g id="Layer_2" data-name="Layer 2"><g id="Layer_1-2" data-name="Layer 1"><path class="cls-1" d="M137.35,193,8.64,141.11c-11.66-4-13-12.4,5.43-16.45L482.85,2.23c25.51-7,20.78,3.2,15.91,20L379.17,373.31c-6.44,20-10.62,20.67-27,5.88l-87.53-77.35-64,48.37c-5.74,4.26-12.2,3.85-12.14-3.21l1.16-109.17a2.49,2.49,0,0,1,1.05-1.94L418.57,68.46c6.35-4.64,6-7.25-2.86-3.25L146,192.32c-4.59,2.07-4.62,2.36-8.64.67"/></g></g></svg>