<svg xmlns="http://www.w3.org/2000/svg" viewBox="0 0 48 51"><defs><style>.cls-1{fill:#fff;}</style></defs><g id="Layer_2" data-name="Layer 2"><g id="Icon"><path class="cls-1" d="M45.34,23.3A9.74,9.74,0,0,0,38.92,21c0-.47,0-.95.06-1.45A1.5,1.5,0,0,0,37.48,18h-35A1.5,1.5,0,0,0,1,19.52C1.52,38.06,11,45,11,45H29a17.68,17.68,0,0,0,3.1-3.27l.71.07c.64.06,1.27.09,1.88.09a14.57,14.57,0,0,0,9.86-3.37A10.78,10.78,0,0,0,48,30.29,9.1,9.1,0,0,0,45.34,23.3ZM41.85,35.56a10.63,10.63,0,0,1-7.3,2.33,38,38,0,0,0,4-12.94,6.21,6.21,0,0,1,4.07,1.28,5.33,5.33,0,0,1,1.48,4.06A6.87,6.87,0,0,1,41.85,35.56Z"/><path class="cls-1" d="M0,47v.49a2,2,0,0,0,1.45,1.92l3.66,1.05A14,14,0,0,0,9,51H31a14,14,0,0,0,3.85-.54l3.66-1.05A2,2,0,0,0,40,47.49V47Z"/><path class="cls-1" d="M17.81,8C11.92,4.08,17,0,17,0c-2.2,0-5,2.05-5,4.57A4.41,4.41,0,0,0,14.2,8h0c5.89,3.92.81,8,.81,8,2.2,0,5-2.05,5-4.57A4.41,4.41,0,0,0,17.8,8Z"/><path class="cls-1" d="M25.81,8C19.92,4.08,25,0,25,0c-2.2,0-5,2.05-5,4.57A4.41,4.41,0,0,0,22.2,8h0c5.89,3.92.81,8,.81,8,2.2,0,5-2.05,5-4.57A4.41,4.41,0,0,0,25.8,8Z"/></g></g></svg>