<svg xmlns="http://www.w3.org/2000/svg" viewBox="0 0 50 49.99"><g id="Layer_2" data-name="Layer 2"><g id="Common"><path class="cls-1" d="M48.43,21.49l-3.56-.88-.77-.19-.22-.76a19.43,19.43,0,0,0-1.63-4l-.41-.75.5-.7,1.72-2.43a2,2,0,0,0-.23-2.64L41.41,6.72A2,2,0,0,0,40,6.12a2.07,2.07,0,0,0-1.08.31L36.17,8.07l-.68.41-.7-.4a19.32,19.32,0,0,0-4.28-1.78l-.83-.23-.15-.86-.59-3.51a2,2,0,0,0-2-1.71H23.49a2,2,0,0,0-2,1.57l-.94,3.88-.19.76-.75.23A19.44,19.44,0,0,0,15.7,8.12l-.7.41-.69-.43L10.44,5.74a2.17,2.17,0,0,0-1.07-.29A2.05,2.05,0,0,0,7.91,6L5.5,8.46a2.09,2.09,0,0,0-.22,2.65l2.61,3.68.48.67L8,16.19a18.61,18.61,0,0,0-1.29,3.33l-.22.76-.77.18-4.14,1a2.06,2.06,0,0,0-1.57,2V26.9a2,2,0,0,0,1.71,2l4,.68.84.14.25.81a18.88,18.88,0,0,0,1.49,3.58l.38.7-.41.68-2.47,4a2.06,2.06,0,0,0,.31,2.53l2.41,2.41a2.07,2.07,0,0,0,1.46.6,2.09,2.09,0,0,0,1.19-.38l3.66-2.59.69-.49.74.39a18.91,18.91,0,0,0,3.38,1.39l.75.23.18.76,1,4a2,2,0,0,0,2,1.56H26.9a2.05,2.05,0,0,0,2-1.7l.62-3.65.14-.85.84-.23a19,19,0,0,0,3.67-1.44l.75-.39.69.49L38.22,44a2,2,0,0,0,1.19.38,2,2,0,0,0,1.45-.6l2.42-2.42a2.05,2.05,0,0,0,.3-2.53l-1.65-2.69-.42-.7.41-.71a19.24,19.24,0,0,0,1.89-4.32l.25-.81.84-.14,3.39-.58a2,2,0,0,0,1.71-2V23.49A2,2,0,0,0,48.43,21.49ZM33.38,25A8.38,8.38,0,1,1,25,16.62,8.38,8.38,0,0,1,33.38,25Z"/></g></g></svg>