<svg xmlns="http://www.w3.org/2000/svg" viewBox="0 0 43.88 50"><g id="Layer_2" data-name="Layer 2"><g id="Common"><path class="cls-1" d="M38.32,16.67h.08a16.67,16.67,0,1,0-33.33,0h.49A5.57,5.57,0,0,0,0,22.22V44.44A5.57,5.57,0,0,0,5.56,50H38.32a5.57,5.57,0,0,0,5.56-5.56V22.22A5.57,5.57,0,0,0,38.32,16.67Zm-12,24c.52,1.93-.1,2.48-1.94,2.52H19.13c-1.84,0-2.46-.59-1.94-2.52.35-1.31,1.1-5.29,1.57-7.88a5.71,5.71,0,1,1,6,0C25.2,35.37,25.95,39.36,26.29,40.67Zm-15.67-24a11.11,11.11,0,1,1,22.22,0Z"/></g></g></svg>