<svg xmlns="http://www.w3.org/2000/svg" viewBox="0 0 64 50"><defs><style>.cls-1{fill:#cc2043;}</style></defs><g id="Layer_2" data-name="Layer 2"><g id="Icon"><path class="cls-1" d="M49.84,28H53a1,1,0,0,0,1-1V25a1,1,0,0,0-1-1H50.06a2,2,0,0,0-2,1.88l-.77-2.8a9.4,9.4,0,0,0-9-7.08H25.69a9.39,9.39,0,0,0-9,7.08L16,25.88a2,2,0,0,0-2-1.88H11a1,1,0,0,0-1,1v2a1,1,0,0,0,1,1h3.16A9.81,9.81,0,0,0,12,34c0,4.31,1.78,7.8,4,8v2.36A1.67,1.67,0,0,0,17.67,46h2.66A1.67,1.67,0,0,0,22,44.33V42H42v2.33A1.67,1.67,0,0,0,43.67,46h2.66A1.67,1.67,0,0,0,48,44.33V42c2.22-.17,4-3.66,4-8A9.81,9.81,0,0,0,49.84,28ZM20.32,24.14A5.53,5.53,0,0,1,25.54,20H38.46a5.53,5.53,0,0,1,5.22,4.14L44.2,26H19.8Zm2.92,11.69a.37.37,0,0,1-.31.17H16.61a.61.61,0,0,1-.61-.61V32.61a.61.61,0,0,1,.61-.61h4.67a.6.6,0,0,1,.55.36l1.43,3.12A.36.36,0,0,1,23.24,35.83Zm14.7-2.77L37,35.42a.84.84,0,0,1-.75.58h-8.5a.84.84,0,0,1-.75-.58l-.94-2.36a.88.88,0,0,1,0-.71.55.55,0,0,1,.49-.35H37.42a.55.55,0,0,1,.49.35A.88.88,0,0,1,37.94,33.06ZM48,35.39a.61.61,0,0,1-.61.61H41.12a.38.38,0,0,1-.32-.18.36.36,0,0,1,0-.36l1.36-3.14A.61.61,0,0,1,42.7,32h4.69a.61.61,0,0,1,.61.61ZM63.82,17.74,62,21V48a2,2,0,0,1-2,2H53.28A1.28,1.28,0,0,1,52,48.72V45.28A1.28,1.28,0,0,1,53.28,44H56V19.89L32,7.62,8,19.89V44h2.72A1.28,1.28,0,0,1,12,45.28v3.44A1.28,1.28,0,0,1,10.72,50H4a2,2,0,0,1-2-2V21L.18,17.74a1.44,1.44,0,0,1-.11-1.13,1.49,1.49,0,0,1,.75-.87L31.28.17a1.59,1.59,0,0,1,1.44,0L63.18,15.74a1.53,1.53,0,0,1,.75.87A1.44,1.44,0,0,1,63.82,17.74Z"/></g></g></svg>