<svg xmlns="http://www.w3.org/2000/svg" viewBox="0 0 48 48"><defs><style>.cls-1{fill:#fff;}</style></defs><g id="Layer_2" data-name="Layer 2"><g id="Icon"><path class="cls-1" d="M46.41,9.66l.89-.89a2.4,2.4,0,0,0,0-3.39L42.62.7A2.41,2.41,0,0,0,41,0h-.07a2.38,2.38,0,0,0-1.69.7L4.7,35.23.09,46.59A1.06,1.06,0,0,0,0,47a1,1,0,0,0,1,1H1a1,1,0,0,0,.41-.09L12.77,43.3,45,11.08l.72.71a1,1,0,0,1,0,1.4l-8.41,8.09a1,1,0,0,0,0,1.41A1,1,0,0,0,38,23a1,1,0,0,0,.69-.28l8.43-8.1a3,3,0,0,0,0-4.24ZM2.78,45.22l3.51-8.89,5.39,5.38ZM31.87,21.63l-5.5-5.5,1.76-1.76,5.5,5.5Z"/></g></g></svg>