<svg xmlns="http://www.w3.org/2000/svg" viewBox="0 0 44.25 50"><g id="Layer_2" data-name="Layer 2"><g id="Common"><path id="_Compound_Path_" data-name="&lt;Compound Path&gt;" class="cls-1" d="M43.12,50h-42A1.12,1.12,0,0,1,0,48.88V1.12A1.12,1.12,0,0,1,1.12,0h42a1.12,1.12,0,0,1,1.12,1.12V48.88A1.12,1.12,0,0,1,43.12,50ZM40.87,18V4.5a1.12,1.12,0,0,0-1.12-1.12H4.5A1.12,1.12,0,0,0,3.38,4.5V18A1.12,1.12,0,0,0,4.5,19.16H39.75A1.12,1.12,0,0,0,40.87,18ZM14.07,32.09V23.65a1.12,1.12,0,0,0-1.12-1.12H4.5a1.12,1.12,0,0,0-1.12,1.12v8.44A1.12,1.12,0,0,0,4.5,33.22h8.44A1.12,1.12,0,0,0,14.07,32.09Zm-6-7.93a.94.94,0,0,0-.26.67v2.07H5.69a1,1,0,0,0-1,1,1,1,0,0,0,.28.69,1,1,0,0,0,.67.29H7.8v2.05a.94.94,0,0,0,.94,1,.91.91,0,0,0,.66-.28,1,1,0,0,0,.28-.67V28.86h2.08a1,1,0,0,0,1-1,1,1,0,0,0-.28-.69,1,1,0,0,0-.67-.29H9.67V24.84a1,1,0,0,0-1-1A.91.91,0,0,0,8.06,24.17Zm19.4,7.93V23.65a1.12,1.12,0,0,0-1.12-1.12H17.9a1.12,1.12,0,0,0-1.12,1.12v8.44a1.12,1.12,0,0,0,1.12,1.12h8.44A1.12,1.12,0,0,0,27.46,32.09ZM26.1,27.87h0a1,1,0,0,0-1-1H19.09a1,1,0,0,0-1,1h0a1,1,0,0,0,1,1h6.06A1,1,0,0,0,26.1,27.87Zm-12,17.63V37.06a1.12,1.12,0,0,0-1.12-1.12H4.5a1.12,1.12,0,0,0-1.12,1.12V45.5A1.12,1.12,0,0,0,4.5,46.62h8.44A1.12,1.12,0,0,0,14.07,45.5ZM5.62,39.14a1,1,0,0,0,.28.67l1.47,1.47L5.91,42.75a1,1,0,1,0,1.34,1.34l1.47-1.47,1.47,1.47a1,1,0,1,0,1.34-1.34l-1.47-1.47,1.48-1.48a1,1,0,0,0,0-1.35,1,1,0,0,0-1.35,0L8.72,39.94,7.25,38.47a.95.95,0,0,0-1.62.67ZM40.87,45.5V23.65a1.12,1.12,0,0,0-1.12-1.12H31.3a1.12,1.12,0,0,0-1.12,1.12V45.5a1.12,1.12,0,0,0,1.12,1.12h8.44A1.12,1.12,0,0,0,40.87,45.5ZM39.51,33.69v-1a.44.44,0,0,0-.44-.44H32a.44.44,0,0,0-.44.44v1a.44.44,0,0,0,.44.44h7.1A.44.44,0,0,0,39.51,33.69Zm0,2.82v-1a.44.44,0,0,0-.44-.44H32a.44.44,0,0,0-.44.44v1a.44.44,0,0,0,.44.44h7.1A.44.44,0,0,0,39.51,36.51Zm-12,9V37.06a1.12,1.12,0,0,0-1.12-1.12H17.9a1.12,1.12,0,0,0-1.12,1.12V45.5a1.12,1.12,0,0,0,1.12,1.12h8.44A1.12,1.12,0,0,0,27.46,45.5ZM26.1,41.28h0a1,1,0,0,0-1-1H19.09a1,1,0,0,0-1,1h0a1,1,0,0,0,1,1h6.06A1,1,0,0,0,26.1,41.28Zm-4-3.61a1,1,0,1,0,1,1A1,1,0,0,0,22.12,37.67Zm0,5.31a1,1,0,1,0,1,1A1,1,0,0,0,22.12,43Z"/></g></g></svg>