<svg xmlns="http://www.w3.org/2000/svg" viewBox="0 0 56.19 56.19"><g id="Layer_2" data-name="Layer 2"><g id="Layer_1-2" data-name="Layer 1"><path class="cls-1" d="M55.81.38H51V3.83H44.73V.38H11.46V3.83H5.23V.38H.37V55.81H5.23V53.75h6.24v2.07H44.73V53.75H51v2.07h4.85V.38ZM54.43,54.43H52.35v-.68A1.4,1.4,0,0,0,51,52.35H44.74a1.4,1.4,0,0,0-1.39,1.39v.68H12.85v-.68a1.4,1.4,0,0,0-1.39-1.39H5.23a1.4,1.4,0,0,0-1.39,1.39v.68H1.76V1.76H3.84V3.83A1.4,1.4,0,0,0,5.23,5.23h6.22a1.4,1.4,0,0,0,1.39-1.39V1.76h30.5V3.83a1.4,1.4,0,0,0,1.39,1.39H51a1.4,1.4,0,0,0,1.39-1.39V1.76h2.08Z"/><path class="cls-1" d="M55.81,56.19h-5L50.6,56V54.11H45.1v1.95l-.38.13H11.31L11.09,56V54.11H5.6v1.95l-.38.13h-5L0,56V.15L.38,0h5l.2.24V3.46h5.49V.15L11.47,0H44.9l.2.24V3.46h5.49V.15L51,0h5.21V56.06Zm-4.47-.75h4.1V.75h-4.1V4l-.21.23H51l-6.39,0-.21-.1V.75H11.84V4l-.21.23h-.17l-6.39,0-.21-.1V.75H.75V55.44h4.1V53.59l.22-.22h.16l6.37,0,.23.1v2H44.35V53.59l.22-.22h.16l6.37,0,.23.1Zm3.47-.64H52V53.75a1,1,0,0,0-1-1H44.74a1,1,0,0,0-1,1v1.06H12.47V53.75a1,1,0,0,0-1-1H5.23a1,1,0,0,0-1,1v1.06H1.39V1.39H4.22V3.83a1,1,0,0,0,1,1h6.22a1,1,0,0,0,1-1V1.39H43.72V3.83a1,1,0,0,0,1,1H51a1,1,0,0,0,1-1V1.39h2.83Zm-2.08-.75h1.33V2.14H52.73v1.7A1.77,1.77,0,0,1,51,5.6H44.74A1.77,1.77,0,0,1,43,3.83V2.14H13.22v1.7A1.77,1.77,0,0,1,11.46,5.6H5.23A1.77,1.77,0,0,1,3.47,3.83V2.14H2.14V54.06H3.47v-.31A1.77,1.77,0,0,1,5.23,52h6.22a1.77,1.77,0,0,1,1.77,1.77v.31H43v-.31A1.77,1.77,0,0,1,44.74,52H51a1.77,1.77,0,0,1,1.77,1.77Z"/><path class="cls-1" d="M21.86,33.64,35.16,28.1,21.86,22.55Zm1.39-9,8.32,3.47-8.32,3.47Z"/><path class="cls-1" d="M21.48,34.2V22L36.14,28.1Zm.75-11.09v10l12-5Zm.64,9V24.07l9.67,4Zm.75-6.93V31l7-2.9Z"/><path class="cls-1" d="M11.46,8.69H5.23a1.39,1.39,0,0,0-1.39,1.39v4.85a1.39,1.39,0,0,0,1.39,1.39h6.24a1.39,1.39,0,0,0,1.39-1.39V10.08A1.39,1.39,0,0,0,11.46,8.69Zm0,6.24H5.23V10.08h6.24Z"/><path class="cls-1" d="M11.46,16.69H5.23a1.76,1.76,0,0,1-1.76-1.76V10.08A1.76,1.76,0,0,1,5.23,8.32h6.24a1.76,1.76,0,0,1,1.76,1.76v4.85A1.76,1.76,0,0,1,11.46,16.69ZM5.23,9.07a1,1,0,0,0-1,1v4.85a1,1,0,0,0,1,1h6.24a1,1,0,0,0,1-1V10.08a1,1,0,0,0-1-1Zm6.61,6.24h-7V9.7h7ZM5.6,14.55h5.49v-4.1H5.6Z"/><path class="cls-1" d="M11.46,19.78H5.23a1.39,1.39,0,0,0-1.39,1.39V26A1.39,1.39,0,0,0,5.23,27.4h6.24A1.39,1.39,0,0,0,12.85,26V21.17A1.39,1.39,0,0,0,11.46,19.78Zm0,6.24H5.23V21.17h6.24Z"/><path class="cls-1" d="M11.46,27.78H5.23A1.76,1.76,0,0,1,3.47,26V21.17a1.76,1.76,0,0,1,1.76-1.76h6.24a1.76,1.76,0,0,1,1.76,1.76V26A1.76,1.76,0,0,1,11.46,27.78ZM5.23,20.16a1,1,0,0,0-1,1V26a1,1,0,0,0,1,1h6.24a1,1,0,0,0,1-1V21.17a1,1,0,0,0-1-1Zm6.61,6.24h-7v-5.6h7ZM5.6,25.64h5.49v-4.1H5.6Z"/><path class="cls-1" d="M11.46,30.87H5.23a1.39,1.39,0,0,0-1.39,1.39v4.85a1.39,1.39,0,0,0,1.39,1.39h6.24a1.39,1.39,0,0,0,1.39-1.39V32.26A1.39,1.39,0,0,0,11.46,30.87Zm0,6.24H5.23V32.26h6.24Z"/><path class="cls-1" d="M11.46,38.87H5.23a1.76,1.76,0,0,1-1.76-1.76V32.26a1.76,1.76,0,0,1,1.76-1.76h6.24a1.76,1.76,0,0,1,1.76,1.76v4.85A1.76,1.76,0,0,1,11.46,38.87ZM5.23,31.24a1,1,0,0,0-1,1v4.85a1,1,0,0,0,1,1h6.24a1,1,0,0,0,1-1V32.26a1,1,0,0,0-1-1Zm6.61,6.24h-7v-5.6h7ZM5.6,36.73h5.49v-4.1H5.6Z"/><path class="cls-1" d="M11.46,42H5.23a1.39,1.39,0,0,0-1.39,1.39v4.85a1.39,1.39,0,0,0,1.39,1.39h6.24a1.39,1.39,0,0,0,1.39-1.39V43.34A1.39,1.39,0,0,0,11.46,42Zm0,6.24H5.23V43.34h6.24Z"/><path class="cls-1" d="M11.46,50H5.23a1.76,1.76,0,0,1-1.76-1.76V43.34a1.76,1.76,0,0,1,1.76-1.76h6.24a1.76,1.76,0,0,1,1.76,1.76v4.85A1.76,1.76,0,0,1,11.46,50ZM5.23,42.33a1,1,0,0,0-1,1v4.85a1,1,0,0,0,1,1h6.24a1,1,0,0,0,1-1V43.34a1,1,0,0,0-1-1Zm6.61,6.24h-7V43h7ZM5.6,47.82h5.49v-4.1H5.6Z"/><path class="cls-1" d="M51,8.69H44.73a1.39,1.39,0,0,0-1.39,1.39v4.85a1.39,1.39,0,0,0,1.39,1.39H51a1.39,1.39,0,0,0,1.39-1.39V10.08A1.39,1.39,0,0,0,51,8.69Zm0,6.24H44.73V10.08H51Z"/><path class="cls-1" d="M51,16.69H44.73A1.76,1.76,0,0,1,43,14.93V10.08a1.76,1.76,0,0,1,1.76-1.76H51a1.76,1.76,0,0,1,1.76,1.76v4.85A1.76,1.76,0,0,1,51,16.69ZM44.73,9.07a1,1,0,0,0-1,1v4.85a1,1,0,0,0,1,1H51a1,1,0,0,0,1-1V10.08a1,1,0,0,0-1-1Zm6.61,6.24h-7V9.7h7Zm-6.24-.75h5.49v-4.1H45.1Z"/><path class="cls-1" d="M51,19.78H44.73a1.39,1.39,0,0,0-1.39,1.39V26a1.39,1.39,0,0,0,1.39,1.39H51A1.39,1.39,0,0,0,52.35,26V21.17A1.39,1.39,0,0,0,51,19.78ZM51,26H44.73V21.17H51Z"/><path class="cls-1" d="M51,27.78H44.73A1.76,1.76,0,0,1,43,26V21.17a1.76,1.76,0,0,1,1.76-1.76H51a1.76,1.76,0,0,1,1.76,1.76V26A1.76,1.76,0,0,1,51,27.78Zm-6.24-7.62a1,1,0,0,0-1,1V26a1,1,0,0,0,1,1H51a1,1,0,0,0,1-1V21.17a1,1,0,0,0-1-1Zm6.61,6.24h-7v-5.6h7Zm-6.24-.75h5.49v-4.1H45.1Z"/><path class="cls-1" d="M51,30.87H44.73a1.39,1.39,0,0,0-1.39,1.39v4.85a1.39,1.39,0,0,0,1.39,1.39H51a1.39,1.39,0,0,0,1.39-1.39V32.26A1.39,1.39,0,0,0,51,30.87Zm0,6.24H44.73V32.26H51Z"/><path class="cls-1" d="M51,38.87H44.73A1.76,1.76,0,0,1,43,37.11V32.26a1.76,1.76,0,0,1,1.76-1.76H51a1.76,1.76,0,0,1,1.76,1.76v4.85A1.76,1.76,0,0,1,51,38.87Zm-6.24-7.62a1,1,0,0,0-1,1v4.85a1,1,0,0,0,1,1H51a1,1,0,0,0,1-1V32.26a1,1,0,0,0-1-1Zm6.61,6.24h-7v-5.6h7Zm-6.24-.75h5.49v-4.1H45.1Z"/><path class="cls-1" d="M51,42H44.73a1.39,1.39,0,0,0-1.39,1.39v4.85a1.39,1.39,0,0,0,1.39,1.39H51a1.39,1.39,0,0,0,1.39-1.39V43.34A1.39,1.39,0,0,0,51,42Zm0,6.24H44.73V43.34H51Z"/><path class="cls-1" d="M51,50H44.73A1.76,1.76,0,0,1,43,48.19V43.34a1.76,1.76,0,0,1,1.76-1.76H51a1.76,1.76,0,0,1,1.76,1.76v4.85A1.76,1.76,0,0,1,51,50Zm-6.24-7.62a1,1,0,0,0-1,1v4.85a1,1,0,0,0,1,1H51a1,1,0,0,0,1-1V43.34a1,1,0,0,0-1-1Zm6.61,6.24h-7V43h7Zm-6.24-.75h5.49v-4.1H45.1Z"/></g></g></svg>