<svg xmlns="http://www.w3.org/2000/svg" viewBox="0 0 48 30"><defs><style>.cls-1{fill:#fff;}</style></defs><g id="Layer_2" data-name="Layer 2"><g id="Icon"><path class="cls-1" d="M46.8,23A1,1,0,0,0,48,22V14.92a4.06,4.06,0,0,0-2.64-3.82L8.09.29C5.73-.44,3.77.21,3,2.12c0,0-3,7-3,9.31,0,1,.19,1.9,1.55,2.23L3,14v5a2,2,0,0,0,2,2H35.29c-.89,2.25-2.41,5-4.29,5H3a3,3,0,0,0-3,3v0a1,1,0,0,0,1,1H47a1,1,0,0,0,1-1v0a3,3,0,0,0-3-3V22.61ZM5,14.37,27.48,19H5ZM43,26H34.75a16,16,0,0,0,2.67-4.95L43,22.2Z"/></g></g></svg>