<svg xmlns="http://www.w3.org/2000/svg" viewBox="0 0 57.58 57.58"><g id="Layer_2" data-name="Layer 2"><g id="Layer_1-2" data-name="Layer 1"><path class="cls-1" d="M55.82,57.2H39a1.39,1.39,0,0,1-1.39-1.39v-.35h-.35v.35a1.39,1.39,0,0,1-1.39,1.39H21.69a1.39,1.39,0,0,1-1.39-1.39v-.35H20v.35a1.39,1.39,0,0,1-1.39,1.39H1.76A1.39,1.39,0,0,1,.38,55.82V1.76A1.39,1.39,0,0,1,1.76.38H55.82A1.39,1.39,0,0,1,57.2,1.76v9a1.39,1.39,0,0,1-1.39,1.39H53.74v2.08h2.08a1.39,1.39,0,0,1,1.39,1.39v40.2A1.39,1.39,0,0,1,55.82,57.2ZM37.28,54.08h.35A1.39,1.39,0,0,1,39,55.47v.35H55.82V15.62H53.74a1.39,1.39,0,0,1-1.39-1.39V12.16a1.39,1.39,0,0,1,1.39-1.39h2.08v-9H1.76V55.82H18.57v-.35A1.39,1.39,0,0,1,20,54.08h.35a1.39,1.39,0,0,1,1.39,1.39v.35H35.89v-.35A1.39,1.39,0,0,1,37.28,54.08ZM53.74,11.46v.69h0ZM28.79,54.22a3.47,3.47,0,0,1-3.47-3.47V42.16a3.47,3.47,0,0,1,6.93,0v8.59A3.47,3.47,0,0,1,28.79,54.22Zm0-14.14a2.08,2.08,0,0,0-2.08,2.08v8.59a2.08,2.08,0,1,0,4.16,0V42.16A2.08,2.08,0,0,0,28.79,40.09Zm10.4-1.94a2.43,2.43,0,1,1,2.43-2.43A2.43,2.43,0,0,1,39.18,38.14Zm0-3.47a1,1,0,1,0,1,1A1,1,0,0,0,39.18,34.68Zm-10.4,1.73a7.62,7.62,0,1,1,7.62-7.62A7.63,7.63,0,0,1,28.79,36.41Zm0-13.86A6.24,6.24,0,1,0,35,28.79,6.24,6.24,0,0,0,28.79,22.55Z"/><path class="cls-1" d="M55.82,57.58H39a1.76,1.76,0,0,1-1.56-.94,1.76,1.76,0,0,1-1.56.94H21.69a1.76,1.76,0,0,1-1.56-.94,1.76,1.76,0,0,1-1.56.94H1.76A1.76,1.76,0,0,1,0,55.82V1.76A1.76,1.76,0,0,1,1.76,0H55.82a1.76,1.76,0,0,1,1.76,1.76v9a1.76,1.76,0,0,1-1.76,1.76h-1.7v1.33h1.7a1.76,1.76,0,0,1,1.76,1.76v40.2A1.76,1.76,0,0,1,55.82,57.58ZM36.9,55.1H38v.72a1,1,0,0,0,1,1H55.82a1,1,0,0,0,1-1V15.62a1,1,0,0,0-1-1H53.36V11.46h.75v.32h1.7a1,1,0,0,0,1-1v-9a1,1,0,0,0-1-1H1.76a1,1,0,0,0-1,1V55.82a1,1,0,0,0,1,1H18.57a1,1,0,0,0,1-1V55.1h1.1v.72a1,1,0,0,0,1,1H35.89a1,1,0,0,0,1-1Zm19.29,1.1H38.64v-.72a1,1,0,0,0-1-1h-.35a1,1,0,0,0-1,1v.72h-15v-.72a1,1,0,0,0-1-1H20a1,1,0,0,0-1,1v.72H1.39V1.39H56.19v9.76H53.74a1,1,0,0,0-1,1v2.08a1,1,0,0,0,1,1h2.45Zm-16.81-.75H55.44V16h-1.7A1.76,1.76,0,0,1,52,14.24V12.16a1.76,1.76,0,0,1,1.76-1.76h1.7V2.14H2.14V55.44H18.19A1.76,1.76,0,0,1,20,53.71h.35a1.76,1.76,0,0,1,1.76,1.73H35.52a1.76,1.76,0,0,1,1.76-1.73h.35A1.76,1.76,0,0,1,39.39,55.44Zm-10.6-.84a3.84,3.84,0,0,1-3.84-3.84V42.16a3.84,3.84,0,0,1,7.68,0v8.59A3.84,3.84,0,0,1,28.79,54.6Zm0-15.52a3.09,3.09,0,0,0-3.09,3.09v8.59a3.09,3.09,0,1,0,6.18,0V42.16A3.09,3.09,0,0,0,28.79,39.07Zm0,14.14a2.46,2.46,0,0,1-2.45-2.45V42.16a2.45,2.45,0,0,1,4.91,0v8.59A2.46,2.46,0,0,1,28.79,53.21Zm0-12.75a1.71,1.71,0,0,0-1.7,1.7v8.59a1.7,1.7,0,1,0,3.41,0V42.16A1.71,1.71,0,0,0,28.79,40.46Zm10.4-1.94a2.8,2.8,0,1,1,2.8-2.8A2.8,2.8,0,0,1,39.18,38.52Zm0-4.85a2.05,2.05,0,1,0,2.05,2.05A2.05,2.05,0,0,0,39.18,33.67Zm0,3.47a1.41,1.41,0,1,1,1.41-1.41A1.42,1.42,0,0,1,39.18,37.13Zm0-2.08a.66.66,0,1,0,.66.66A.67.67,0,0,0,39.18,35.05Zm-10.4,1.73a8,8,0,1,1,8-8A8,8,0,0,1,28.79,36.79Zm0-15.25A7.25,7.25,0,1,0,36,28.79,7.26,7.26,0,0,0,28.79,21.54Zm0,13.86a6.61,6.61,0,1,1,6.61-6.61A6.62,6.62,0,0,1,28.79,35.4Zm0-12.47a5.86,5.86,0,1,0,5.86,5.86A5.87,5.87,0,0,0,28.79,22.93Z"/></g></g></svg>