<svg xmlns="http://www.w3.org/2000/svg" viewBox="0 0 64 42"><defs><style>.cls-1{fill:#4d4d4d;}</style></defs><g id="Layer_2" data-name="Layer 2"><g id="Icon"><path class="cls-1" d="M39,9.36,58,25.17V38.89A3.11,3.11,0,0,1,54.89,42H44V28.81a.81.81,0,0,0-.81-.81H34.81a.81.81,0,0,0-.81.81V42H23.11A3.11,3.11,0,0,1,20,38.89v-6A17,17,0,0,0,35,16a17.27,17.27,0,0,0-.29-3.07ZM63.51,19.73,56,13.55V5.17A1.17,1.17,0,0,0,54.83,4H51.17A1.17,1.17,0,0,0,50,5.17V8.6L40,.35a1.54,1.54,0,0,0-2,0l-6.49,5.4A17.11,17.11,0,0,1,34,10.38l5-4.14L59.93,23.65a1.53,1.53,0,0,0,2.06-.1l1.63-1.89A1.3,1.3,0,0,0,63.51,19.73ZM32,16A14,14,0,0,1,10.21,27.63L6.58,32.7a3.69,3.69,0,0,1-5.46.18,3.69,3.69,0,0,1,.18-5.46L6.19,23.5A14,14,0,1,1,32,16Zm-6,0a8,8,0,1,0-8,8A8,8,0,0,0,26,16Z"/></g></g></svg>