<svg xmlns="http://www.w3.org/2000/svg" viewBox="0 0 500.23 447.7"><g id="Layer_2" data-name="Layer 2"><g id="Layer_1-2" data-name="Layer 1"><path d="M.13,220.3c.7-6.4,4-15.7,7.5-20.6s9.8-13.8,14.3-19.6,12-14.9,16.8-20.2,12.6-13.4,17.4-18,14.7-13,22-18.6,18.5-13.5,24.8-17.4,15.8-9.4,21.1-12.1,11.6-6.1,14-7.5,3.6-4.2,2.8-6.2-5.5-10.9-10.3-19.7l-8.6-15.8c-4.8-8.8-8.2-18.4-7.5-21.3s4-7,7.5-9a139.68,139.68,0,0,1,13.4-6.8c3.9-1.7,9.2-4.1,11.8-5.3a23.21,23.21,0,0,1,7.5-2.2c1.5,0,7,7.1,12.1,15.7l21.8,36.9c5.1,8.6,14.4,14.7,20.8,13.5a151.86,151.86,0,0,1,23.3-2.2h23.3a188.62,188.62,0,0,1,24.2,1.9c7,1.1,16.9,2.7,22,3.7s13.4,2.7,18.3,3.7a155.17,155.17,0,0,1,20.2,6.2c6.1,2.4,16.6,6.6,23.3,9.3s19,9.2,27.3,14.3a299.79,299.79,0,0,1,26.1,18c6,4.8,16.2,13.3,22.7,18.9a308.89,308.89,0,0,1,23.6,23.6c6.5,7.3,15,17.8,18.9,23.3a216,216,0,0,1,12.4,19.9c2.9,5.5,5.3,13.8,5.3,18.6s-2.4,12.6-5.3,17.4-9.1,13.9-13.7,20.2-13.1,16.8-18.9,23.3-16.7,17.3-24.1,24l-3.9,3.5a294.15,294.15,0,0,1-28.8,22.2l-1.8,1.2a343.08,343.08,0,0,1-30.8,17.7c-8.5,4.3-12,15.2-7.6,24.2l10.8,22.4c4.4,9,8.4,17.7,8.9,19.2a9.64,9.64,0,0,1,.3,5c-.3,1.2-7.8,6.1-16.6,11l-4.1,2.3c-8.8,4.8-17.8,8.8-20,8.8s-8-7.2-12.8-16l-20.3-37c-4.8-8.8-12.7-23.2-17.5-32L176,144.5c-4.8-8.8-10.1-18.7-11.8-21.9s-8.6-3.1-15.2.3-8.2,13.4-3.5,22.3l120,223.1c4.8,8.8.4,15.9-9.6,15.8l-5.1-.1c-10-.1-22.2-7.5-26.9-16.3l-110.1-202c-4.8-8.8-13.5-12.1-19.3-7.3s-6.7,15.9-2,24.8l93.5,177c4.7,8.9,7.7,16.8,6.7,17.7s-9.6-1.1-19.1-4.4l-9-3.1c-9.5-3.3-21.2-13.1-26-21.9L64.13,212.3c-4.8-8.8-13.5-9.8-19.3-2.2s-6.4,20.9-1.3,29.5l43.6,73.8c5.1,8.6,8.6,16.8,7.7,18.2s-4.3,1.2-7.8-.3-12.2-8.4-19.5-15.3L50,299.4a297,297,0,0,1-24.6-26.8L22,268.3C15.83,260.4,8,249,4.83,243S-.57,226.7.13,220.3ZM359,143.8a145.42,145.42,0,0,1,9.6,21.1,153.27,153.27,0,0,1,5.9,26l.7,5.2a139.58,139.58,0,0,1,0,28.9v.2c-1,8-3.8,19.2-6.2,25a184.12,184.12,0,0,1-12.1,22.9l-.1.1a164.9,164.9,0,0,1-17.9,22.8l-1.4,1.4c-5.6,5.8-7,16.2-3.1,23.2l.7,1.2c3.9,7,10.3,11.5,14.3,9.9a155.27,155.27,0,0,0,15.2-7.1c4.4-2.4,11.7-6.6,16.1-9.3s11.7-7.6,16.1-10.9,10.7-8,14-10.6,8.8-7.6,12.4-11.2,10.4-11,15.2-16.5,11.2-13.1,14.3-17.1,8-10.5,10.9-14.6,4.3-9,3.1-11-3.9-6-5.9-9-6.1-8.5-9-12.3-8.2-10.2-11.8-14.3-10.3-11.2-14.9-15.8-13.3-12.3-19.2-17.1-14.8-11.2-19.6-14.3-12.6-7.8-17.4-10.6a176.32,176.32,0,0,0-18.6-8.7c-5.5-2-7-.1-3.4,4.3C350.53,130.5,355.93,138.5,359,143.8Zm-29.8,87,6.8-.8,5-3.2,3.3-3.8,2.8-5.5.8-9.8-.8-10-3.3-13.3-4.3-12.5-8-14.5-8-10.5-8-8.3-12-10-13.8-8.3-14.8-6-11.8-2.8-13-2.3-9,.8-7.3,3-3.5,3.3-3.3,5v4l.8,5.3,2.8,5.5,5.8,4.5,10,3,7.8.8,12,2,13.8,6.3,8.8,6.5,8.3,7.8,6,7.8,4.8,8.3,3.3,9,2,7.5.8,5.3.3,5.8,1.5,7.8.5,4.3,3.5,3.5Z"/></g></g></svg>