<svg xmlns="http://www.w3.org/2000/svg" viewBox="0 0 293.73 396.03"><g id="Layer_2" data-name="Layer 2"><g id="Web_Contact_Icons" data-name="Web Contact Icons"><path d="M147.7,0H146A120.34,120.34,0,0,0,25.68,120.34C25.68,211.73,146,332.21,146,332.21h1.67S268,211.73,268,120.34A120.34,120.34,0,0,0,147.7,0Zm0,187.64a67.3,67.3,0,1,1,67.3-67.3A67.3,67.3,0,0,1,147.7,187.64Z"/><polygon points="293.73 396.03 0 396.03 44.45 299.66 75.72 299.66 89.7 316.26 55.33 316.26 26.39 379.44 267.34 379.44 238.4 316.26 204.03 316.26 218.01 299.66 249.28 299.66 293.73 396.03"/></g></g></svg>