<svg xmlns="http://www.w3.org/2000/svg" viewBox="0 0 12.87 13"><g id="Layer_2" data-name="Layer 2"><g id="Layer_1-2" data-name="Layer 1"><path class="cls-1" d="M4.59,6.8h1.8a.3.3,0,0,1,.3.3V13h6.18l-.08-.68-.17-1.47c-.06-.3-1.35-.86-2.32-1.33A13.36,13.36,0,0,1,8.15,8l-.28-.24V7.17a3.53,3.53,0,0,0,.39-.53c.31-.5.57-1.07.69-1.21a3.48,3.48,0,0,0,.41-1.24c0-.22-.28-.41-.28-.41V2.3A2.63,2.63,0,0,0,8.61,1,2.73,2.73,0,0,0,6.45,0H6.28A2.78,2.78,0,0,0,4.21.88,2.57,2.57,0,0,0,3.65,2.3V3.77s-.28.19-.28.41a3.48,3.48,0,0,0,.41,1.24C3.92,5.58,4.23,6.27,4.59,6.8Z"/><rect class="cls-1" y="11.84" width="5.8" height="1.15"/><rect class="cls-1" y="9.79" width="5.8" height="1.15"/><rect class="cls-1" y="7.74" width="5.8" height="1.15"/></g></g></svg>