<svg xmlns="http://www.w3.org/2000/svg" viewBox="0 0 62 54"><defs><style>.cls-1{fill:#4d4d4d;}</style></defs><g id="Layer_2" data-name="Layer 2"><g id="Icon"><path class="cls-1" d="M28.73,50H26V18H22l-4,4V18H14V50H11.27A1.27,1.27,0,0,0,10,51.26v1.48A1.27,1.27,0,0,0,11.27,54H28.73A1.27,1.27,0,0,0,30,52.74V51.26A1.27,1.27,0,0,0,28.73,50ZM22,22v8l-4-4Zm-4,8,4,4-4,4Zm4,8v8l-4-4ZM18,50V45.8L22,50ZM30,14H46v6H39a1,1,0,0,0-1,1V23a1,1,0,0,0,1,1H57a1,1,0,0,0,1-1V21a1,1,0,0,0-1-1H50V14H60.83a1.17,1.17,0,0,0,.83-2l-9-9a3.48,3.48,0,0,0-2.45-1H26.43l2.69,4h2.55L30,7.82ZM50.39,6l4,4H46.33ZM46.73,6l-4.06,4L39,6ZM35.33,6,39,10H31.67ZM10,8,8,6h2V2H2.33A2.34,2.34,0,0,0,0,4.33v7.34A2.34,2.34,0,0,0,2.33,14H10ZM4,10V6l4.4,4ZM61,28H59a1,1,0,0,0-1,1v5H54V31a1,1,0,0,0-1-1H51a1,1,0,0,0-1,1v3H46V31a1,1,0,0,0-1-1H43a1,1,0,0,0-1,1v3H38V29a1,1,0,0,0-1-1H35a1,1,0,0,0-1,1V51a3,3,0,0,0,3,3H59a3,3,0,0,0,3-3V29A1,1,0,0,0,61,28ZM42,50H38V46h4Zm0-8H38V38h4Zm8,8H46V46h4Zm0-8H46V38h4Zm8,8H54V46h4Zm0-8H54V38h4ZM14.33,16H25.67A2.34,2.34,0,0,0,28,13.67V9.35A2.32,2.32,0,0,0,27.59,8L22.78,1a2.36,2.36,0,0,0-1.93-1H14.33A2.34,2.34,0,0,0,12,2.33V13.67A2.34,2.34,0,0,0,14.33,16ZM16,4h4.38l2.74,4H16Z"/></g></g></svg>