<svg xmlns="http://www.w3.org/2000/svg" viewBox="0 0 48 48"><defs><style>.cls-1{fill:#fff;}</style></defs><g id="Layer_2" data-name="Layer 2"><g id="Icon"><path class="cls-1" d="M38.24,40.41A21,21,0,0,0,27,4.24V3a3,3,0,0,0-6,0V4.24A21,21,0,0,0,9.76,40.41L5.59,44.59a2,2,0,1,0,2.82,2.82L13,42.85a20.85,20.85,0,0,0,22,0l4.57,4.56a2,2,0,0,0,2.82-2.82ZM24,43.1A18.1,18.1,0,1,1,42.1,25,18.12,18.12,0,0,1,24,43.1Z"/><path class="cls-1" d="M25.16,14a1.16,1.16,0,0,0-2.32,0l-.71,10.16L15,24.75a1.25,1.25,0,0,0,0,2.5L24,28a1.31,1.31,0,0,0,.28,0A1.86,1.86,0,0,0,26,26v0Z"/><path class="cls-1" d="M2.86,2.86C-.59,6.31-1,11.51,2,14.5L14.5,2C11.51-1,6.31-.59,2.86,2.86Z"/><path class="cls-1" d="M45.14,2.86C41.69-.59,36.49-1,33.5,2L46,14.5C49,11.51,48.59,6.31,45.14,2.86Z"/></g></g></svg>