<svg xmlns="http://www.w3.org/2000/svg" viewBox="0 0 65.08 56.25"><g id="Layer_2" data-name="Layer 2"><g id="Layer_1-2" data-name="Layer 1"><path d="M9.35,10.65H7.27A7.27,7.27,0,0,0,0,17.92V49a7.27,7.27,0,0,0,7.27,7.27H9.35Z"/><path d="M43.85,7.31A7.32,7.32,0,0,0,36.54,0h-8a7.32,7.32,0,0,0-7.31,7.31v3.34H14.73V56.25H50.4V10.65H43.85Zm-17.93,0a2.62,2.62,0,0,1,2.62-2.62h8a2.62,2.62,0,0,1,2.62,2.62v3.34H25.92Z"/><path d="M57.81,10.65h-2V56.25h2A7.27,7.27,0,0,0,65.08,49V17.92A7.27,7.27,0,0,0,57.81,10.65Z"/></g></g></svg>