<svg xmlns="http://www.w3.org/2000/svg" viewBox="0 0 440.38 500"><g id="Layer_2" data-name="Layer 2"><g id="Layer_1-2" data-name="Layer 1"><g id="Layer_2-2" data-name="Layer 2"><g id="Layer_1-2-2" data-name="Layer 1-2"><path d="M236.51,48.83c-29.38-1.41-58.78,2.91-87.49,8.92C143.4,58.93,61,82.8,64.93,93.68l10,28.72,61.81,175.8.26-.12c1-11.27,78.75-33.78,84.21-34.92,28.72-6,58.12-10.33,87.5-8.92,54.68,2.62,91.63-9.41,131.67-48.83L368.17,0C328.14,39.42,291.19,51.45,236.51,48.83Z"/><path d="M170.23,477.78a15.49,15.49,0,0,1-9.47,19.76h0l-4.5,1.58a15.5,15.5,0,0,1-19.76-9.48L.9,104a15.49,15.49,0,0,1,9.42-19.78l.06,0,4.5-1.58A15.49,15.49,0,0,1,34.63,92.1h0Z"/></g></g></g></g></svg>