<svg xmlns="http://www.w3.org/2000/svg" viewBox="0 0 500 500"><g id="Layer_2" data-name="Layer 2"><g id="Layer_1-2" data-name="Layer 1"><path d="M250,0C111.9,0,0,111.9,0,250S111.9,500,250,500,500,388.1,500,250,388.1,0,250,0Zm18.4,410.8c-7,6.9-16.6,10.3-29,10.3-12.7,0-22.5-3.4-29.5-10.1s-10.4-16.2-10.4-28.4q0-19.05,10.2-28.8c6.8-6.5,16.7-9.7,29.7-9.7,12.5,0,22.2,3.3,29.1,10s10.3,16.2,10.3,28.6C278.8,394.5,275.3,404,268.4,410.8Zm74.8-206.6c-7.6,12.1-21.9,25.7-43.1,40.8-14.5,10.7-23.7,18.9-27.5,24.5s-5.8,12.9-5.8,22v13.6H206.7V288.3c0-14.5,3.1-27.1,9.3-37.9s17.5-22.1,34-34.2c15.9-11.3,26.3-20.5,31.4-27.7a39.71,39.71,0,0,0,7.6-23.8c0-9.8-3.6-17.3-10.9-22.4s-17.4-7.7-30.4-7.7q-34,0-77.5,22.2l-24.7-49.6q50.55-28.35,107.2-28.3c31.1,0,55.9,7.5,74.2,22.4s27.5,34.9,27.5,59.8C354.5,177.8,350.7,192.1,343.2,204.2Z"/></g></g></svg>