<svg xmlns="http://www.w3.org/2000/svg" viewBox="0 0 450 499.95"><g id="Layer_2" data-name="Layer 2"><g id="Layer_1-2" data-name="Layer 1"><path d="M280.3,152.58l-31.9,18-29.5-16.7,31.1-17.6c12.6-7.1,23.8-10.3,35.8-3.5C298,139.67,292.2,145.87,280.3,152.58Zm-57-49.6c-9.2-5.2-19-3.8-31.1,3.1l-28.9,16.3,25.5,14.4,28.9-16.3C229.8,113.67,232.5,108.17,223.3,103ZM318,287.27a22.22,22.22,0,0,0-5.1-8.8,12.07,12.07,0,0,0-8-3.3h-.7c-.9,0-1.8.1-2.8.2a40,40,0,0,0-4.2.9c-1.5.5-3.1,1.1-4.9,1.8s-3.6,1.7-5.5,2.7a70.79,70.79,0,0,0-19.8,15.8,68.21,68.21,0,0,0-11.6,19.6,93.2,93.2,0,0,0-5.5,22,172.07,172.07,0,0,0-1.4,22.8,165.22,165.22,0,0,0,.8,16.9,66.66,66.66,0,0,0,2.9,14.2c1.4,4.1,3.3,8,5.5,10.1,4.7,4.5,10.6,3,16.1,1a35.61,35.61,0,0,0,4.7-1.9,54.8,54.8,0,0,0,5.3-2.8,67.87,67.87,0,0,0,19.5-16.4A71.64,71.64,0,0,0,314.6,362a95.93,95.93,0,0,0,5.3-22.3,190.52,190.52,0,0,0,1.4-22.7,152.16,152.16,0,0,0-.7-16.2A63.43,63.43,0,0,0,318,287.27Zm132,74.9c0,8.2-6,18.4-13.3,22.5L238.3,496.87c-7.3,4.1-19.2,4.1-26.5,0L13.3,384.68C6,380.58,0,370.48,0,362.18V137.78c0-8.2,6-18.4,13.3-22.5L211.7,3.07C219-1,231-1,238.3,3.07l19.6,11.1c7.3,4.1,19.2,10.9,26.5,15l152.3,86.1c7.3,4.1,13.3,14.2,13.3,22.5ZM239.4,209.87,317,166c36.1-20.4,40.3-39.8,15.1-54-19-10.8-42.7-10.2-64.5-3.2l-.4-.2c9.4-11.1,7.3-23.5-8.1-32.2-24-13.5-56.5-10.2-92.6,10.3l-72.6,41.1Zm92.9,104.3a169,169,0,0,0-.9-18.6,65.69,65.69,0,0,0-3.5-15.6,27.23,27.23,0,0,0-7.4-11.4,19.54,19.54,0,0,0-12.5-4.8h-1.1a31.9,31.9,0,0,0-4.2.3,47.29,47.29,0,0,0-5.8,1.3c-2,.6-4.1,1.4-6.3,2.3a72.9,72.9,0,0,0-6.9,3.4,88.94,88.94,0,0,0-23.4,18.2A81.64,81.64,0,0,0,246,312a101.66,101.66,0,0,0-7,25.4,168.86,168.86,0,0,0-1.9,26.8,161.76,161.76,0,0,0,1,19.6,70.34,70.34,0,0,0,3.7,16.3c1.9,5.1,4.5,9.7,7.8,12.4,8.8,7.4,20.5,6.2,36.9-3.9a95.81,95.81,0,0,0,23.1-18.9,84.53,84.53,0,0,0,13.9-23,106.49,106.49,0,0,0,6.8-25.6A157.7,157.7,0,0,0,332.3,314.18Zm83.1-10.9a30.75,30.75,0,0,0-1.3-9.5,17.7,17.7,0,0,0-3.9-6.7,16.42,16.42,0,0,0-6-3.9,22.42,22.42,0,0,0-7.1-1.3h-1.2c-1,0-2,0-3.1.1a35.61,35.61,0,0,0-4.4.6l-4.5.9c-1.5.4-3,.8-4.4,1.2-1.1.3-2.3.6-3.5.9s-2.7.6-4.1.9a29.69,29.69,0,0,1-4.3.6c-1.1.1-2.1.1-3.2.1h-1.1a18.81,18.81,0,0,1-5.1-.8,11.89,11.89,0,0,1-3.9-2,10.4,10.4,0,0,1-2.6-3.6,16.91,16.91,0,0,1-1.1-6.3,34,34,0,0,1,1.3-9.5,36.78,36.78,0,0,1,4.4-10,52.43,52.43,0,0,1,8.5-10.1,70,70,0,0,1,13.8-9.6c2.1-1.1,4.1-2.2,6.2-3.2s4.1-1.9,6.4-2.8,4.7-1.8,7.4-2.6c1.7-.5,3.5-1.1,5.4-1.6v17.8l10-5.5.1-25.9-3.5.7c-3,.6-5.9,1.4-8.8,2.2s-5.8,1.8-8.7,2.9-5.7,2.3-8.6,3.6-5.7,2.8-8.6,4.3a91,91,0,0,0-14.1,9.4,67.61,67.61,0,0,0-11.5,11.9,53.13,53.13,0,0,0-7.8,14.4,49.06,49.06,0,0,0-2.8,16.6,26.86,26.86,0,0,0,1.6,9.8,18.43,18.43,0,0,0,4.7,6.9,17.82,17.82,0,0,0,6.9,3.8,27.2,27.2,0,0,0,7.9,1.3h1.4c1,0,2.1,0,3.2-.1,1.5-.1,3.1-.3,4.6-.5a37.35,37.35,0,0,0,4.6-.9c1.5-.3,3-.7,4.4-1.1,1.1-.3,2.3-.6,3.5-.9a38.23,38.23,0,0,1,3.9-.8c1.3-.2,2.7-.5,4-.6,1-.1,2-.2,3-.2h.9a19.3,19.3,0,0,1,4.4.7,7.8,7.8,0,0,1,3.2,1.9,8.39,8.39,0,0,1,2.2,3.5,19.09,19.09,0,0,1,.9,6.3,40.88,40.88,0,0,1-1.4,10.1,52,52,0,0,1-4.8,11.5,57.49,57.49,0,0,1-9,11.6,66.76,66.76,0,0,1-13.9,10.5c-2.2,1.2-4.3,2.4-6.6,3.6s-4.6,2.2-7.1,3.3-5.1,2.1-8,3.1c-1.8.6-3.8,1.3-5.8,1.9v-17.6l-10,5.7v26l3.6-.9a95.2,95.2,0,0,0,9.3-2.7c3.1-1.1,6.3-2.2,9.4-3.6s6.2-2.7,9.3-4.2,6-3.1,8.9-4.8a80.32,80.32,0,0,0,14.9-10.9,78.17,78.17,0,0,0,11.7-13.5,67.87,67.87,0,0,0,7.7-15.5A73.87,73.87,0,0,0,415.4,303.27Z"/></g></g></svg>