<svg xmlns="http://www.w3.org/2000/svg" viewBox="0 0 24.79 24"><defs><style>.cls-1{fill:#fff;}</style></defs><g id="Layer_2" data-name="Layer 2"><g id="Design_2" data-name="Design 2"><path class="cls-1" d="M24.76,11.57A12.49,12.49,0,0,0,12.9,1.15V.6a.6.6,0,0,0-1.2,0v.56A12.48,12.48,0,0,0,0,11.68a.6.6,0,0,0,.92.6,4.1,4.1,0,0,1,2.24-.6,3.79,3.79,0,0,1,2.61.91.62.62,0,0,0,.85,0,3.79,3.79,0,0,1,2.61-.91,3.94,3.94,0,0,1,2.46.78v8.47a1.89,1.89,0,0,1-3.78,0,.6.6,0,1,0-1.2,0,3.09,3.09,0,0,0,6.18,0V12.44a3.93,3.93,0,0,1,2.46-.78,3.66,3.66,0,0,1,2.69,1,.6.6,0,0,0,.45.2h0a.6.6,0,0,0,.45-.2,3.66,3.66,0,0,1,2.69-1,4.11,4.11,0,0,1,2.21.59.67.67,0,0,0,.33.1.6.6,0,0,0,.57-.79Z"/></g></g></svg>