<svg xmlns="http://www.w3.org/2000/svg" viewBox="0 0 500 500"><g id="Layer_2" data-name="Layer 2"><g id="Layer_1-2" data-name="Layer 1"><g id="Layer_2-2" data-name="Layer 2"><g id="Layer_1-2-2" data-name="Layer 1-2"><path d="M250,0C111.92,0,0,112,0,250S111.92,500,250,500,500,388.08,500,250,388.15,0,250,0Zm0,449.13C140,449.13,50.77,360,50.77,250S140,50.85,250,50.85,449.3,140,449.3,250,360,449.13,250,449.13Z"/><path d="M293,253l-9.84-5.05,13.89-27c1.81-3.47-2.1-9.07-8.86-12.49s-13.53-3.4-15.37,0l-13.89,27L109.86,158.72a9.34,9.34,0,0,0-4.38-1.1,12.08,12.08,0,0,0-10.38,6.77c-3,5.8-1.19,12.63,3.87,15.27L248.21,256.4l-48.68,94.69c-1.7,3.44,2.21,9,9,12.5s13.45,3.36,15.26,0l48.71-94.73,9.8,5a9.07,9.07,0,0,0,4.27,1,11.94,11.94,0,0,0,10.43-6.7,12.9,12.9,0,0,0,1.19-8.64A10,10,0,0,0,293,253Z"/></g></g></g></g></svg>