<svg xmlns="http://www.w3.org/2000/svg" viewBox="0 0 500 445.89"><g id="Layer_2" data-name="Layer 2"><g id="Layer_1-2" data-name="Layer 1"><path d="M487.59,355,303.29,37.59c-29.1-50.1-76.7-50.1-105.8-.1L12.49,355c-29.1,50-5.6,90.9,52.3,90.9h370.4C493,446,516.59,405,487.59,355Zm-212.3,35c-6,5.9-14.4,8.9-25.1,8.9q-16.5,0-25.5-8.7t-9-24.6c0-11,2.9-19.3,8.8-24.9s14.4-8.4,25.7-8.4c10.8,0,19.2,2.9,25.2,8.6s8.9,14,8.9,24.7C284.29,375.89,281.29,384,275.29,390Zm-1-91.4h-47.8l-10-191.4h67.8Z"/></g></g></svg>