<svg xmlns="http://www.w3.org/2000/svg" viewBox="0 0 26.34 23.48"><defs><style>.cls-1{fill:#fff;}</style></defs><g id="Layer_2" data-name="Layer 2"><g id="Layer_1-2" data-name="Layer 1"><path class="cls-1" d="M25.51,15.2H23V8.27A3.31,3.31,0,0,0,26.34,5a.83.83,0,0,0-.18-.52L22.84.31A.83.83,0,0,0,22.2,0H4.14a.83.83,0,0,0-.65.31L.18,4.45A.83.83,0,0,0,0,5,3.31,3.31,0,0,0,3.31,8.27V15.2H.83A.83.83,0,0,0,0,16v6.62a.83.83,0,0,0,.83.83H25.51a.83.83,0,0,0,.83-.83V16a.83.83,0,0,0-.83-.83M1.68,5.23,4.53,1.66H21.8l2.86,3.57A1.66,1.66,0,0,1,21.37,5a.83.83,0,1,0-1.65,0,1.65,1.65,0,1,1-3.31,0,.83.83,0,1,0-1.65,0,1.65,1.65,0,0,1-1.58,1.65A1.65,1.65,0,0,1,11.58,5,.83.83,0,1,0,9.93,5,1.65,1.65,0,1,1,6.62,5,.83.83,0,1,0,5,5a1.65,1.65,0,0,1-3.29.26m13.9,1.9a3.27,3.27,0,0,0,5,0,3.3,3.3,0,0,0,.83.68V15.2H5V7.81a3.28,3.28,0,0,0,.83-.68,3.27,3.27,0,0,0,5,0,3.29,3.29,0,0,0,2.41,1.14,3.29,3.29,0,0,0,2.41-1.14m9.1,14.69h-23v-5h23Z"/></g></g></svg>