<svg xmlns="http://www.w3.org/2000/svg" viewBox="0 0 350.98 372.22"><g id="Layer_2" data-name="Layer 2"><g id="Web_Contact_Icons" data-name="Web Contact Icons"><path d="M339.74,92.92a141.95,141.95,0,0,0-81-81.32C239.33,3.9,217.92,0,195.14,0c-28.77,0-55.88,5.58-80.56,16.59A183.13,183.13,0,0,0,53,61.37C18.84,99.21,0,150.3,0,205.22c0,24.91,4.37,48.25,13,69.4a154.78,154.78,0,0,0,35.2,52.62c29.68,29,70.17,45,114,45,37.73,0,67.07-6.6,95.13-21.39a1.36,1.36,0,0,0,.64-1.67l-8.49-22.83a1.34,1.34,0,0,0-.81-.8,1.32,1.32,0,0,0-1.13.09c-21.47,12-49,18.4-79.5,18.4a146.1,146.1,0,0,1-54-9.83A122.66,122.66,0,0,1,71.34,306C46.24,280.43,33,244.47,33,202c0-26,4.25-50.4,12.63-72.53A163.6,163.6,0,0,1,79.79,74.43c28.9-30.5,68.36-47.3,111.1-47.3,39.13,0,71.67,12.73,94.1,36.8,21.6,23.18,33,55.7,33,94,0,27.72-6.41,52.86-18.06,70.77-10.34,15.91-23.95,25-37.33,25h-.55c-5.35-.16-9.38-2-12.34-5.75-6.69-8.4-7.46-25.92-2.3-52.1l18.06-96.1a1.37,1.37,0,0,0-.77-1.48c-15.52-7.16-36.44-11.27-57.37-11.27-35.2,0-67.72,13.72-91.57,38.64a128.52,128.52,0,0,0-35.61,88.54c0,20.25,6,37.57,17.47,50.09a55.22,55.22,0,0,0,41.22,18.16c32,0,56.71-15.25,75.57-46.62-.43,14.54,3.48,26.55,11.35,34.81,7.24,7.61,17.67,11.81,29.35,11.81,25.69,0,49.49-12,67-33.82C341,225.21,351,192.74,351,154.79A168.81,168.81,0,0,0,339.74,92.92ZM151.6,251.12c-21.09,0-33.68-14.58-33.68-39a100.34,100.34,0,0,1,24.35-66.21c15.79-18.06,36.64-28,58.7-28a91.74,91.74,0,0,1,25,3.32L215,180c-2.9,16.34-11.4,34.21-22.74,47.82C179.8,242.85,165.34,251.12,151.6,251.12Z"/></g></g></svg>