<svg xmlns="http://www.w3.org/2000/svg" viewBox="0 0 48 47"><defs><style>.cls-1{fill:#fff;}</style></defs><g id="Layer_2" data-name="Layer 2"><g id="Icon"><polygon class="cls-1" points="7.66 44.34 3.66 40.34 0 44 5 47 7.66 44.34"/><path class="cls-1" d="M47.41,7.66,40.34.59A2,2,0,0,0,37.59.51L8.75,26.62a2.07,2.07,0,0,0-.59,2C9.54,34.16,5,38.8,5,38.8L9.2,43s3.5-3.46,8-3.46a8.7,8.7,0,0,1,2.11.26,2.39,2.39,0,0,0,.53.06,2,2,0,0,0,1.5-.65L47.49,10.41A2,2,0,0,0,47.41,7.66ZM46.15,9.2,20,38,10,28h0L38.8,1.85a.19.19,0,0,1,.27,0l7.07,7.07A.19.19,0,0,1,46.15,9.2Z"/></g></g></svg>