<svg xmlns="http://www.w3.org/2000/svg" viewBox="0 0 18.23 17.9"><g id="Layer_2" data-name="Layer 2"><g id="Layer_1-2" data-name="Layer 1"><g id="Layer_2-2" data-name="Layer 2"><g id="Layer_1-2-2" data-name="Layer 1-2"><path class="cls-1" d="M13.71,6.42l3,.91,1.34.41c.16,0,.23.12.14.28L16,11.92c-.13-.33-.24-.6-.34-.88-.18-.48-.27-.52-.72-.23a7.64,7.64,0,0,0-3.27,4.56,10.9,10.9,0,0,0-.35,2.25c0,.21-.07.28-.3.28H8.44c-.11,0-.2,0-.2-.15a11.38,11.38,0,0,1,2.17-7A8.62,8.62,0,0,1,13.64,8.1l.22-.1c.4-.2.43-.31.23-.7-.1-.09-.1-.22-.17-.3Z"/><path class="cls-1" d="M6.81,13.76a.07.07,0,0,1-.14,0,7,7,0,0,0-3-3l-.26-.13c-.28-.12-.44-.07-.54.2a7.9,7.9,0,0,1-.35.8.07.07,0,0,1-.1,0h0a1.25,1.25,0,0,1-.28-.35l-2-3.2c-.22-.36-.19-.44.26-.56L4.53,6.46c.11,0,.21-.06.3,0s0,.16,0,.25l-.33.68c-.11.22,0,.38.22.46A9.67,9.67,0,0,1,7.93,10c.32.29.32.34.11.69a15.88,15.88,0,0,0-1.24,3Z"/><path class="cls-1" d="M12.18,3.78a5.58,5.58,0,0,1-.9,0c-.38,0-.48.07-.48.5V6.86A1.31,1.31,0,0,1,10.39,8a8,8,0,0,0-.84.9c-.19.22-.25.23-.41,0A4.33,4.33,0,0,0,8.42,8,1.46,1.46,0,0,1,8,6.9V4.28c0-.44-.08-.53-.47-.5a5.83,5.83,0,0,1-1,0L7,3.14,9.2.19c.19-.26.22-.26.41,0l2.5,3.48Z"/></g></g></g></g></svg>