<svg xmlns="http://www.w3.org/2000/svg" viewBox="0 0 50 40.49"><g id="Layer_2" data-name="Layer 2"><g id="Layer_1-2" data-name="Layer 1"><path class="cls-1" d="M25,0a8.63,8.63,0,1,1-8.63,8.63A8.63,8.63,0,0,1,25,0M40.53,33.47c0-8-7-14.49-15.53-14.49S9.47,25.46,9.47,33.47a13.62,13.62,0,0,0,1.6,6.4c4.49.41,9.15.63,13.93.63s9.44-.22,13.93-.63a13.63,13.63,0,0,0,1.59-6.4M38.78,7.58a5.85,5.85,0,0,0-3.31,1c0,.08,0,.16,0,.24a10.39,10.39,0,0,1-2.27,6.49,5.87,5.87,0,1,0,5.56-7.75m.65,13.24A11.21,11.21,0,0,0,37,21.1a17,17,0,0,1,5.53,12.61c0,.58,0,1.15-.09,1.71,2.21-.06,4.38-.19,6.49-.38A9.28,9.28,0,0,0,50,30.68c0-5.45-4.73-9.86-10.57-9.86M5.34,13.45a5.87,5.87,0,0,0,11.44,1.87,10.38,10.38,0,0,1-2.27-6.49c0-.08,0-.16,0-.24a5.87,5.87,0,0,0-9.18,4.85M0,30.68A9.28,9.28,0,0,0,1.09,35c2.11.19,4.28.32,6.49.38-.05-.56-.09-1.13-.09-1.71A17,17,0,0,1,13,21.1a11.22,11.22,0,0,0-2.44-.28C4.73,20.82,0,25.23,0,30.68"/></g></g></svg>