<svg xmlns="http://www.w3.org/2000/svg" viewBox="0 0 44 44"><defs><style>.cls-1{fill:#fff;}</style></defs><g id="Layer_2" data-name="Layer 2"><g id="Icon"><path class="cls-1" d="M42,0H2A2,2,0,0,0,2,4H3.22L6,41.36A3,3,0,0,0,9,44H35a3,3,0,0,0,3-2.69L40.78,4H42a2,2,0,0,0,0-4ZM34.41,37l2-2-.28,3.8ZM7.83,38.76,7.55,35l2,2ZM5.77,11.18,9.59,15,6.3,18.29ZM23.41,15l4.09-4.09L31.59,15,27.5,19.09Zm2.68,5.5L22,24.59,17.91,20.5,22,16.41ZM22,13.59,17.91,9.5,22,5.41,26.09,9.5ZM20.59,15,16.5,19.09,12.41,15l4.09-4.09Zm-5.5,5.5L11,24.59,6.91,20.5,11,16.41Zm1.41,1.41L20.59,26,16.5,30.09,12.41,26Zm5.5,5.5,4.09,4.09L22,35.59,17.91,31.5ZM23.41,26l4.09-4.09L31.59,26,27.5,30.09Zm5.5-5.5L33,16.41l4.09,4.09L33,24.59Zm0-11L33,5.41,37.09,9.5,33,13.59ZM27.5,8.09,23.41,4h8.18Zm-11,0L12.41,4h8.18ZM15.09,9.5,11,13.59,6.91,9.5,11,5.41ZM9.59,26,7.06,28.52l-.4-5.45ZM7.32,31.9l-.06-.75L11,27.41l4.09,4.09L11,35.59Zm9.18,1L20.59,37,16.5,41.09,12.41,37Zm5.5,5.5L25.59,42H18.41ZM23.41,37l4.09-4.09L31.59,37,27.5,41.09Zm5.5-5.5L33,27.41l3.74,3.74-.06.75L33,35.59Zm5.5-5.5,2.93-2.93-.4,5.45Zm0-11,3.83-3.82-.54,7.11Zm4.06-6.94L34.41,4h4.36ZM9.59,4,5.53,8.05,5.23,4ZM8.07,41.34,11,38.41,14.59,42H9A1,1,0,0,1,8.07,41.34ZM35,42H29.41L33,38.41l2.92,2.93A1,1,0,0,1,35,42Z"/></g></g></svg>