<svg xmlns="http://www.w3.org/2000/svg" viewBox="0 0 55.67 55.67"><defs><style>.cls-1{fill:#fff;}</style></defs><g id="Layer_2" data-name="Layer 2"><g id="Layer_1-2" data-name="Layer 1"><path class="cls-1" d="M27.83,0A27.84,27.84,0,1,0,55.67,27.83,27.87,27.87,0,0,0,27.83,0Zm0,6.11c2.3,0,4.76,3.34,6.33,8.85a35.09,35.09,0,0,1-12.67.09C23.05,9.49,25.52,6.11,27.83,6.11Zm5.94.72a21.84,21.84,0,0,1,8.94,5,29.91,29.91,0,0,1-5.62,2.36A24,24,0,0,0,33.77,6.83Zm-6,11.75a36.53,36.53,0,0,0,7.05-.82,49.53,49.53,0,0,1,.9,8.31H19.9a49.72,49.72,0,0,1,.9-8.25A40.46,40.46,0,0,0,27.81,18.58ZM16.89,26.07H6.06a22.24,22.24,0,0,1,4.23-11.36,49.51,49.51,0,0,0,7.55,2.44A55.26,55.26,0,0,0,16.89,26.07Zm0,3a58.11,58.11,0,0,0,.94,9.06,49,49,0,0,0-7.57,2.45,19.87,19.87,0,0,1-4.2-11.51Zm3,0H35.76a52.17,52.17,0,0,1-.9,8.53,38.37,38.37,0,0,0-14.07-.15A51.17,51.17,0,0,1,19.9,29.07ZM34.17,40.64c-1.56,5.55-4,8.91-6.34,8.91s-4.8-3.39-6.36-9A35,35,0,0,1,34.17,40.64Zm2.93.75a29.56,29.56,0,0,1,5.65,2.37,21.84,21.84,0,0,1-9,5.08A24.22,24.22,0,0,0,37.1,41.39Zm.7-3a46.84,46.84,0,0,0,1-9.27H49.61a20.81,20.81,0,0,1-4.77,12.24A32.1,32.1,0,0,0,37.8,38.34Zm1-12.27a55.1,55.1,0,0,0-1-9,33.39,33.39,0,0,0,7-3.1,23.41,23.41,0,0,1,4.8,12.14ZM21.89,6.83a24.25,24.25,0,0,0-3.37,7.61,45.17,45.17,0,0,1-6.17-2A21.75,21.75,0,0,1,21.89,6.83ZM12.3,43.16a46,46,0,0,1,6.2-2,24.37,24.37,0,0,0,3.4,7.68A21.84,21.84,0,0,1,12.3,43.16Z"/></g></g></svg>