<svg xmlns="http://www.w3.org/2000/svg" viewBox="0 0 692.8 428.99"><defs><style>.cls-1{fill:#424242;}</style></defs><g id="Layer_2" data-name="Layer 2"><g id="Ñëîé_1" data-name="Ñëîé 1"><path class="cls-1" d="M225,201.18a73.13,73.13,0,1,0,73.13,73.13A73.21,73.21,0,0,0,225,201.18Z"/><path class="cls-1" d="M683.52,167.6a31.66,31.66,0,0,0-44.81,0L554.4,251.9V32l-.11-2a31.64,31.64,0,0,0-63.19,0l-.1,1.84V251.9l-84.32-84.3a31.69,31.69,0,1,0-44.82,44.81L493,343.53l0,0,7.42,7.42c.42.31.85.63,1.26,1l.1.08a41.09,41.09,0,0,0,3.51,2.88l.2.1c.51.25,1,.5,1.51.79l.26.15a37.06,37.06,0,0,0,3.59,1.89l.45.12c.53.14,1.07.29,1.59.45l.45.15a30.29,30.29,0,0,0,3.41,1c.21,0,.72.07,1.09.09l1.46.11,1.55.18c.74.09,1.44.18,1.85.18s1.16-.09,1.88-.18l1.41-.17h.1l1.47-.11c.37,0,.88-.06,1-.09a25.78,25.78,0,0,0,3.07-.91l.88-.29c.49-.15,1-.28,1.48-.41l.55-.14A33.74,33.74,0,0,0,538,356l.45-.26c.42-.23.85-.44,1.28-.64l.28-.14a37.18,37.18,0,0,0,3.42-2.8c.6-.53,1.14-.92,1.49-1.18l.38-.34,138.2-138.2a31.69,31.69,0,0,0,0-44.81Z"/><path class="cls-1" d="M347.71,153.46a51.66,51.66,0,0,1,73.11,0L450,182.63v-6.77a56.42,56.42,0,0,0-56.25-56.25H336l-11.75-24.4a56.25,56.25,0,0,0-50.68-31.85H176.43a56.25,56.25,0,0,0-50.68,31.85L114,119.62H56.25A56.42,56.42,0,0,0,0,175.87V372.74A56.42,56.42,0,0,0,56.25,429h337.5A56.42,56.42,0,0,0,450,372.74v-43.9L347.71,226.56A51.76,51.76,0,0,1,347.71,153.46ZM225,386.8A112.5,112.5,0,1,1,337.5,274.3,112.5,112.5,0,0,1,225,386.8Z"/></g></g></svg>