<svg xmlns="http://www.w3.org/2000/svg" viewBox="0 0 300.06 500"><g id="Layer_2" data-name="Layer 2"><g id="Layer_1-2" data-name="Layer 1"><g id="Layer_2-2" data-name="Layer 2"><g id="Layer_1-2-2" data-name="Layer 1-2"><path d="M300.06,327.85q0,47.52-34.37,76.34t-96.23,34.54V500H128.51V439.93Q55.63,438.39.6,414.23v-78.9q26,12.81,62.63,22.71t65.28,11.66V277l-20-7.77Q49.31,246,24.68,218.62T0,150.93Q0,107.6,33.94,79.65t94.57-33.92V0h40.94V44.53q68.46,3,123.73,27.5l-28.09,70a323.29,323.29,0,0,0-95.64-23.31v88.16q58.28,22.41,83,38.85t36.16,36.16Q300,301.55,300.06,327.85ZM90,150.93q0,13.16,9.14,21.67t29.42,17.48V119.84Q90,125.51,90,150.93ZM210.1,332.34q0-12.55-10.16-21.22t-30.48-17.93V367.6Q210.12,360.69,210.1,332.34Z"/></g></g></g></g></svg>