<svg xmlns="http://www.w3.org/2000/svg" viewBox="0 0 48 44"><defs><style>.cls-1{fill:#fff;}</style></defs><g id="Layer_2" data-name="Layer 2"><g id="Icon"><polygon class="cls-1" points="6 8 6 20 8 20 8 10 40 10 40 20 42 20 42 8 6 8"/><rect class="cls-1" x="8" y="4" width="32" height="2"/><rect class="cls-1" x="10" width="28" height="2"/><path class="cls-1" d="M44,14v4.25L45.85,22H2.15L4,18.25V14L0,22V42a2,2,0,0,0,2,2H46a2,2,0,0,0,2-2V22ZM30.17,30H17.83A3.08,3.08,0,0,1,14.75,27h18.5A3.08,3.08,0,0,1,30.17,30Z"/></g></g></svg>