<svg xmlns="http://www.w3.org/2000/svg" viewBox="0 0 46.94 50"><g id="Layer_2" data-name="Layer 2"><g id="Layer_1-2" data-name="Layer 1"><path d="M9.66,14.71H36.74a1.66,1.66,0,1,0,0-3.32h-.51C36.23,4.3,29.16,0,23.2,0s-13,4.3-13,11.39H9.66a1.66,1.66,0,0,0,0,3.32Zm17.75-8a1.75,1.75,0,0,1,3.5,0v4.7h-3.5Zm-6-1.7a1.75,1.75,0,1,1,3.5,0V11.4h-3.5V5Zm-6,1.7a1.75,1.75,0,0,1,3.5,0v4.7h-3.5Z"/><path d="M30.85,27.91A12.62,12.62,0,0,0,36.38,18H10.56a12.69,12.69,0,0,0,5.53,9.89A23.21,23.21,0,0,0,0,50H46.94A23.21,23.21,0,0,0,30.85,27.91Z"/></g></g></svg>