<svg xmlns="http://www.w3.org/2000/svg" viewBox="0 0 500 500"><g id="Layer_2" data-name="Layer 2"><g id="Layer_1-2" data-name="Layer 1"><g id="Layer_2-2" data-name="Layer 2"><g id="Layer_1-2-2" data-name="Layer 1-2"><path d="M250,0C111.93,0,0,111.93,0,250S111.93,500,250,500,500,388.07,500,250,388.07,0,250,0ZM57.69,250c0-106.21,86.1-192.31,192.31-192.31a191.23,191.23,0,0,1,105.93,32L89.67,355.93A191.23,191.23,0,0,1,57.69,250ZM250,442.31a191.23,191.23,0,0,1-105.93-32L410.33,144.07a191.22,191.22,0,0,1,32,105.93C442.31,356.21,356.21,442.31,250,442.31Z"/></g></g></g></g></svg>