<svg xmlns="http://www.w3.org/2000/svg" viewBox="0 0 500 500"><g id="Layer_2" data-name="Layer 2"><g id="Layer_1-2" data-name="Layer 1"><g id="Layer_2-2" data-name="Layer 2"><g id="Layer_1-2-2" data-name="Layer 1-2"><path d="M250,0C111.93,0,0,111.93,0,250S111.93,500,250,500,500,388.07,500,250,388.07,0,250,0ZM218.59,83.4a44.27,44.27,0,0,1,62.61,0l.08.08a43.19,43.19,0,0,1,13,31.52,44.21,44.21,0,0,1-44.06,44.36h-.3q-18.7,0-31.41-12.71T205.77,115Q205.77,96.35,218.59,83.4ZM336.43,409.7H175.32V366.54h9.83q14.14,0,18.58-4.44t4.43-18.57V244.27q0-14.37-4.43-18.7t-18.58-4.31h-9.83v-43.4H305V343.53q0,14.14,4.43,18.57T328,366.54h8.39Z"/></g></g></g></g></svg>