<svg xmlns="http://www.w3.org/2000/svg" viewBox="0 0 67.53 71.66"><g id="Layer_2" data-name="Layer 2"><g id="Layer_1-2" data-name="Layer 1"><path d="M38.24,61.3a5.12,5.12,0,0,0,2.6-.81L66.31,29.92l-.09-6.46s0-2.75-2.43-2.75A2.48,2.48,0,0,0,61,23.29v6l-23.58,27L29.51,54v5.14A71.07,71.07,0,0,0,38.24,61.3Z"/><path d="M9,35.94l28.46,8c1.63-.49,1.79-.81,1.79-.81L67,11.06c1.46-3.09-.71-3.41-.71-3.41L33.16,0H31.09L3.77,30.41A20.3,20.3,0,0,0,0,40.25a13.27,13.27,0,0,0,5,11.63l5.42,1.64v-5l-2.32-.67s-3.25-1.46-3.09-6.5S9,35.94,9,35.94Z"/><path d="M24.4,45.82l-8.57-2.33a3.17,3.17,0,0,0-3.34,3V68.85L20,64.17l7.51,7.49V49.32A3.93,3.93,0,0,0,24.4,45.82Z"/></g></g></svg>