<svg xmlns="http://www.w3.org/2000/svg" viewBox="0 0 48.27 31.43"><defs><style>.back_bubble{opacity:0.50;}</style></defs><g id="Layer_2" data-name="Layer 2"><g id="Layer_1-2" data-name="Layer 1"><path d="M22.05,0h-7A11.61,11.61,0,0,0,3.71,11.72v6c0,3.9-3.71,6-3.71,6a17.26,17.26,0,0,0,8.21-2.33,11.3,11.3,0,0,0,6.87,2.33h7A11.37,11.37,0,0,0,33.42,12.39v-1A11.37,11.37,0,0,0,22.05,0Z"/><path class="back_bubble" d="M44.57,25.39v-6A11.65,11.65,0,0,0,36.41,8.18a14.7,14.7,0,0,1,.35,3.19v1A14.73,14.73,0,0,1,22.05,27.1H17.31a11.34,11.34,0,0,0,8.92,4.33h7a11.3,11.3,0,0,0,6.87-2.33,17.26,17.26,0,0,0,8.21,2.33S44.57,29.29,44.57,25.39Z"/></g></g></svg>