<svg xmlns="http://www.w3.org/2000/svg" viewBox="0 0 500.04 457.1"><g id="Layer_2" data-name="Layer 2"><g id="Layer_1-2" data-name="Layer 1"><g id="Layer_2-2" data-name="Layer 2"><g id="Layer_1-2-2" data-name="Layer 1-2"><path d="M492.55,240.34a378.14,378.14,0,0,0-94.1-57.86c-.07-.23-.15-.45-.22-.69A255.23,255.23,0,0,1,250,229.16,255.19,255.19,0,0,1,102.15,182l-.07.21A378,378,0,0,0,7.45,240.34a20.83,20.83,0,1,0,26.77,31.93h0a337.34,337.34,0,0,1,60-40.2q-.2,4.84-.21,9.75a218.34,218.34,0,0,0,15.18,80.69A213.67,213.67,0,0,0,42.31,431.13a20.83,20.83,0,0,0,40.38,10.26h0a172.19,172.19,0,0,1,46.64-80.81c28.66,42,72.17,68.74,120.91,68.74S342.3,402.66,371,360.87a172.11,172.11,0,0,1,46.35,80.52,20.83,20.83,0,0,0,40.38-10.25h0a213.69,213.69,0,0,0-66.49-108.32,218.33,218.33,0,0,0,15.29-81q0-4.77-.2-9.49a337.42,337.42,0,0,1,59.49,39.94,20.83,20.83,0,0,0,26.77-31.93ZM250,187.5A214.1,214.1,0,0,0,457.69,26a20.83,20.83,0,1,0-40.38-10.25h0a172.18,172.18,0,0,1-58.51,91.42c-28.1-32.65-66.34-52.81-108.57-52.81S169.62,74.63,141.5,107.43A172.26,172.26,0,0,1,82.69,15.7,20.84,20.84,0,0,0,42.31,26,214.1,214.1,0,0,0,250,187.5Z"/></g></g></g></g></svg>