<svg xmlns="http://www.w3.org/2000/svg" viewBox="0 0 13 13"><defs><style>.cls-1{fill:#9f9f9f;}</style></defs><g id="Layer_2" data-name="Layer 2"><g id="Layer_1-2" data-name="Layer 1"><path class="cls-1" d="M11.35,9.11c-1.12-.61-2.78-.21-3.42-.87-.17-.17-.16-1.11,0-1.12,1.48-.07,1.54-.18,1.88-.35a.87.87,0,0,1,0-1c.37-.59-.37-1,0-1.8S9,.65,7.64.19A5.42,5.42,0,0,0,6.48,0,2.69,2.69,0,0,0,4,1.72a8,8,0,0,0-.61,2.11c.28,1-.42,1.16-.11,1.7.46.81.16,1.27-.06,1.24a3,3,0,0,0,1.92.34c.16,0,.16,1,0,1.13-.62.64-2.2.46-3.42.89S0,11.77,0,12.17,4.19,13,6.42,13c3.13,0,6.54-.38,6.58-.84A5.14,5.14,0,0,0,11.35,9.11Z"/></g></g></svg>