<svg xmlns="http://www.w3.org/2000/svg" viewBox="0 0 500 384.61"><g id="Layer_2" data-name="Layer 2"><g id="Layer_1-2" data-name="Layer 1"><g id="Layer_2-2" data-name="Layer 2"><g id="Layer_1-2-2" data-name="Layer 1-2"><path d="M461.54,51.21H359C286.17,51.21,265.07,0,239.67,0H46.07C15.36,0,12.16,49.1,0,51.21V346.15a38.57,38.57,0,0,0,38.46,38.46H461.54A38.57,38.57,0,0,0,500,346.15V89.67A38.58,38.58,0,0,0,461.54,51.21ZM74.39,15.33a19.78,19.78,0,0,1,17.52,6,11.52,11.52,0,0,0,8.4,3.41h13.8a10.35,10.35,0,0,1,0,20.7H100.78a12.43,12.43,0,0,0-9,3.53,19.75,19.75,0,0,1-14.26,6,20,20,0,0,1-3.14-39.68Zm0,70.92a19.79,19.79,0,0,1,17.52,6,11.52,11.52,0,0,0,8.4,3.41h13.8a10.35,10.35,0,0,1,0,20.7H100.78a12.44,12.44,0,0,0-9,3.52A19.75,19.75,0,0,1,77.51,126a20,20,0,0,1-3.14-39.68Zm0,70.92a19.79,19.79,0,0,1,17.52,6,11.52,11.52,0,0,0,8.4,3.41h13.8a10.35,10.35,0,0,1,0,20.7H100.78a12.42,12.42,0,0,0-9,3.53,19.76,19.76,0,0,1-14.27,6.08,20,20,0,0,1-3.14-39.68ZM58,243.49a19.91,19.91,0,0,1,33.89-9.44,11.52,11.52,0,0,0,8.4,3.4h13.8a10.35,10.35,0,0,1,0,20.7H100.78a12.42,12.42,0,0,0-9,3.53,19.75,19.75,0,0,1-14.27,6.08A20,20,0,0,1,58,243.49Zm49.8,126a35.75,35.75,0,0,1-35.75-35.75c0-12,13.15-33.18,23.5-48a14.92,14.92,0,0,1,24.49,0c10.35,14.83,23.5,36,23.5,48a35.75,35.75,0,0,1-35.71,35.79h0ZM140.75,230a19.78,19.78,0,0,1-17.49-6,11.52,11.52,0,0,0-8.38-3.45l-13.79-.06a10.35,10.35,0,1,1,.09-20.7l13.32.06a12.41,12.41,0,0,0,9-3.49,19.75,19.75,0,0,1,14.29-6,20,20,0,0,1,3,39.7Zm.25-69.5a19.78,19.78,0,0,1-17.49-6,11.53,11.53,0,0,0-8.41-3.5l-13.79-.06a10.35,10.35,0,1,1,.09-20.7l13.32.06a12.41,12.41,0,0,0,9-3.49,19.75,19.75,0,0,1,14.29-6,20,20,0,0,1,3,39.69Zm.21-69.5a19.8,19.8,0,0,1-17.5-6,11.52,11.52,0,0,0-8.38-3.44l-13.8-.06a10.35,10.35,0,0,1,.09-20.7l13.32.06a12.47,12.47,0,0,0,9-3.49,19.76,19.76,0,0,1,14.29-6,20,20,0,0,1,3,39.7ZM291.67,280.83H191.27v-21.5l55.8-79.25H192.6V152h97.66v21.43l-55.8,79.33h57.2Zm53.43,0h-35V152h35Zm108.62-54.52Q441,238.09,417.53,238.09h-9.78v42.74H373V152h44.58q24.42,0,36.68,10.67T466.45,193q0,21.54-12.73,33.31Z"/><path d="M416.74,180.08h-9V209.7h6.35c5.24,0,9.39-1.46,12.49-4.39s4.62-7,4.62-12.17Q431.2,180.09,416.74,180.08Z"/></g></g></g></g></svg>