<svg xmlns="http://www.w3.org/2000/svg" viewBox="0 0 23.93 26.21"><g id="Layer_2" data-name="Layer 2"><g id="Layer_1-2" data-name="Layer 1"><g id="Layer_2-2" data-name="Layer 2"><g id="Layer_1-2-2" data-name="Layer 1-2"><path class="cls-1" d="M8.71.69A8.07,8.07,0,0,0,4,7.93V13.8c0,1.42-4,6-4,6.82a1.46,1.46,0,0,0,1.46,1.46H7.19a4.82,4.82,0,0,0,9.54,0h5.74a1.46,1.46,0,0,0,1.46-1.46c0-.8-4-5.39-4-6.82V7.93A8,8,0,0,0,15.21.69a8.77,8.77,0,0,0-1.5-.5A8,8,0,0,0,12,0h0a8,8,0,0,0-1.75.19A12.64,12.64,0,0,0,8.71.69ZM12,24.51a3.17,3.17,0,0,1-3.07-2.44H15A3.17,3.17,0,0,1,12,24.51ZM2,20.41c.29-.43.68-1,1-1.4,1.82-2.63,2.7-4,2.7-5.21V7.93a6.23,6.23,0,0,1,1-3.44A6.41,6.41,0,0,1,9.4,2.21c.31-.14,1.18-.4,1.18-.4a6.32,6.32,0,0,1,2.76,0l1.18.39A5.54,5.54,0,0,1,17.2,4.49a6.23,6.23,0,0,1,1,3.44V13.8c0,1.21.88,2.58,2.75,5.21.3.42.69,1,1,1.4Z"/></g></g></g></g></svg>