<svg xmlns="http://www.w3.org/2000/svg" viewBox="0 0 500 500"><g id="Layer_2" data-name="Layer 2"><g id="Layer_1-2" data-name="Layer 1"><path d="M481.4,376.7c-11.4-25.3-24.7-41.8-46.2-56.5-18.1-12.4-94.9-50.3-117.3-60.8a114.43,114.43,0,0,0,16.8-36.2C349.3,209,364,184.7,364,159.1c0-8.1-.3-14.4-2.6-20.2a16.66,16.66,0,0,0-5.8-7.7,12.45,12.45,0,0,0-2-1s2.3-20.3-.6-38.8-7.7-30.9-17.6-38.8c-3.4-22.8-14-33.2-32.9-41.5A137.84,137.84,0,0,0,250,0h0c-50.2.7-77.4,23.1-90.4,45.7a98.59,98.59,0,0,0-12.8,45.4c0,.2-.5,39.2-.5,39.2a7.5,7.5,0,0,0-2,1,17.36,17.36,0,0,0-5.8,7.7c-2.3,5.8-2.6,12.1-2.6,20.2,0,25.5,14.7,49.8,29.3,64.1a113.85,113.85,0,0,0,20.2,40.6C154.6,277,81.4,309,64.7,320.3,43.2,335,29.9,351.6,18.5,376.8S0,431.3,0,458.1a8.37,8.37,0,0,0,4.9,7.5C72.4,496.4,196.3,500,250,500s177.6-3.6,245.1-34.4a8.37,8.37,0,0,0,4.9-7.5C500,431.3,492.9,402,481.4,376.7Z"/></g></g></svg>