<svg xmlns="http://www.w3.org/2000/svg" viewBox="0 0 500 353.2"><g id="Layer_2" data-name="Layer 2"><g id="Layer_1-2" data-name="Layer 1"><path d="M88.3,235.5H58.9V191.3q0-44.1,44.2-44.1H235.5V110.4h29.6v36.8H397.5c29.4,0,44.2,14.7,44.2,44.1v44.2H412.3V206.1c0-29.4,0-29.4-29.4-29.4H265.2v58.9H235.5v-59H117.8c-29.4,0-29.4,0-29.4,29.4C88.3,228.1,88.3,235.5,88.3,235.5Zm265-220.8A14.72,14.72,0,0,0,338.6,0H161.9a14.72,14.72,0,0,0-14.7,14.7V73.6a14.72,14.72,0,0,0,14.7,14.7H338.5a14.72,14.72,0,0,0,14.7-14.7V14.7ZM147.7,279.6A14.72,14.72,0,0,0,133,264.9H14.7A14.72,14.72,0,0,0,0,279.6v58.9a14.72,14.72,0,0,0,14.7,14.7H132.9a14.72,14.72,0,0,0,14.7-14.7V279.6Zm176.1,0a14.72,14.72,0,0,0-14.7-14.7H190.9a14.72,14.72,0,0,0-14.7,14.7v58.9a14.72,14.72,0,0,0,14.7,14.7H309.1a14.72,14.72,0,0,0,14.7-14.7Zm176.2,0a14.72,14.72,0,0,0-14.7-14.7H367.1a14.72,14.72,0,0,0-14.7,14.7v58.9a14.72,14.72,0,0,0,14.7,14.7H485.3A14.72,14.72,0,0,0,500,338.5Z"/></g></g></svg>