<svg xmlns="http://www.w3.org/2000/svg" viewBox="0 0 388.37 500.01"><g id="Layer_2" data-name="Layer 2"><g id="Layer_1-2" data-name="Layer 1"><g id="Layer_2-2" data-name="Layer 2"><g id="Layer_1-2-2" data-name="Layer 1-2"><path d="M194.41,500a64.62,64.62,0,0,1-64.63-64.59H259A64.6,64.6,0,0,1,194.41,500ZM0,391.31c1-4.31,2.24-5.66,3.61-6.83C72,311.72,67.39,247.37,70.69,122.3c0-30.32,39.9-55.61,93.39-62.22-4.63-6.3-7.91-13.67-7.91-22.08a38,38,0,0,1,76,0c0,8.49-3.32,15.94-8,22.27,53.48,6.61,93.53,31.72,93.53,62,3.28,125.07-1.33,189.42,67.07,262.18,1.36,1.17,2.59,2.52,3.6,6.83Z"/></g></g></g></g></svg>