<svg xmlns="http://www.w3.org/2000/svg" viewBox="0 0 66.1 69.28"><g id="Layer_2" data-name="Layer 2"><g id="Layer_1-2" data-name="Layer 1"><path class="cls-1" d="M44,19.7A10.11,10.11,0,1,0,33.93,29.81,10.12,10.12,0,0,0,44,19.7Zm-18.93,0a8.82,8.82,0,1,1,8.82,8.82A8.83,8.83,0,0,1,25.11,19.7Z"/><path class="cls-1" d="M33.93,30.18A10.49,10.49,0,1,1,44.41,19.7,10.5,10.5,0,0,1,33.93,30.18Zm0-20.22a9.74,9.74,0,1,0,9.74,9.74A9.75,9.75,0,0,0,33.93,10Zm0,18.93a9.19,9.19,0,1,1,9.19-9.19A9.2,9.2,0,0,1,33.93,28.89Zm0-17.64a8.44,8.44,0,1,0,8.44,8.44A8.45,8.45,0,0,0,33.93,11.25Z"/><path class="cls-1" d="M42.64,45.15a11.59,11.59,0,0,1-3.19,2,9.89,9.89,0,0,1-1.86.67,61,61,0,0,1,7.9-10.76c4.13-4.9,8-9.52,8-17.13a19.59,19.59,0,1,0-39.18,0c0,7.61,3.9,12.23,8,17.13a51.45,51.45,0,0,1,7.54,11.16,5.86,5.86,0,0,1-1.64-.39c-4.62-1.33-7.88-4.17-10.85-4.17a7.27,7.27,0,0,0-5.82,2.91L1.42,64.06s6.3-5.33,12.12-5.33c10.67,0,13.58,10.18,33,10.18,7.76,0,18.91-6.79,18.91-6.79ZM15.63,20a18.3,18.3,0,0,1,36.6,0c0,7.13-3.58,11.38-7.73,16.29l-.8.94c-3.35,3.94-7.15,8.41-9.54,15.23L33.6,54,33,52.43a49.05,49.05,0,0,0-9.68-16.17C19.21,31.34,15.63,27.1,15.63,20Zm9.85,41.61c-3.62-2.13-7-4.15-11.94-4.15a17.94,17.94,0,0,0-8.18,2.44L12.7,47.3A6,6,0,0,1,17.42,45c1.33,0,2.93.8,4.77,1.73A29.42,29.42,0,0,0,29,49.39c.54.1,1.1.15,1.5.19.45,1,.89,2.12,1.3,3.27l1.78,5.09,1.78-5.09a34.77,34.77,0,0,1,1.49-3.58c.33,0,.85-.14,1.6-.31a15.11,15.11,0,0,0,4.22-2.17L63.07,62c-3.34,1.83-11,5.64-16.55,5.64C35.73,67.62,30.29,64.41,25.48,61.58Z"/><path class="cls-1" d="M46.52,69.28C35.28,69.28,29.62,66,24.63,63,21.07,60.92,18,59.1,13.54,59.1c-5.61,0-11.82,5.19-11.88,5.25L0,65.75,11.28,46.41a7.59,7.59,0,0,1,6.14-3.1c1.73,0,3.49.88,5.53,1.9a31.71,31.71,0,0,0,5.42,2.28,6.66,6.66,0,0,0,.88.27,52.18,52.18,0,0,0-7.17-10.43C17.91,32.39,14,27.71,14,20a20,20,0,1,1,39.93,0c0,7.74-3.95,12.42-8.12,17.37l-.8.94a57.93,57.93,0,0,0-6.61,9q.43-.16.93-.38a11.41,11.41,0,0,0,3.08-2l.23-.23,23.5,17.5-.47.29C65.17,62.72,54.29,69.28,46.52,69.28Zm-33-10.93c4.64,0,7.81,1.86,11.47,4,4.91,2.89,10.47,6.16,21.5,6.16,6.66,0,16-5.17,18.23-6.45L42.66,45.63a12.87,12.87,0,0,1-3.06,1.89,10.53,10.53,0,0,1-1.93.69l-.8.18.39-.73a55.7,55.7,0,0,1,7.14-9.89l.79-.94C49.28,32,53.14,27.44,53.14,20a19.22,19.22,0,1,0-38.43,0c0,7.47,3.86,12,7.95,16.88a51.89,51.89,0,0,1,7.59,11.24l.28.59-.65-.05a6.35,6.35,0,0,1-1.74-.41,32.08,32.08,0,0,1-5.52-2.32c-2-1-3.64-1.82-5.19-1.82a6.92,6.92,0,0,0-5.51,2.74L2.7,62.61C4.95,61,9.33,58.35,13.54,58.35Zm33,9.64c-10.89,0-16.38-3.24-21.23-6.09l.19-.32-.19.32c-3.58-2.1-7-4.09-11.74-4.09a17.2,17.2,0,0,0-8,2.4l-1.18.64,8-13.73a6.33,6.33,0,0,1,5.05-2.5c1.42,0,3.05.82,4.94,1.76A29,29,0,0,0,29.11,49c.53.09,1.08.15,1.45.18l.22,0,.09.21c.49,1.11.92,2.19,1.31,3.3l1.43,4.08L35,52.73a35,35,0,0,1,1.5-3.62l.09-.18.2,0c.33,0,.84-.14,1.57-.31a14.72,14.72,0,0,0,4.08-2.1l.22-.17L63.76,62l-.51.28C60.13,64,52.25,68,46.52,68Zm-33-10.93c5,0,8.46,2,12.13,4.2h0c4.76,2.81,10.16,6,20.85,6,5.27,0,12.5-3.52,15.86-5.31L42.68,47.26a15.61,15.61,0,0,1-4.09,2.06c-.56.13-1,.23-1.46.3A34.72,34.72,0,0,0,35.73,53l-2.13,6.1L31.46,53c-.36-1-.75-2-1.2-3-.37,0-.84-.09-1.31-.17A29.59,29.59,0,0,1,22,47c-1.81-.91-3.37-1.69-4.61-1.69A5.54,5.54,0,0,0,13,47.52L6.33,59A16.82,16.82,0,0,1,13.54,57.06ZM33.6,55.17l-.91-2.61A48.72,48.72,0,0,0,23.07,36.5c-4.2-5-7.82-9.26-7.82-16.53A18.67,18.67,0,1,1,52.6,20c0,7.27-3.62,11.56-7.82,16.53l-.8.94c-3.33,3.91-7.1,8.35-9.47,15.11ZM33.93,2A18,18,0,0,0,16,20c0,7,3.54,11.19,7.64,16A49.38,49.38,0,0,1,33.39,52.3l.21.59.21-.59C36.22,45.41,40,40.92,43.41,37l.8-.94c4.1-4.86,7.64-9.05,7.64-16A17.94,17.94,0,0,0,33.93,2Z"/></g></g></svg>