<svg xmlns="http://www.w3.org/2000/svg" viewBox="0 0 59.31 45.38"><defs><style>.cls-1{fill:#fff;}</style></defs><g id="Layer_2" data-name="Layer 2"><g id="Layer_1-2" data-name="Layer 1"><path class="cls-1" d="M52.81,25.84a40.3,40.3,0,0,1-5.11-3.62c-2.61-2-6.18-4.71-7.89-5.51-3.15-1.46-7.9-4-9.56-4.9L23.59,12l-.16.31c-1.06,2.08-2.67,5.22-5.33,6.28a8.53,8.53,0,0,1-3.12.57,4.51,4.51,0,0,1-3.8-1.51,3,3,0,0,1-.55-2.35c.24-2.3.87-6.87,2.3-9.88C11.66,4.78,9.63,3.76,8.05,3A2.1,2.1,0,0,0,5.84,3a2.53,2.53,0,0,0-1,1.19l-4.55,13a6.45,6.45,0,0,0-.31,2A2.43,2.43,0,0,0,1.25,21a21.09,21.09,0,0,1,3.8,3.38,9,9,0,0,1,1.26,3.4,5,5,0,0,1,3.76-1.89A4.15,4.15,0,0,1,11,26,4.89,4.89,0,0,1,14.36,29,5.08,5.08,0,0,1,16,28.64a4.45,4.45,0,0,1,2.25.62,4.26,4.26,0,0,1,1.92,2.42,5,5,0,0,1,1-.11,5,5,0,0,1,2.56.73,4.63,4.63,0,0,1,2,4.64,4.32,4.32,0,0,1,2,.57c2,1.2,2.44,4.26,1.89,6.53l0,.13,0,.12a3.59,3.59,0,0,0,.88.64c4,1.69,6.15-1.8,5.62-3.52,1.39,1,4.21.5,5.56-.89s.69-3.84.69-3.84,3.69,2.11,6.37-.52A3.11,3.11,0,0,0,49,32.32s3.51,1.41,5.15-.92S54.74,27.47,52.81,25.84Z"/><path class="cls-1" d="M24.51,45.28a2.68,2.68,0,0,1-1.28-.43,2.46,2.46,0,0,1-.73-3.55l.23-.43c.82-1.26,2.76-1.78,3.68-1.22.76.46,1.13,2.28.76,3.81l-.09.26C26.24,45.24,25.48,45.35,24.51,45.28Z"/><path class="cls-1" d="M13.11,15.64S14,6.93,16.11,5s3.81-2.45,6.72-2.94S32-.52,34.19.12s5.78,1.61,7.93,2,4.7,2,6,2.1c.72,0,2.49-.8,3.93-1.48A1.79,1.79,0,0,1,53.86,3a2.45,2.45,0,0,1,.92,1.32l4.36,13.58a3.82,3.82,0,0,1,.15,1.34,2,2,0,0,1-1.06,1.52,24.64,24.64,0,0,0-3.95,2.92c-.36.67-9.66-7.45-13.42-9.19s-10-5.15-10-5.15-8,.14-8.63.2-2.34,5.63-5.07,6.72C15.56,16.87,12.79,16.73,13.11,15.64Z"/><path class="cls-1" d="M9.57,35.29l-.41-.06a2.72,2.72,0,0,1-2-3.26l.16-.7C7.6,29.8,9,28.1,10.45,28.43s2.21,2.39,1.88,3.86l-.16,1A2.38,2.38,0,0,1,9.57,35.29Z"/><path class="cls-1" d="M14.13,39a2.11,2.11,0,0,1-1.07-.23A3,3,0,0,1,12,34.84L13.26,33c.77-1.3,2.45-2.31,3.75-1.54s1.06,2.57.48,3.92l-1,2.17A2.53,2.53,0,0,1,14.13,39Z"/><path class="cls-1" d="M19.36,42a2.68,2.68,0,0,1-1.21-.38,2.73,2.73,0,0,1-.92-3.75l1.69-2.41a2.48,2.48,0,0,1,3.5-1c1.29.78.85,3,.31,4.44l-.84,1.83A2.71,2.71,0,0,1,19.36,42Z"/></g></g></svg>