<svg xmlns="http://www.w3.org/2000/svg" viewBox="0 0 500 500"><g id="Layer_2" data-name="Layer 2"><g id="Layer_1-2" data-name="Layer 1"><g id="Layer_2-2" data-name="Layer 2"><g id="Layer_1-2-2" data-name="Layer 1-2"><path d="M480,99.31H427.11V50a50.14,50.14,0,0,0-50-50h-254a50.14,50.14,0,0,0-50,50V99.31H20a20,20,0,0,0-20,20V329.24a20.06,20.06,0,0,0,20,20H73.13V450a50.14,50.14,0,0,0,50,50h254a50.14,50.14,0,0,0,50-50V349.23H480a20.05,20.05,0,0,0,20-20V119.31A20,20,0,0,0,480,99.31ZM113.13,50a10.13,10.13,0,0,1,10-10h254a10.13,10.13,0,0,1,10,10V99.31h-274ZM57.63,191.7a32.5,32.5,0,1,1,32.53,32.47h0a32.51,32.51,0,0,1-32.51-32.48ZM387.11,450a10.13,10.13,0,0,1-10,10h-254a10.13,10.13,0,0,1-10-10V299.51a10.13,10.13,0,0,1,10-10h254a10.13,10.13,0,0,1,10,10Z"/><path d="M335.32,391.88H164.68a5,5,0,0,0-5,5v20a5,5,0,0,0,5,5H335.32a5,5,0,0,0,5-5v-20A5,5,0,0,0,335.32,391.88Z"/><path d="M335.32,329.4H164.68a5,5,0,0,0-5,5v20a5,5,0,0,0,5,5H335.32a5,5,0,0,0,5-5v-20A5,5,0,0,0,335.32,329.4Z"/></g></g></g></g></svg>