<svg xmlns="http://www.w3.org/2000/svg" viewBox="0 0 500.02 476.73"><g id="Layer_2" data-name="Layer 2"><g id="Layer_1-2" data-name="Layer 1"><g id="Layer_2-2" data-name="Layer 2"><g id="Layer_1-2-2" data-name="Layer 1-2"><path d="M499.11,244.59,428.28,14.14a20,20,0,0,0-25-13.25h0L40.88,112.29a20,20,0,0,0-13.25,25h0L34,158.11a20.11,20.11,0,0,1,2.45-.61L409.79,91.33A20,20,0,0,1,433,107.5v0l30,169.09,22.91-7a20,20,0,0,0,13.21-25Z"/><path d="M419,183.17l-6-33.49a20,20,0,0,0-23.18-16.21h0L16.52,199.64A20,20,0,0,0,.31,222.82h0l5.94,33.49Z"/><path d="M17.77,321.33,42.38,460.21a20,20,0,0,0,23.18,16.21h0l373.31-66.16a20,20,0,0,0,16.21-23.18h0L430.48,248.18Z"/></g></g></g></g></svg>