<svg xmlns="http://www.w3.org/2000/svg" viewBox="0 0 478.12 500.04"><g id="Layer_2" data-name="Layer 2"><g id="Layer_1-2" data-name="Layer 1"><path class="cls-1" d="M438.17,319.84c-46.2-11-134.1-38-134.1-38s2.7,76.2-4,97.4c-4.4,14.2-17.2,43.3-32.7,69.7l-6.6-80.4-12.6-22.3,6-6L259,324l-13.7-10h-13.9l-13.2,10.7,3.6,15.6,8.4,6-12.6,24.4-6.7,77c-16.1-25.4-29.9-52.6-34.2-66.4-6.6-21.3-4-98.7-4-98.7s-83.6,26.2-130.1,37.9c-26.1,14.6-43.8,115.6-42.5,131.1,1.6,17.9,154.1,48.4,236,48.4,115.1,0,240.4-31.1,242-49.1C479.37,435.44,458.37,334.74,438.17,319.84Z"/><path class="cls-1" d="M163.57,187.34c1.8,13.1,5.5,31.5,13.1,39.1a72.22,72.22,0,0,1,5.9,7s29.9,29.4,48.7,29.7c0,0,9,1.8,14.4-.9-5.1,4.5-12.3,3.6-15.9,3.6s-24-2.8-47.6-24.2l-1.3,32.7,51.6,37h12.8l49.6-39.1-2.6-40a50.57,50.57,0,0,1,4.7-5.4c7.7-7.7,11.3-26,13.1-39.1,7.3,8.8,10.5-8.2,10.5-8.2s5.1-28.3,4.2-41.8c-.5-7.9-5.4-6-9.3-3,.1-3.1.1-6.2.1-9.3,2.3-4.5,5.5-11,6.5-18.9,3.4-25,.2-52.8-1.6-60.9-1.9-8.3-13.4-14.6-21.1-15.6,8.5-3.9,8.5-15.5,9.5-24.1.6-5.9-6.6,13-32.1,1.6-89.8-25.1-95.1,20.3-97.6,22.7-29.2.8-28.8,32.4-28.8,32.4s-1.2,39.9,2.1,49.6a89.13,89.13,0,0,0,5.5,17.5c0,1.5,0,3.1.1,4.6-3.9-3-8.8-5-9.3,3-.8,13.5,4.2,41.8,4.2,41.8S156.27,196.14,163.57,187.34Z"/></g></g></svg>