<svg xmlns="http://www.w3.org/2000/svg" viewBox="0 0 50 46.77"><g id="Layer_2" data-name="Layer 2"><g id="Common"><path id="calendar" class="cls-1" d="M45.83,4.35H39.39V1.45a1.52,1.52,0,0,0-3,0v2.9H27.27V1.45a1.52,1.52,0,0,0-3,0v2.9H15.15V1.45a1.52,1.52,0,0,0-3,0v2.9h-8A4,4,0,0,0,0,8.25V42.87a4,4,0,0,0,4.17,3.9H45.83A4,4,0,0,0,50,42.87V8.25A4,4,0,0,0,45.83,4.35ZM47,42.77a1,1,0,0,1-1,1H4.08a1,1,0,0,1-1-1V8.35a1,1,0,0,1,1-1h8v2.9a1.52,1.52,0,0,0,3,0V7.38h9.09v2.9a1.52,1.52,0,0,0,3,0V7.38h9.09v2.9a1.52,1.52,0,0,0,3,0V7.38h6.53a1,1,0,0,1,1,1ZM12.12,18h6.06v4.55H12.12Zm0,7.58h6.06V30.1H12.12Zm0,7.58h6.06v4.55H12.12Zm10.61,0h6.06v4.55H22.73Zm0-7.58h6.06V30.1H22.73Zm0-7.58h6.06v4.55H22.73Zm10.61,7.58h6.06V30.1H33.33Zm0-7.58h6.06v4.55H33.33Z"/></g></g></svg>