<svg xmlns="http://www.w3.org/2000/svg" viewBox="0 0 50.34 55.47"><defs><style>.cls-1{fill:#fff;}</style></defs><title>icon_svg_thumb_down</title><g id="Layer_2" data-name="Layer 2"><g id="Layer_1-2" data-name="Layer 1"><path class="cls-1" d="M47.92,17.63a5.28,5.28,0,0,1,2.41,5c-.16,2.25-2.73,4.33-2.73,4.33A10.19,10.19,0,0,1,48.73,30a4.8,4.8,0,0,1-2.41,4.64c-2.4,1.29-14-.48-14-.48l1.27,7.63c.16,1,1.19,1.93,1.3,5,.15,4-1.45,8.83-5,8.66s-2.56-5.76-2.56-6.73S24.85,42,22.6,38.31s-4.8-5.37-5.61-9C16.28,26.18,12.83,25,12.83,25c-1.06-.27-1-1.11-.87-2a172.85,172.85,0,0,1,4.4-20.79S22.12,1,24.2.8A26.43,26.43,0,0,0,28.05.16c2.11-.36,6.41,0,9.78,0S42.63,1,46,3.37s1,5.77,1,5.77,2.77.73,2.77,4.42C49.72,16.79,47.92,17.63,47.92,17.63Z"/><path class="cls-1" d="M11.38.23H1.94A2,2,0,0,0,0,2.13L0,23a2.2,2.2,0,0,0,2.12,1.87l4.29,0A2.4,2.4,0,0,0,8.69,23l4-20.28C12.91,1.57,12.41.24,11.38.23ZM8.07,5a1.5,1.5,0,0,1-1.5,1.5h-2a1.5,1.5,0,0,1,0-3h2A1.5,1.5,0,0,1,8.07,5Z"/></g></g></svg>