<svg xmlns="http://www.w3.org/2000/svg" viewBox="0 0 41.33 41.33"><g id="Layer_2" data-name="Layer 2"><g id="Design_2" data-name="Design 2"><path class="cls-1" d="M20.67,0A20.67,20.67,0,1,0,41.33,20.67,20.67,20.67,0,0,0,20.67,0Zm0,38.67a18,18,0,1,1,18-18A18,18,0,0,1,20.67,38.67Z"/><rect class="cls-1" x="11.88" y="16.6" width="3.95" height="12.77"/><ellipse class="cls-1" cx="13.84" cy="12.57" rx="2.34" ry="2.36"/><path class="cls-1" d="M22.15,22.66c0-1.79.83-2.86,2.41-2.86s2.15,1,2.15,2.86v6.7h3.93V21.28c0-3.42-1.94-5.07-4.65-5.07a4.45,4.45,0,0,0-3.85,2.11V16.6H18.36V29.37h3.79Z"/></g></g></svg>