<svg xmlns="http://www.w3.org/2000/svg" viewBox="0 0 50 44.34"><g id="Layer_2" data-name="Layer 2"><g id="Layer_1-2" data-name="Layer 1"><path d="M24,21.74,7.89,13.57,22.8,4.83a.59.59,0,0,0,0-1L17.1.1a.59.59,0,0,0-.55,0L.36,6.94a.59.59,0,0,0-.17,1l6.32,5.74-6,7a.59.59,0,0,0,.15.9L16.88,31a.59.59,0,0,0,.76-.14l6.51-8.19A.59.59,0,0,0,24,21.74Z"/><path d="M26,21.74l16.07-8.17L27.2,4.83a.59.59,0,0,1,0-1L32.9.1a.59.59,0,0,1,.55,0l16.18,6.9a.59.59,0,0,1,.17,1l-6.32,5.74,6,7a.59.59,0,0,1-.15.9L33.12,31a.59.59,0,0,1-.76-.14l-6.51-8.19A.59.59,0,0,1,26,21.74Z"/><path d="M25.26,44.28l19.26-9.44a.3.3,0,0,0,.17-.27V26.79L32.77,33.52a1,1,0,0,1-1.19-.22L25,24.53,18.42,33.3a1,1,0,0,1-1.19.22L5.32,26.79v7.79a.3.3,0,0,0,.17.27l19.26,9.44A.59.59,0,0,0,25.26,44.28Z"/></g></g></svg>