<svg xmlns="http://www.w3.org/2000/svg" viewBox="0 0 343.58 500.06"><g id="Layer_2" data-name="Layer 2"><g id="Layer_1-2" data-name="Layer 1"><g id="Layer_2-2" data-name="Layer 2"><g id="Layer_1-2-2" data-name="Layer 1-2"><path d="M315.5,2.43a8.47,8.47,0,0,0-11.86,0l-34,33.68a8.48,8.48,0,0,1-11.86,0l-34-33.68a8.45,8.45,0,0,0-11.84,0l-34,33.68a8.46,8.46,0,0,1-11.84,0L131.95,2.42a8.48,8.48,0,0,0-11.87,0L86,36.11a8.47,8.47,0,0,1-11.86,0l-34-33.69a8.48,8.48,0,0,0-11.87,0L0,30.39V469.62l28.24,28a8.47,8.47,0,0,0,11.86,0l34-33.68a8.47,8.47,0,0,1,11.86,0l34,33.68a8.47,8.47,0,0,0,11.86,0l34-33.68a8.47,8.47,0,0,1,11.86,0l34,33.69a8.47,8.47,0,0,0,11.86,0l34-33.68a8.47,8.47,0,0,1,11.86,0l34,33.69a8.41,8.41,0,0,0,5.94,2.42h0a8.44,8.44,0,0,0,5.94-2.42l28.25-28V30.38ZM169.82,89c37.75,0,57.86,18.46,57.86,43.81,0,23.41-15.7,36.36-24.8,45.18-9.64,9.65-13.5,20.11-13.5,32.51v3H143.64v-7.44c0-12.94,3.31-26.72,15.71-40.22,7.43-8.27,16.25-16.8,16.25-24.52,0-7.44-5-12.12-17.36-12.67a61.11,61.11,0,0,0-30.57,9.1L116.1,101.38C127.67,95.38,145.3,89,169.82,89Zm24.8,162.83c0,17.07-11.84,29.48-30,29.48-17.63,0-29.48-12.41-29.48-29.48,0-17.36,11.85-29.49,29.76-29.49s29.43,12.17,29.71,29.53Zm86.63,154.38H62.5a15.63,15.63,0,0,1,0-31.25H281.24a15.63,15.63,0,1,1,0,31.25Zm0-62.5H62.5a15.63,15.63,0,0,1,0-31.25H281.24a15.63,15.63,0,0,1,0,31.25Z"/></g></g></g></g></svg>