<svg xmlns="http://www.w3.org/2000/svg" viewBox="0 0 13.84 18.09"><g id="Layer_2" data-name="Layer 2"><g id="Layer_1-2" data-name="Layer 1"><g id="Layer_2-2" data-name="Layer 2"><g id="Layer_1-2-2" data-name="Layer 1-2"><path class="cls-1" d="M13.81,5.68l-.69-2c-.1-.27-.44-.35-.83-.15a9.66,9.66,0,0,0-4.1,3.19,11.38,11.38,0,0,0-2.17,7,.28.28,0,0,0,0,.06c0,.34-.14.43-.51.4a6.27,6.27,0,0,0-1,0l.07.12,2.74,3.6c.2.26.23.26.44,0l2.35-3,.52-.67a6.55,6.55,0,0,0-1,0c-.42,0-.51-.06-.51-.51v-.08a10.89,10.89,0,0,1,.34-2.25c.53-1.9,1.19-3.23,4-5C13.86,6,13.89,5.92,13.81,5.68Z"/><path class="cls-1" d="M4.55,9.71h0a15.88,15.88,0,0,1,1.24-3C6,6.36,6,6.31,5.68,6A12.29,12.29,0,0,0,1.39,3.43c-.25-.08-.31.1-.42.35S.24,5.7.07,5.91s0,.36.25.46a8,8,0,0,1,4,3.36.12.12,0,1,0,.23,0Z"/><path class="cls-1" d="M6.16,4a4.33,4.33,0,0,1,.72.85c.19.15.19.15.41,0a8,8,0,0,1,.84-.9,1.31,1.31,0,0,0,.43-1.09V.25A.27.27,0,0,0,8.26,0H5.88C5.73,0,5.7.11,5.7.25v2.6A1.46,1.46,0,0,0,6.16,4Z"/></g></g></g></g></svg>