<svg xmlns="http://www.w3.org/2000/svg" viewBox="0 0 58 52"><defs><style>.cls-1{fill:#4d4d4d;}</style></defs><g id="Layer_2" data-name="Layer 2"><g id="Icon"><path class="cls-1" d="M16,38H50a2,2,0,0,0,1.94-1.52l6-24a2,2,0,0,0-3.88-1L48.44,34h-31L9.91,3.4A2,2,0,0,0,8,2H2A2,2,0,0,0,2,6H6.53l6.86,28.37A6.91,6.91,0,0,0,8,41c0,3.09,2.17,6.19,6.32,6.86A6,6,0,0,0,25.63,48H38.37a6,6,0,0,0,11.26,0H54a2,2,0,0,0,0-4H49.63a6,6,0,0,0-11.26,0H25.63a6,6,0,0,0-11.2-.21A2.94,2.94,0,0,1,12,41C12,39.51,13.24,38,16,38Zm28,5.8A2.2,2.2,0,1,1,41.8,46,2.21,2.21,0,0,1,44,43.8Zm-24,0A2.2,2.2,0,1,1,17.8,46,2.21,2.21,0,0,1,20,43.8ZM33,4.68,18.77,17.74a1,1,0,0,1-1.4-.08l-1.11-1.27A1,1,0,0,1,16.33,15L32.34.26a1,1,0,0,1,1.32,0L40,6.08v-3A1.05,1.05,0,0,1,41.06,2h1.88A1.05,1.05,0,0,1,44,3.06V9.75L49.67,15a1,1,0,0,1,.07,1.44l-1.11,1.27a1,1,0,0,1-1.4.08ZM35.54,20H30.46a.46.46,0,0,0-.46.46V28H23.89A2,2,0,0,1,22,25.93V18L33.11,7.94,44,17.94v8A2,2,0,0,1,42.11,28H36V20.46A.47.47,0,0,0,35.54,20Z"/></g></g></svg>