<svg xmlns="http://www.w3.org/2000/svg" viewBox="0 0 43.33 50"><g id="Layer_2" data-name="Layer 2"><g id="Layer_1-2" data-name="Layer 1"><path class="cls-1" d="M8.33,0A8.34,8.34,0,0,0,0,8.33V41.67A8.34,8.34,0,0,0,8.33,50H35a8.34,8.34,0,0,0,8.33-8.33V8.33A8.34,8.34,0,0,0,35,0ZM35,3.33a5,5,0,0,1,5,5V41.67a5,5,0,0,1-5,5H8.33a5,5,0,0,1-5-5V8.33a5,5,0,0,1,5-5Z"/><path class="cls-1" d="M22.85,22.13V15.69a5.54,5.54,0,0,1,1.7.8,3,3,0,0,0,1.69.64,1.81,1.81,0,0,0,1.82-1.85c0-1.78-2.6-3-5.2-3.3V10.86a1.24,1.24,0,0,0-2.47,0V12a7.19,7.19,0,0,0-6.46,6.69c0,4.46,3.38,5.72,6.46,6.77V34a7,7,0,0,1-3.15-1.14,3.75,3.75,0,0,0-1.84-.71,1.8,1.8,0,0,0-1.71,2c0,1.93,3.44,3.39,6.7,3.54v1.09a1.24,1.24,0,0,0,2.47,0V37.4a7.88,7.88,0,0,0,6.8-8C29.65,24.65,25.94,23.23,22.85,22.13Zm2.56,7.44a4,4,0,0,1-2.56,4.07V26.37C24.42,27.06,25.41,27.94,25.41,29.57ZM18.16,18.48a2.84,2.84,0,0,1,2.22-2.8v5.49C18.79,20.45,18.16,19.66,18.16,18.48Z"/></g></g></svg>