<svg xmlns="http://www.w3.org/2000/svg" viewBox="0 0 612.41 501.24"><defs><style>.cls-1{fill:#fff;}</style></defs><g id="Layer_2" data-name="Layer 2"><g id="Layer_1-2" data-name="Layer 1"><path class="cls-1" d="M611.66,495.78,565.08,391C579.43,371.81,587,350,587,327.72c0-53.75-44.13-99.78-105.93-118-.53,3.64-1.4,7.17-2.17,10.73A157.32,157.32,0,0,0,482.69,187C482.69,83.85,382.15,0,258.53,0S34.41,83.85,34.41,187c0,28.95,7.81,56.67,23,82.56L.56,388.33a6.55,6.55,0,0,0,1.23,7.18,6.78,6.78,0,0,0,5,2.21,7.79,7.79,0,0,0,2.3-.38L144.79,348.2c34.41,16.9,73.7,25.87,113.74,25.87,5.52,0,10.93-.36,16.35-.69-2,.12-3.92.36-5.92.44,24.1,47,83.69,80.33,153.31,80.33a201.31,201.31,0,0,0,45.28-5.33l140.26,52.23a3.83,3.83,0,0,0,1.11.18H609a3.23,3.23,0,0,0,3.41-3.28A3.34,3.34,0,0,0,611.66,495.78ZM198.47,145,167,109c25.81-26.3,56.54-39.68,92.38-39.68q39.48,0,62.88,15.49c18.47,11.91,27.63,30,27.63,54.39,0,26.7-11.9,45.5-35.33,56.36-12.84,6.22-21.64,11.32-26.2,15.51-7.26,6.4-11.06,15.4-11.38,26.26H229.08c0-18.05,4-32.77,11.89-43.47,7.37-10.2,19.55-19.08,37.39-27,8.05-3.36,13.28-6.32,16-9.15,4.56-4.09,6.63-9.61,6.63-16.45,0-16.74-13.88-25-41.55-25C237.2,116.15,216.94,125.79,198.47,145Zm54.71,171.48c-15.66,0-29.61-13.79-29.61-29.2,0-16,13.24-29,29.61-29s29.7,13,29.7,29S269.6,316.46,253.18,316.46Zm271.14,70.93,26,54.47L470.56,413a4.61,4.61,0,0,0-1.23-.19,3,3,0,0,0-.79.07l-4.32,1a171.68,171.68,0,0,1-42,5.53c-50.07,0-93.44-20.28-114.93-49.86-.49.09-1,.13-1.5.22C385,355.53,448.71,306.38,472.56,242.65c-.07.18-.11.37-.18.55,46.47,13.94,79.3,46.57,79.3,84.52,0,17.48-7.18,34.39-20.54,49.19l-6.3,7A3,3,0,0,0,524.32,387.39Z"/></g></g></svg>