<svg xmlns="http://www.w3.org/2000/svg" viewBox="0 0 13 13"><defs><style>.cls-1{fill:#9f9f9f;}</style></defs><g id="Layer_2" data-name="Layer 2"><g id="Isolation_Mode" data-name="Isolation Mode"><path class="cls-1" d="M11.58,8.6c-1.17-.54-2.78-.34-3.42-1-.24-.25-.55-.64-.08-1.47A3.57,3.57,0,0,0,8.43,5c.2.24.29-.22.29-.22A6.14,6.14,0,0,0,8.83,3.7c0-.21-.14-.16-.25-.08V3.37a1.57,1.57,0,0,0,.18-.51,5.63,5.63,0,0,0,0-1.63C8.67,1,8.35.84,8.14.81,8.38.7,8.22.51,7.53.2,5.09-.47,4.94.75,4.87.81c-.79,0-.78.87-.78.87A7.51,7.51,0,0,0,4.15,3a2.16,2.16,0,0,0,.15.47v.12c-.11-.08-.24-.13-.26.08a6.87,6.87,0,0,0,.12,1.12s.09.46.29.22a2.11,2.11,0,0,0,.35,1c.85.93.2,1.3,0,1.51-.63.67-2.11.55-3.32,1C.73,8.91,0,11.72,0,12.14S4.19,13,6.42,13c3.13,0,6.54-.4,6.58-.88S12.2,8.88,11.58,8.6Z"/></g></g></svg>