<svg xmlns="http://www.w3.org/2000/svg" viewBox="0 0 41.33 41.33"><g id="Layer_2" data-name="Layer 2"><g id="Design_2" data-name="Design 2"><path class="cls-1" d="M20.67,0A20.67,20.67,0,1,0,41.33,20.67,20.67,20.67,0,0,0,20.67,0Zm0,38.67a18,18,0,1,1,18-18A18,18,0,0,1,20.67,38.67Z"/><path class="cls-1" d="M11.45,28.1A11.87,11.87,0,0,0,29.71,17.56a8.46,8.46,0,0,0,2.08-2.16,8.34,8.34,0,0,1-2.4.66,4.18,4.18,0,0,0,1.83-2.31,8.37,8.37,0,0,1-2.65,1,4.18,4.18,0,0,0-7.11,3.81,11.85,11.85,0,0,1-8.6-4.36,4.18,4.18,0,0,0,1.29,5.57,4.16,4.16,0,0,1-1.89-.52,4.18,4.18,0,0,0,3.35,4.15,4.18,4.18,0,0,1-1.88.07,4.18,4.18,0,0,0,3.9,2.9A8.39,8.39,0,0,1,11.45,28.1Z"/></g></g></svg>