<svg xmlns="http://www.w3.org/2000/svg" viewBox="0 0 41.48 51.06"><g id="Layer_2" data-name="Layer 2"><g id="Common"><path class="cls-1" d="M42,11.66V43.58a8,8,0,0,1-8,8H8.49a8,8,0,0,1-8-8V11.66a8,8,0,0,1,8-8h4.82A3.73,3.73,0,0,1,17,.5h8.5a3.71,3.71,0,0,1,3.68,3.18H34A8,8,0,0,1,42,11.66Zm-3.2,31.92V11.66A4.78,4.78,0,0,0,34,6.88H29.23V9.54a3.74,3.74,0,0,1-3.74,3.72H17a3.73,3.73,0,0,1-3.72-3.72V6.88H8.49a4.8,4.8,0,0,0-4.8,4.78V43.58a4.8,4.8,0,0,0,4.8,4.78H34A4.78,4.78,0,0,0,38.79,43.58ZM26,9.54V4.22a.54.54,0,0,0-.54-.54H17a.54.54,0,0,0-.54.54V9.54a.54.54,0,0,0,.54.54h8.5A.54.54,0,0,0,26,9.54Z" transform="translate(-0.51 -0.5)"/><path class="cls-1" d="M22.76,27.14a3.88,3.88,0,1,0,1.49-4.44c0,.05,0,.11,0,.16A6.86,6.86,0,0,1,22.76,27.14Z" transform="translate(-0.51 -0.5)"/><circle class="cls-1" cx="16.82" cy="22.21" r="5.7"/><path class="cls-1" d="M26.86,30.77a7.44,7.44,0,0,0-1.62.18,11.21,11.21,0,0,1,3.65,8.34c0,.38,0,.76-.06,1.13,1.46,0,2.89-.12,4.29-.25a6.14,6.14,0,0,0,.72-2.88A6.76,6.76,0,0,0,26.86,30.77Z" transform="translate(-0.51 -0.5)"/><path class="cls-1" d="M17.33,29.56c-5.67,0-10.26,4.29-10.26,9.57a9,9,0,0,0,1.05,4.23c3,.27,6,.42,9.21.42s6.24-.14,9.21-.42a9,9,0,0,0,1.05-4.23C27.59,33.84,23,29.56,17.33,29.56Z" transform="translate(-0.51 -0.5)"/></g></g></svg>