<svg xmlns="http://www.w3.org/2000/svg" viewBox="0 0 48 36"><defs><style>.cls-1{fill:#fff;}</style></defs><g id="Layer_2" data-name="Layer 2"><g id="Icon"><path class="cls-1" d="M24.86,1.8A14,14,0,0,0,4.59,10H7.66a11.09,11.09,0,1,1,20.13,9.22,16.37,16.37,0,0,0,2.44,1.58,13.92,13.92,0,0,0-.27-14l15,7.91C44.75,16.89,43.43,24,35,24,25,24,21,12,14,12H2A32.67,32.67,0,0,0,0,22.17,29,29,0,0,0,4,36H44s4-8,4-22Z"/><path class="cls-1" d="M23.94,15.77l.64.61A6.92,6.92,0,0,0,25,14a7,7,0,0,0-12.74-4H14C18,10,21,12.71,23.94,15.77Z"/></g></g></svg>