<svg xmlns="http://www.w3.org/2000/svg" viewBox="0 0 60 58"><defs><style>.cls-1{fill:#4d4d4d;}</style></defs><g id="Layer_2" data-name="Layer 2"><g id="Icon"><path class="cls-1" d="M28,6a6,6,0,1,1,6,6A6,6,0,0,1,28,6ZM57.52,34.77a6.64,6.64,0,0,1-1.81-.8,3.89,3.89,0,0,1-1-.19l-.8.27a17.85,17.85,0,0,1-4.56,11h0a.93.93,0,0,0-.1.1l-.26.28c-1.54,2-1.17,8-1.06,10.13a2.3,2.3,0,0,1-.67,1.73,2.47,2.47,0,0,1-1.77.73L41,58a2.45,2.45,0,0,1-2.25-1.46C38.07,55,37.5,51.67,35.41,52l0,0a28,28,0,0,1-3.6.25c-.62,0-1.37-.05-2.2-.13h0c-1.56,0-2.8,2.59-3.45,4.32A2.45,2.45,0,0,1,23.83,58H18.47a2.47,2.47,0,0,1-1.77-.73A2.22,2.22,0,0,1,16,55.54c.11-2.33.69-5.81-1.78-6.73h0l-.72-.26c-5.26-2-6.73-5.94-8.84-6.88C1.59,40.29,0,41,0,38.47V30.68c0-3,3.31-2,6.42-3.67a9.87,9.87,0,0,0,3.4-3.76A16.8,16.8,0,0,1,16,17.16V12.72C16,11.06,16,10,18.69,10s7.09,1.76,9,4.16C29,14.05,30.48,14,32,14c10,0,18.74,3.77,21.19,12.68a2.47,2.47,0,0,0,.22.29A4,4,0,1,1,58.59,33c.2.12.43.26.7.4C60.4,34,60.42,35.67,57.52,34.77ZM18,18.82a7.5,7.5,0,0,1,4.18,1.48s-.71-6.05-4.18-7.23ZM40,36l-8-6.61L24,36v5.36a.63.63,0,0,0,.64.62H30V36.28a.28.28,0,0,1,.3-.28h3.41a.28.28,0,0,1,.29.28V42h5.36a.63.63,0,0,0,.64-.62Zm6.39-2.15a1,1,0,0,0-.35-.65L32.49,21.78A.76.76,0,0,0,32,21.6a.78.78,0,0,0-.49.18L18,33.22a1,1,0,0,0-.36.65,1.13,1.13,0,0,0,.16.74L19,36a.83.83,0,0,0,.69.4.78.78,0,0,0,.49-.18L32,26.14,43.86,36.22a.78.78,0,0,0,.49.18A.81.81,0,0,0,45,36l1.19-1.39A1.07,1.07,0,0,0,46.39,33.87Z"/></g></g></svg>