<svg xmlns="http://www.w3.org/2000/svg" viewBox="0 0 62 54"><defs><style>.cls-1{fill:#4d4d4d;}</style></defs><g id="Layer_2" data-name="Layer 2"><g id="Icon"><path class="cls-1" d="M37,21.36,56,37.17V50.89A3.11,3.11,0,0,1,52.89,54H42V40.81a.81.81,0,0,0-.81-.81H32.81a.81.81,0,0,0-.81.81V54H21.11A3.11,3.11,0,0,1,18,50.89V37.17Zm17,4.19V17.17A1.17,1.17,0,0,0,52.83,16H49.17A1.17,1.17,0,0,0,48,17.17V20.6L38,12.35a1.54,1.54,0,0,0-2,0L12.49,31.93a1.29,1.29,0,0,0-.12,1.92L14,35.55a1.53,1.53,0,0,0,2.06.1L37,18.24,57.93,35.65a1.53,1.53,0,0,0,2.06-.1l1.63-1.89a1.3,1.3,0,0,0-.11-1.93ZM17,11.87a.58.58,0,0,0,.64.06.65.65,0,0,0,.33-.57V8H54v3.36a.65.65,0,0,0,.33.57.56.56,0,0,0,.63-.06l6.8-5.36a.66.66,0,0,0,0-1L55,.13a.56.56,0,0,0-.63-.06A.64.64,0,0,0,54,.63V4H18V.63a.64.64,0,0,0-.33-.56A.58.58,0,0,0,17,.13L10.24,5.49a.66.66,0,0,0,0,1ZM11.36,20a.65.65,0,0,0,.57-.33.58.58,0,0,0-.06-.64L6.51,12.24a.66.66,0,0,0-1,0L.13,19a.58.58,0,0,0-.06.64A.64.64,0,0,0,.63,20H4V46H.63a.64.64,0,0,0-.56.33A.56.56,0,0,0,.13,47l5.36,6.8a.66.66,0,0,0,1,0L11.87,47a.56.56,0,0,0,.06-.63.65.65,0,0,0-.57-.33H8V20Z"/></g></g></svg>