<svg xmlns="http://www.w3.org/2000/svg" viewBox="0 0 339.9 499.96"><g id="Layer_2" data-name="Layer 2"><g id="Layer_1-2" data-name="Layer 1"><path d="M20.3,432.5v54.3c119.1,17.2,191.5,17.9,304.9,0V432.5C211.7,450.4,139.3,449.7,20.3,432.5Zm304.8-16.8V200.6a59.9,59.9,0,0,0-43.3-99.3V0L218.6,34.2,176.4,6.6,136,37.7,64.3,10.4v90.7h-4A60.14,60.14,0,0,0,20.2,206.2V415.8C140.3,429.4,210.6,429.2,325.1,415.7ZM201.8,387.4c-18.8.6-37.5.6-56.6,0V353.6h56.6Zm0-45.9H145.2V306h56.6Zm0-45.8H145.2V260.2h56.6Zm77.5,86.4c-19.9,2-38.4,3.4-56.6,4.4V353.7h56.6Zm0-40.6H222.7V306h56.6Zm0-45.8H222.7V260.2h56.6ZM92.5,51.2l48.3,18.4,37-28.6,39.6,25.9,36.4-19.7V161.4H92.5Zm-24,155.9c81.1-8.7,127.3-8.2,209.9,0v39.3H68.5Zm-.9,53h56.6v35.5H67.6Zm0,45.9h56.6v35.5H67.6Zm0,47.7h56.6v32.8c-18-1-36.6-2.3-56.6-4.3Z"/></g></g></svg>