<svg xmlns="http://www.w3.org/2000/svg" viewBox="0 0 195.44 149.03"><defs><style>.cls-1{fill:#191919;}</style></defs><g id="Layer_2" data-name="Layer 2"><g id="Layer_1-2" data-name="Layer 1"><path class="cls-1" d="M184,0H122a11.46,11.46,0,0,0,0,22.93H184A11.46,11.46,0,1,0,184,0Z"/><path class="cls-1" d="M115.94,82.41l.2-.22.19-.22.19-.22.18-.23.17-.23.17-.23.16-.24.15-.24.15-.24.14-.24h0l.13-.25h0l.13-.25h0l.12-.25.11-.26h0l.11-.26.1-.26h0l.09-.26.09-.26.08-.27h0l.07-.27.07-.27h0l.06-.27.06-.27,0-.27h0l0-.27h0c0-.09,0-.18,0-.27h0c0-.09,0-.18,0-.27s0-.18,0-.27h0c0-.09,0-.18,0-.28s0-.18,0-.28h0c0-.09,0-.18,0-.28s0-.18,0-.28h0c0-.09,0-.18,0-.27s0-.18,0-.28h0c0-.09,0-.18,0-.27s0-.18,0-.27h0c0-.09,0-.18,0-.27h0l0-.27h0l0-.27-.06-.27-.06-.27h0l-.07-.27-.07-.27h0l-.08-.27-.09-.26h0l-.09-.26h0l-.1-.26-.11-.26h0l-.11-.26-.12-.25h0l-.13-.25h0l-.13-.25h0l-.14-.24-.15-.24-.15-.24L117,68l-.17-.23-.17-.23-.18-.23-.19-.22-.19-.22-.2-.22-.21-.21L77.9,28.58A11.46,11.46,0,0,0,61.69,44.79L79.86,63H11.46a11.46,11.46,0,1,0,0,22.93H80L61.69,104.23A11.46,11.46,0,1,0,77.9,120.45l37.83-37.83Z"/><path class="cls-1" d="M184,42H145.76a11.46,11.46,0,1,0,0,22.93H184A11.46,11.46,0,1,0,184,42Z"/><path class="cls-1" d="M184,84.07H145.76a11.46,11.46,0,1,0,0,22.93H184a11.46,11.46,0,1,0,0-22.93Z"/><path class="cls-1" d="M184,126.1H122A11.46,11.46,0,0,0,122,149H184a11.46,11.46,0,1,0,0-22.93Z"/></g></g></svg>