<svg xmlns="http://www.w3.org/2000/svg" viewBox="0 0 44 48"><defs><style>.cls-1{fill:#fff;}</style></defs><g id="Layer_2" data-name="Layer 2"><g id="Icon"><path class="cls-1" d="M42.38,38.8a1,1,0,0,0-1-.8H30L5.16,43.29l-.7,3.51a1,1,0,0,0,1,1.2H43a1,1,0,0,0,1-1.2Z"/><path class="cls-1" d="M39.77,31.33l-.6-2.93h0a1.67,1.67,0,0,0-.08-.3l-3.36-7.46a2,2,0,0,0-2.29-1.25L20.54,22.13a4.5,4.5,0,0,1-.16-.44,10.47,10.47,0,0,1,1.43-7.32A9,9,0,0,0,12.47.26,9.38,9.38,0,0,0,5.74,10.59a8.93,8.93,0,0,0,4.38,6.21A10.83,10.83,0,0,1,14.49,23c0,.14,0,.27,0,.4L1.62,26.15A2,2,0,0,0,0,28.22v8.19a3.06,3.06,0,0,0,.05.32h0l.64,2.91a2,2,0,0,0,2.37,1.54L38.23,33.7A2,2,0,0,0,39.77,31.33Zm-2.48-2.49a.11.11,0,0,1-.08.07L2,36.39a.12.12,0,0,1-.11-.07V28.11A.14.14,0,0,1,2,28l11.62-2.47c-.12.15-.23.3-.36.45a2.8,2.8,0,0,0-.7,2.33c.41,1.95,3.38,3,6.62,2.27s5.53-2.82,5.12-4.76A2.8,2.8,0,0,0,22.72,24l-.51-.26,11.61-2.47h0a.11.11,0,0,1,.09.07l0,.05,0,.06,3.33,7.37A.06.06,0,0,1,37.29,28.84Z"/></g></g></svg>