<svg xmlns="http://www.w3.org/2000/svg" viewBox="0 0 450 365.63"><defs><style>.cls-1{fill:#424242;}</style></defs><g id="Layer_2" data-name="Layer 2"><g id="Ñëîé_1" data-name="Ñëîé 1"><path class="cls-1" d="M393.75,56.25H336l-11.75-24.4A56.25,56.25,0,0,0,273.57,0H176.43a56.25,56.25,0,0,0-50.68,31.85L114,56.25H56.25A56.42,56.42,0,0,0,0,112.5V309.38a56.42,56.42,0,0,0,56.25,56.25h337.5A56.42,56.42,0,0,0,450,309.38V112.5A56.42,56.42,0,0,0,393.75,56.25ZM225,323.44a112.5,112.5,0,1,1,112.5-112.5A112.5,112.5,0,0,1,225,323.44Z"/><path class="cls-1" d="M225,137.81a73.13,73.13,0,1,0,73.13,73.13A73.21,73.21,0,0,0,225,137.81Z"/></g></g></svg>