<svg xmlns="http://www.w3.org/2000/svg" viewBox="0 0 50 28.76"><g id="Layer_2" data-name="Layer 2"><g id="Common"><path class="cls-1" d="M50,15.81a1.13,1.13,0,0,0-.12-.63C42.48,1,35.19,0,33.26,0H14.32a1.14,1.14,0,0,0,0,2.27H32.93l.18,0c.06,0,5.6-.45,12.09,9.41H36.55a1.92,1.92,0,0,1-1.94-2.09v-4a1.14,1.14,0,1,0-2.27,0v4A4.17,4.17,0,0,0,36.55,14h10c.38.65.76,1.33,1.14,2.06h0v5.07a1.46,1.46,0,0,1-1.46,1.46h-1.5a5,5,0,0,0-9.79,0H28.9a5,5,0,0,0-9.78,0H17.27a1.46,1.46,0,0,1-1.46-1.46V19.17h1.9a1.14,1.14,0,0,0,0-2.27H9.1a1.14,1.14,0,0,0,0,2.27h4.44v1.94a3.73,3.73,0,0,0,3.73,3.73H19.1a5,5,0,0,0,9.81,0H35a5,5,0,0,0,9.81,0h1.49A3.73,3.73,0,0,0,50,21.12V16.05A1.16,1.16,0,0,0,50,15.81ZM24,26.49a2.76,2.76,0,0,1-2.52-1.65,2.7,2.7,0,0,1,0-2.27,2.75,2.75,0,0,1,5,0,2.7,2.7,0,0,1,0,2.27A2.76,2.76,0,0,1,24,26.49Zm15.87,0a2.76,2.76,0,1,1,2.5-3.92,2.7,2.7,0,0,1,0,2.27A2.76,2.76,0,0,1,39.88,26.49Z"/><path class="cls-1" d="M5,6.53H22a1.14,1.14,0,0,0,0-2.27H5A1.14,1.14,0,0,0,5,6.53Z"/><path class="cls-1" d="M23.16,13.82A1.14,1.14,0,0,0,22,12.69H1.14a1.14,1.14,0,0,0,0,2.27H22A1.14,1.14,0,0,0,23.16,13.82Z"/><path class="cls-1" d="M8.82,9.61a1.13,1.13,0,0,0,1.13,1.14h16.4a1.14,1.14,0,1,0,0-2.27H9.94A1.13,1.13,0,0,0,8.82,9.61Z"/></g></g></svg>