<svg xmlns="http://www.w3.org/2000/svg" viewBox="0 0 354.9 499"><g id="Layer_2" data-name="Layer 2"><g id="Layer_1-2" data-name="Layer 1"><path d="M0,499V265.2H262.9V137.7a83.31,83.31,0,0,0-6.7-33.1,88.29,88.29,0,0,0-18.3-27,89.49,89.49,0,0,0-27.2-18.4,83.66,83.66,0,0,0-33.6-6.7A81.28,81.28,0,0,0,144,59.2a87.28,87.28,0,0,0-27.1,18.4,86,86,0,0,0-18.3,27,81.62,81.62,0,0,0-6.7,33.1H39.4A134,134,0,0,1,50.2,84.1a138.16,138.16,0,0,1,73.2-73.3A134,134,0,0,1,177,0a134.79,134.79,0,0,1,53.9,10.8,139.13,139.13,0,0,1,43.8,29.5A134.25,134.25,0,0,1,304,84.1c10.5,25.4,11.3,53.6,11.3,53.6V265.2h39.6V498.9H0Z"/></g></g></svg>