<svg xmlns="http://www.w3.org/2000/svg" viewBox="0 0 41.48 51.06"><g id="Layer_2" data-name="Layer 2"><g id="Common"><path class="cls-1" d="M42,11.66V43.58a8,8,0,0,1-8,8H8.49a8,8,0,0,1-8-8V11.66a8,8,0,0,1,8-8h4.82A3.73,3.73,0,0,1,17,.5h8.5a3.71,3.71,0,0,1,3.68,3.18H34A8,8,0,0,1,42,11.66Zm-3.2,31.92V11.66A4.78,4.78,0,0,0,34,6.88H29.23V9.54a3.74,3.74,0,0,1-3.74,3.72H17a3.73,3.73,0,0,1-3.72-3.72V6.88H8.49a4.8,4.8,0,0,0-4.8,4.78V43.58a4.8,4.8,0,0,0,4.8,4.78H34A4.78,4.78,0,0,0,38.79,43.58ZM26,9.54V4.22a.54.54,0,0,0-.54-.54H17a.54.54,0,0,0-.54.54V9.54a.54.54,0,0,0,.54.54h8.5A.54.54,0,0,0,26,9.54Z" transform="translate(-0.51 -0.5)"/><path class="cls-1" d="M21.24,19.45A10.94,10.94,0,1,0,32.18,30.39,11,11,0,0,0,21.24,19.45Zm0,19.26a8.32,8.32,0,1,1,8.32-8.32A8.32,8.32,0,0,1,21.24,38.71Z" transform="translate(-0.51 -0.5)"/><path class="cls-1" d="M22.55,29.93V26.41a1.31,1.31,0,0,0-2.63,0v4a1.32,1.32,0,0,0,.3.83l2.63,3.21a1.31,1.31,0,0,0,2-1.66Z" transform="translate(-0.51 -0.5)"/></g></g></svg>