<svg xmlns="http://www.w3.org/2000/svg" viewBox="0 0 50 30.96"><g id="Layer_2" data-name="Layer 2"><g id="Layer_1-2" data-name="Layer 1"><path class="cls-1" d="M38,18.62S41.76,15,48,8.17c1.21-1.31,2.73-.1,1.5,1.52-2.45,3.23-8.44,12.38-9.29,13.5s-2.35,1.87-3.9.05-4.46-5-5.07-5.57c-1-1,.07-3.12,1.9-1.9A49.38,49.38,0,0,0,38,18.62Zm.39-13.53a1.12,1.12,0,1,0,0-2.25H19.85a9.27,9.27,0,0,1,.79,2.25Zm0,7.35a1.12,1.12,0,1,0,0-2.25H20.5a8,8,0,0,1-.93,1.54,4.47,4.47,0,0,0,.32.71Zm-26.47.76a6.6,6.6,0,1,0-6.6-6.6A6.6,6.6,0,0,0,11.87,13.19Zm16.24,3.74H23.24a12.77,12.77,0,0,1,1.67,2.25h4A4.1,4.1,0,0,1,28.12,16.93Zm7,9a6.88,6.88,0,0,1-.88-.86c-.36-.42-.79-.91-1.23-1.4h-6.5a13.29,13.29,0,0,1,.19,2.11s0,.1,0,.15ZM11.87,14.51C5.32,14.51,0,19.47,0,25.59a10.42,10.42,0,0,0,1.22,4.89c3.44.31,7,.48,10.65.48s7.22-.17,10.65-.48a10.42,10.42,0,0,0,1.22-4.89C23.75,19.47,18.43,14.51,11.87,14.51Z"/></g></g></svg>