<svg xmlns="http://www.w3.org/2000/svg" viewBox="0 0 64 54"><defs><style>.cls-1{fill:#4d4d4d;}</style></defs><g id="Layer_2" data-name="Layer 2"><g id="Icon"><path class="cls-1" d="M28.73,50H26V18H22l-4,4V18H14V50H11.27A1.27,1.27,0,0,0,10,51.26v1.48A1.27,1.27,0,0,0,11.27,54H28.73A1.27,1.27,0,0,0,30,52.74V51.26A1.27,1.27,0,0,0,28.73,50ZM22,22v8l-4-4Zm-4,8,4,4-4,4Zm4,8v8l-4-4ZM18,50V45.8L22,50ZM10,8,8,6h2V2H2.33A2.34,2.34,0,0,0,0,4.33v7.34A2.34,2.34,0,0,0,2.33,14H10ZM4,10V6l4.4,4Zm10.33,6H25.67A2.34,2.34,0,0,0,28,13.67V9.35A2.32,2.32,0,0,0,27.59,8L22.78,1a2.36,2.36,0,0,0-1.93-1H14.33A2.34,2.34,0,0,0,12,2.33V13.67A2.34,2.34,0,0,0,14.33,16ZM16,4h4.18l2.74,4H16ZM48,34,60,44.39v7.7A1.93,1.93,0,0,1,58.07,54H51V46.42a.42.42,0,0,0-.42-.42H45.42a.42.42,0,0,0-.42.42V54H37.93A1.92,1.92,0,0,1,36,52.07V44.38Zm15.69,3.29L58,32.36V26.9a.9.9,0,0,0-.9-.9H54.9a.9.9,0,0,0-.9.9v2l-4-3.47V14H60.83a1.17,1.17,0,0,0,.83-2l-9-9a3.48,3.48,0,0,0-2.45-1h-24l2.69,4h2.75L30,7.82V14H46V25.42L32.31,37.29a.89.89,0,0,0-.07,1.28l1,1.13a1,1,0,0,0,1.32.07L48,28.16,61.39,39.77a1,1,0,0,0,1.32-.07l1-1.13A.89.89,0,0,0,63.69,37.29ZM50.39,6l4,4H46.33ZM31.67,10l3.66-4L39,10Zm11,0L39,6h7.73Z"/></g></g></svg>