<svg xmlns="http://www.w3.org/2000/svg" viewBox="0 0 61.98 49.41"><g id="Layer_2" data-name="Layer 2"><g id="Layer_1-2" data-name="Layer 1"><rect x="8.06" y="16.31" width="20.18" height="17.71"/><rect x="8.06" y="8.24" width="45.74" height="3.81"/><rect x="32.5" y="16.31" width="21.3" height="3.59"/><rect x="32.5" y="23.37" width="21.3" height="3.59"/><rect x="32.5" y="30.43" width="21.3" height="3.59"/><rect x="32.5" y="37.5" width="21.3" height="3.59"/><rect x="8.06" y="37.5" width="20.18" height="3.59"/><path d="M57.32,49.41H4.66A4.66,4.66,0,0,1,0,44.76V4.66A4.66,4.66,0,0,1,4.66,0H57.32A4.66,4.66,0,0,1,62,4.66v40.1A4.66,4.66,0,0,1,57.32,49.41ZM4.66,3.58A1.09,1.09,0,0,0,3.58,4.66v40.1a1.09,1.09,0,0,0,1.07,1.07H57.32a1.09,1.09,0,0,0,1.07-1.07V4.66a1.09,1.09,0,0,0-1.07-1.07Z"/></g></g></svg>