<svg xmlns="http://www.w3.org/2000/svg" viewBox="0 0 61.74 54.9"><g id="Layer_2" data-name="Layer 2"><g id="Layer_1-2" data-name="Layer 1"><path class="cls-1" d="M60,39.1H58.59V26.36A1.39,1.39,0,0,0,57.2,25H55.82V3.15A2.78,2.78,0,0,0,53,.38H3.15A2.78,2.78,0,0,0,.38,3.15V35.72a2.78,2.78,0,0,0,2.77,2.77h19.7l-1.26,5c-.08.37-.15.49-1.35,1.21l-.17.1c-.89.54-1.48.89-1.29,1.55s1.06.7,1.82.7H35.66c.76,0,1.63,0,1.82-.7s-.4-1-1.29-1.55l-.17-.1c-1.2-.73-1.27-.84-1.35-1.23l-1.26-5h7.38v9a1.39,1.39,0,0,0,1.39,1.39h9.65v4.25a1.39,1.39,0,0,0,1.39,1.39H60a1.39,1.39,0,0,0,1.39-1.39V40.49A1.39,1.39,0,0,0,60,39.1ZM33.31,43.84c.2.89.66,1.28,1.62,1.88H21.32c1-.6,1.43-1,1.62-1.86l1.34-5.37H32Zm7.47-6.73H3.15a1.39,1.39,0,0,1-1.39-1.39V32.86h39Zm0-10.74v5.11h-39V3.15A1.39,1.39,0,0,1,3.15,1.76H53a1.39,1.39,0,0,1,1.39,1.39V25H42.17A1.39,1.39,0,0,0,40.78,26.36Zm11,14.12v7H42.17V26.36h15V39.1h-4A1.39,1.39,0,0,0,51.82,40.49ZM60,53.14H53.2V40.49H60Z"/><path class="cls-1" d="M60,54.9H53.2a1.76,1.76,0,0,1-1.76-1.76V49.26H42.17a1.76,1.76,0,0,1-1.76-1.76V38.87H33.88L35,43.43c.06.26.07.33,1.19,1l.17.1c.92.56,1.72,1,1.46,2s-1.38,1-2.18,1H20.59c-.81,0-1.92,0-2.18-1s.54-1.42,1.46-2l.17-.1c1.11-.67,1.13-.74,1.18-1l1.15-4.59H3.15A3.15,3.15,0,0,1,0,35.72V3.15A3.15,3.15,0,0,1,3.15,0H53a3.15,3.15,0,0,1,3.15,3.15V24.6h1A1.76,1.76,0,0,1,59,26.36V38.72h1a1.76,1.76,0,0,1,1.76,1.76V53.14A1.76,1.76,0,0,1,60,54.9ZM32.92,38.12h8.24V47.5a1,1,0,0,0,1,1h10v4.63a1,1,0,0,0,1,1H60a1,1,0,0,0,1-1V40.49a1,1,0,0,0-1-1H58.21V26.36a1,1,0,0,0-1-1H55.44V3.15A2.4,2.4,0,0,0,53,.75H3.15a2.4,2.4,0,0,0-2.4,2.4V35.72a2.4,2.4,0,0,0,2.4,2.4H23.33L22,43.63c-.12.52-.31.71-1.52,1.44l-.17.1c-.92.55-1.23.77-1.13,1.13s.67.42,1.46.42H35.66c.79,0,1.35,0,1.46-.42s-.21-.58-1.13-1.13l-.17-.1c-1.22-.74-1.4-.91-1.53-1.47Zm27.43,15.4H52.83V40.11h7.52Zm-6.77-.75h6V40.86h-6Zm-1.39-4.89H41.79V26H57.58V39.47H53.2a1,1,0,0,0-1,1Zm-9.65-.75h8.9V40.49a1.76,1.76,0,0,1,1.76-1.76h3.63v-12H42.54Zm-6.29-1H20l1.12-.69c1-.59,1.29-.91,1.45-1.62L24,38.12h8.28l1.41,5.64c.16.73.51,1.05,1.46,1.64Zm-13.76-.75H33.76a2.54,2.54,0,0,1-.82-1.42l-1.26-5.06H24.57L23.3,43.95A2.49,2.49,0,0,1,22.49,45.34Zm18.66-7.86h-38a1.76,1.76,0,0,1-1.76-1.76V32.49H41.16Zm-39-4.24v2.48a1,1,0,0,0,1,1H40.41V33.24Zm39-1.39H1.39V3.15A1.76,1.76,0,0,1,3.15,1.39H53a1.76,1.76,0,0,1,1.76,1.76V25.35H42.17a1,1,0,0,0-1,1Zm-39-.75H40.41V26.36a1.76,1.76,0,0,1,1.76-1.76H54.06V3.15a1,1,0,0,0-1-1H3.15a1,1,0,0,0-1,1Z"/></g></g></svg>