<svg xmlns="http://www.w3.org/2000/svg" viewBox="0 0 23.18 27.17"><defs><style>.cls-1{fill:#fff;}</style></defs><g id="Layer_2" data-name="Layer 2"><g id="Design_2" data-name="Design 2"><path class="cls-1" d="M15.56,4.91l2.08,1.26A30.72,30.72,0,0,1,10.72,14,32.81,32.81,0,0,1,0,19.66,33.22,33.22,0,0,0,11.72,15.6,32.77,32.77,0,0,0,20.64,8l2.17,1.32c.21.13.38,0,.38-.23V.28c0-.25-.17-.35-.37-.23l-7.25,4.4a.25.25,0,0,0,0,.46M5.26,24.12h3a.44.44,0,0,0,.43-.46v-3a.44.44,0,0,0-.43-.46h-3a.44.44,0,0,0-.43.46v3a.44.44,0,0,0,.43.46m9.65,0h3a.44.44,0,0,0,.43-.46v-8a.44.44,0,0,0-.43-.46h-3a.45.45,0,0,0-.43.46v8a.45.45,0,0,0,.43.46m-4.82,0h3a.44.44,0,0,0,.43-.46V18.41a.44.44,0,0,0-.43-.46h-3a.45.45,0,0,0-.43.46v5.26a.45.45,0,0,0,.43.46m-9.65,0h3a.45.45,0,0,0,.43-.46V22.55a.45.45,0,0,0-.43-.46h-3a.44.44,0,0,0-.43.46v1.12a.44.44,0,0,0,.43.46m19.3,0h3a.44.44,0,0,0,.43-.46V12.4a.44.44,0,0,0-.43-.46h-3a.45.45,0,0,0-.43.46V23.67a.45.45,0,0,0,.43.46m3,3H.43A.44.44,0,0,1,0,26.71V25.59a.44.44,0,0,1,.43-.46H22.73a.44.44,0,0,1,.43.46v1.12a.44.44,0,0,1-.43.46"/></g></g></svg>