<svg xmlns="http://www.w3.org/2000/svg" viewBox="0 0 41.35 20.73"><defs><style>.cls-1{fill:#00adee;}</style></defs><g id="Layer_2" data-name="Layer 2"><g id="Design_2" data-name="Design 2"><path class="cls-1" d="M31.49,16.35a5.41,5.41,0,0,0-1.76-.75c-1.64-.43-3.49-.54-4.79-2.25,0,0-.66-.75.84-2.59S27.4,6,27,3.75a4.84,4.84,0,0,0-9.43,0c-.37,2.26-.25,5.18,1.25,7s.84,2.59.84,2.59c-1.29,1.7-3.12,1.82-4.75,2.24a5.34,5.34,0,0,0-1.8.76c-1.88,1.33-1.42,4.38-1.42,4.38H32.91S33.37,17.68,31.49,16.35Z"/><path class="cls-1" d="M40.17,17.19c-1.52-1.08-3.85-.51-5.3-2.43,0,0-.54-.61.67-2.09s1.32-3.85,1-5.67a3.91,3.91,0,0,0-7.63,0c-.3,1.82-.2,4.18,1,5.67a18.89,18.89,0,0,0,2.45,2.41c2.29,1.63,2.17,4.77,2.08,5.65h6.84S41.68,18.27,40.17,17.19Z"/><polygon class="cls-1" points="14.59 6.4 9.72 6.4 9.72 1.54 4.86 1.54 4.86 6.4 0 6.4 0 11.27 4.86 11.27 4.86 16.13 9.72 16.13 9.72 11.27 14.59 11.27 14.59 6.4"/></g></g></svg>