<svg xmlns="http://www.w3.org/2000/svg" viewBox="0 0 34.87 50.72"><g id="Layer_2" data-name="Layer 2"><g id="Common"><path class="cls-1" d="M32,.25a.86.86,0,0,0-1.2,0L27.35,3.66a.86.86,0,0,1-1.2,0L22.7.25a.86.86,0,0,0-1.2,0L18,3.66a.86.86,0,0,1-1.2,0L13.38.25a.86.86,0,0,0-1.2,0L8.73,3.66a.86.86,0,0,1-1.2,0L4.07.25a.86.86,0,0,0-1.2,0L0,3.08V47.64l2.86,2.84a.86.86,0,0,0,1.2,0l3.45-3.42a.86.86,0,0,1,1.2,0l3.45,3.42a.86.86,0,0,0,1.2,0l3.45-3.42a.86.86,0,0,1,1.2,0l3.45,3.42a.86.86,0,0,0,1.2,0l3.45-3.42a.86.86,0,0,1,1.2,0l3.45,3.42a.85.85,0,0,0,.6.25h0a.86.86,0,0,0,.6-.25l2.87-2.84V3.08ZM12.32,24l.42-1.64s.06-.28.22-.34a.56.56,0,0,1,.49,0,7.74,7.74,0,0,0,3.32.75c1.33,0,2.26-.54,2.26-1.44s-.77-1.44-2.49-2c-2.49-.84-4.19-2-4.19-4.26,0-2,1.33-3.55,3.64-4.08V9.45a.74.74,0,0,1,.73-.73h1.44a.73.73,0,0,1,.73.73v1.33a8.26,8.26,0,0,1,2.73.6.44.44,0,0,1,.25.2.89.89,0,0,1,0,.34l-.44,1.67s-.08.27-.22.33a.65.65,0,0,1-.5,0,7.09,7.09,0,0,0-2.78-.55c-1.51,0-2,.68-2,1.33s.81,1.26,2.8,2c2.8,1,3.89,2.26,3.89,4.38s-1.34,3.68-3.83,4.22V27a.74.74,0,0,1-.73.73H16.58a.73.73,0,0,1-.73-.73V25.48a9.74,9.74,0,0,1-3.23-.75.61.61,0,0,1-.32-.3A1.08,1.08,0,0,1,12.32,24ZM28.53,41.21H6.34a1.58,1.58,0,1,1,0-3.17H28.53a1.58,1.58,0,1,1,0,3.17Zm0-6.34H6.34a1.59,1.59,0,0,1,0-3.17H28.53a1.59,1.59,0,0,1,0,3.17Z"/></g></g></svg>