<svg xmlns="http://www.w3.org/2000/svg" viewBox="0 0 60 56"><defs><style>.cls-1{fill:#4d4d4d;}</style></defs><g id="Layer_2" data-name="Layer 2"><g id="Icon"><path class="cls-1" d="M59.63,21.66,58,23.55a1.53,1.53,0,0,1-2.06.1L35,6.24,14.07,23.65a1.53,1.53,0,0,1-2.06-.1l-1.63-1.7a1.28,1.28,0,0,1,.11-1.92L34,.35a1.54,1.54,0,0,1,2,0L46,8.6V5.17A1.17,1.17,0,0,1,47.17,4h3.66A1.17,1.17,0,0,1,52,5.17v8.38l7.51,6.18A1.3,1.3,0,0,1,59.63,21.66ZM35,9.36,54,25.17V38.89A3.11,3.11,0,0,1,50.89,42H40V28.81a.81.81,0,0,0-.81-.81H30.81a.81.81,0,0,0-.81.81V42H24v6a2,2,0,0,1-2,2H14v5.1a.9.9,0,0,1-.9.9H10.9a.9.9,0,0,1-.9-.9V50H2a2,2,0,0,1-2-2V32a2,2,0,0,1,2-2H16V25.17ZM22,32.42a.42.42,0,0,0-.42-.42H2.42a.42.42,0,0,0-.42.42V47.58a.42.42,0,0,0,.42.42H21.58a.42.42,0,0,0,.42-.42ZM12.72,39c-1.61-.52-2.1-.9-2.1-1.6,0-.53.48-1.16,1.83-1.16a4.7,4.7,0,0,1,2,.42l.1.06a.39.39,0,0,0,.28,0,.29.29,0,0,0,.19-.17l.46-1.14a.32.32,0,0,0-.18-.41,6.23,6.23,0,0,0-2.32-.5V33.34a.36.36,0,0,0-.37-.34H11.38a.36.36,0,0,0-.38.34V34.7c-1.66.4-2.75,1.45-2.75,2.86s1.11,2.46,3.4,3.17c1.64.51,2,1,2,1.65,0,.85-.78,1.36-2.08,1.36A5.44,5.44,0,0,1,9,43.14l-.1-.06a.39.39,0,0,0-.28,0,.27.27,0,0,0-.2.17L8,44.41a.31.31,0,0,0,.16.39,7.17,7.17,0,0,0,2.82.68v1.18a.36.36,0,0,0,.38.34h1.25a.36.36,0,0,0,.37-.34V45.31c2-.45,3-1.73,3-3C16,40.36,14.34,39.55,12.72,39Z"/></g></g></svg>