<svg xmlns="http://www.w3.org/2000/svg" viewBox="0 0 327.2 499.9"><g id="Layer_2" data-name="Layer 2"><g id="Layer_1-2" data-name="Layer 1"><path d="M308.1,58.3H214.5A30.62,30.62,0,0,1,212,46.9c-.1-5.1-2.7-12.2-8-15-3.9-2.1-8.7-1.3-12.6-3.4-3.3-1.7-5.3-6.1-9.2-17.5C178.7,1,168.7.1,166.3,0h-1c-2.4.1-12.4,1-15.9,10.9-3.9,11.4-5.9,15.8-9.2,17.5-3.9,2.1-8.7,1.3-12.6,3.4-5.3,2.8-7.9,9.9-8,15a30.62,30.62,0,0,1-2.5,11.4H19A18.76,18.76,0,0,0,0,76.7V481.4a18.76,18.76,0,0,0,19,18.5H308.2a18.76,18.76,0,0,0,19-18.5V76.8A18.91,18.91,0,0,0,308.1,58.3ZM165.7,11.4a9,9,0,1,1-9,9A9.09,9.09,0,0,1,165.7,11.4ZM299.2,472.1,27,471.9l.3-386.8H64.7c-.8.5-1.5,1-2.3,1.6a22.23,22.23,0,0,0-6.5,10.5c-.8,2.4-1.4,4.8-2,7.2H277.3c-.6-2.2-1.2-4.5-1.9-6.8-1.3-4.1-3.1-8.1-6.6-10.9-.6-.5-1.3-1-2-1.5h32.6Z"/><rect x="50.5" y="153" width="226" height="20"/><rect x="50.5" y="215" width="226" height="20"/><rect x="50.5" y="277" width="226" height="20"/><rect x="50.5" y="339" width="226" height="20"/><rect x="50.5" y="401" width="226" height="20"/></g></g></svg>