<svg xmlns="http://www.w3.org/2000/svg" viewBox="0 0 452.44 335.85"><defs><style>.cls-1{stroke:#332b2b;stroke-miterlimit:22.93;stroke-width:0.57px;fill-rule:evenodd;}</style></defs><g id="Layer_2" data-name="Layer 2"><g id="Layer_1-2" data-name="Layer 1"><polygon class="cls-1" points="34.22 33.39 34.22 96.49 1.11 96.49 1.11 33.39 1.11 0.49 1.11 0.28 97.11 0.28 97.11 33.39 34.22 33.39 34.22 33.39"/><polygon class="cls-1" points="419.05 33.39 419.05 96.49 452.16 96.49 452.16 33.39 452.16 0.49 452.16 0.28 356.16 0.28 356.16 33.39 419.05 33.39 419.05 33.39"/><polygon class="cls-1" points="33.39 302.46 33.39 239.36 0.28 239.36 0.28 302.46 0.28 335.36 0.28 335.57 96.29 335.57 96.29 302.46 33.39 302.46 33.39 302.46"/><polygon class="cls-1" points="419.05 302.46 419.05 239.36 452.16 239.36 452.16 302.46 452.16 335.36 452.16 335.57 356.16 335.57 356.16 302.46 419.05 302.46 419.05 302.46"/><ellipse cx="228.27" cy="181.58" rx="43.73" ry="43.35"/><path d="M344.43,90.13H286.88L272.73,66H184.15L168.23,90.13H109.52c-9.87,0-17.94,7.83-17.94,17.4V242.74c0,9.57,8.07,17.4,17.94,17.4H344.43c9.87,0,17.94-7.83,17.94-17.4V107.53C362.37,98,354.3,90.13,344.43,90.13ZM272,108.07c4.3,0,7.79,3.86,7.79,8.63s-3.49,8.63-7.79,8.63-7.79-3.86-7.79-8.63S267.73,108.07,272,108.07ZM228.27,235.28c-29.92,0-54.17-24-54.17-53.7s24.25-53.7,54.17-53.7,54.17,24,54.17,53.7S258.19,235.28,228.27,235.28Zm112-115.17a1.8,1.8,0,0,1-1.8,1.8H294.59a1.8,1.8,0,0,1-1.8-1.8V109.33a1.8,1.8,0,0,1,1.8-1.8h43.87a1.8,1.8,0,0,1,1.8,1.8Z"/></g></g></svg>