<svg xmlns="http://www.w3.org/2000/svg" viewBox="0 0 60 52"><defs><style>.cls-1{fill:#4d4d4d;}</style></defs><g id="Layer_2" data-name="Layer 2"><g id="Icon"><path class="cls-1" d="M56,14h3.58a.42.42,0,0,0,.42-.42V2a2,2,0,0,0-2-2H2A2,2,0,0,0,0,2V50a2,2,0,0,0,2,2H58a2,2,0,0,0,2-2V22.42a.42.42,0,0,0-.42-.42H48.1A9.05,9.05,0,0,1,56,14Zm-10,8c0,.33,0,.66,0,1a1,1,0,0,0,1,1h9v8H48.42a.42.42,0,0,0-.42.42v3.16a.42.42,0,0,0,.42.42H56V47.58a.42.42,0,0,1-.42.42H4.42A.42.42,0,0,1,4,47.58V28h6.05A11,11,0,0,0,20,38c.33,0,.66,0,1,0a1,1,0,0,0,1-1V28h6v7.58a.42.42,0,0,0,.42.42H39.58a.42.42,0,0,0,.42-.42V32.42a.42.42,0,0,0-.42-.42H32V18.42a.42.42,0,0,0-.42-.42H28.42a.42.42,0,0,0-.42.42V24H20.42a.42.42,0,0,0-.42.42V35.9A9.05,9.05,0,0,1,12,28V24.42a.42.42,0,0,0-.42-.42H4V4.42A.42.42,0,0,1,4.42,4H28V9.58a.42.42,0,0,0,.42.42h3.16A.42.42,0,0,0,32,9.58V4H55.58a.42.42,0,0,1,.42.42v7.63A11,11,0,0,0,46.05,22Z"/></g></g></svg>