<svg xmlns="http://www.w3.org/2000/svg" viewBox="0 0 500 400"><g id="Layer_2" data-name="Layer 2"><g id="Layer_1-2" data-name="Layer 1"><g id="Layer_2-2" data-name="Layer 2"><g id="Layer_1-2-2" data-name="Layer 1-2"><path d="M0,75V350a50.15,50.15,0,0,0,50,50H450a50.15,50.15,0,0,0,50-50V125a50.15,50.15,0,0,0-50-50H375C325,75,296.73,0,250,0H50C25,0,0,25,0,50ZM250.49,177.44c0-27.48,23.53-51,51-51s51,23.56,51,51-23.24,51-50.73,51S250.49,204.95,250.49,177.44Zm54.74,68.06c71.29,3.1,104.3,50.51,119.77,94H371.39c-6.2-11.5-11.91-17.15-11.91-17.15V339.5H244.14V322.36s-5.71,5.65-11.91,17.15H178.61c15.48-43.49,48.49-90.91,119.82-94v-.25c1.12,0,2.25.1,3.37.16s2.2-.16,3.42-.16ZM131.35,152.61a43.21,43.21,0,0,1,86.43,0c0,23.83-19,41.84-42.92,41.84S131.35,176.44,131.35,152.61ZM64.7,339.52c4.54-38.37,24.66-124,114.45-127.92v-.27c1,0,1.91.1,2.93.15s1.91-.15,2.93-.15v.27c21.88.94,34.08,7.53,48.44,16.89-34,17-40.62,29-57.91,50.81-19.29,24.33-24.66,43.1-28.47,60.22H132V279.88s-18.95,17.93-23.54,59.63Z"/></g></g></g></g></svg>