<svg xmlns="http://www.w3.org/2000/svg" viewBox="0 0 46 56"><defs><style>.cls-1{fill:#4d4d4d;}</style></defs><g id="Layer_2" data-name="Layer 2"><g id="Icon"><path class="cls-1" d="M26,19.33a.67.67,0,0,0,.67.67H37.33a.67.67,0,0,0,.67-.67V16.67a.67.67,0,0,0-.67-.67H26.67a.67.67,0,0,0-.67.67ZM26.67,12H37.33a.67.67,0,0,0,.67-.67V8.67A.67.67,0,0,0,37.33,8H26.67a.67.67,0,0,0-.67.67v2.66A.67.67,0,0,0,26.67,12ZM8,24.67v2.66a.67.67,0,0,0,.67.67H37.33a.67.67,0,0,0,.67-.67V24.67a.67.67,0,0,0-.67-.67H8.67A.67.67,0,0,0,8,24.67ZM38,35.33V32.67a.67.67,0,0,0-.67-.67H8.67a.67.67,0,0,0-.67.67v2.66a.67.67,0,0,0,.67.67H37.33A.67.67,0,0,0,38,35.33ZM8.67,44H23.33a.67.67,0,0,0,.67-.67V40.67a.67.67,0,0,0-.67-.67H8.67a.67.67,0,0,0-.67.67v2.66A.67.67,0,0,0,8.67,44ZM38,45a5,5,0,1,0-8,4v6.8a.23.23,0,0,0,.13.2.24.24,0,0,0,.23,0L33,53.84,35.64,56a.23.23,0,0,0,.24,0,.24.24,0,0,0,.12-.2V49A5,5,0,0,0,38,45ZM42,0H4A4,4,0,0,0,0,4V48a4,4,0,0,0,4,4H28V50.42A7.4,7.4,0,0,1,26.25,48H5a1,1,0,0,1-1-1V5A1,1,0,0,1,5,4H41a1,1,0,0,1,1,1V47a1,1,0,0,1-1,1H39.75A7.4,7.4,0,0,1,38,50.42V52h4a4,4,0,0,0,4-4V4A4,4,0,0,0,42,0ZM24,14.86v.57a.58.58,0,0,1-.58.57H20v3.39a.61.61,0,0,1-.61.61H16V16H14v4H10.61a.61.61,0,0,1-.61-.61V16H6.58A.58.58,0,0,1,6,15.43v-.57a.56.56,0,0,1,.22-.44l8.51-8.37a.75.75,0,0,1,.54,0l8.51,8.37A.56.56,0,0,1,24,14.86Z"/></g></g></svg>