<svg xmlns="http://www.w3.org/2000/svg" viewBox="0 0 43.28 50"><g id="Layer_2" data-name="Layer 2"><g id="Layer_1-2" data-name="Layer 1"><path class="cls-1" d="M22.46,42.45H8A1.57,1.57,0,0,1,8,39.3h11.5c.61.69,1.21,1.36,1.71,2A9.62,9.62,0,0,0,22.46,42.45ZM40.55,17.63c-8.78,9.54-14.1,14.61-14.1,14.61a69,69,0,0,1-6.64-4c-2.56-1.71-4,1.33-2.66,2.66.84.84,4.74,5,7.08,7.78,2.16,2.54,4.25,1.5,5.45-.07s9.55-14.35,13-18.87C44.37,17.49,42.24,15.8,40.55,17.63ZM8,33h5.76l-.08-.13a1.57,1.57,0,0,0-.62-3H8A1.57,1.57,0,0,0,8,33Zm0-9.42H27a1.57,1.57,0,1,0,0-3.14H8a1.57,1.57,0,0,0,0,3.14ZM41.6,28.3V41.44A8.57,8.57,0,0,1,33,50H8.56A8.57,8.57,0,0,1,0,41.44V11.8A8.57,8.57,0,0,1,8.56,3.24h4.63A4.34,4.34,0,0,1,17.36,0h7a4.28,4.28,0,0,1,4.17,3.24H33a8.24,8.24,0,0,1,8.38,8.61l-2.77,3.61V11.8A5.62,5.62,0,0,0,33,6.18H28.62V8.06a4.31,4.31,0,0,1-4.31,4.31h-7A4.31,4.31,0,0,1,13,8.06V6.18H8.56A5.62,5.62,0,0,0,2.94,11.8V41.44a5.62,5.62,0,0,0,5.62,5.62H33a5.62,5.62,0,0,0,5.62-5.62V32.21ZM16,8.06a1.37,1.37,0,0,0,1.37,1.36h7a1.37,1.37,0,0,0,1.37-1.36V4.31a1.37,1.37,0,0,0-1.37-1.36h-7A1.37,1.37,0,0,0,16,4.31Z"/></g></g></svg>