<svg xmlns="http://www.w3.org/2000/svg" viewBox="0 0 500.1 500"><g id="Layer_2" data-name="Layer 2"><g id="Layer_1-2" data-name="Layer 1"><path d="M444.4,166.7H416.6a166.65,166.65,0,1,0-333.3,0H55.6A55.72,55.72,0,0,0,0,222.2V444.4A55.74,55.74,0,0,0,55.6,500H444.5a55.8,55.8,0,0,0,55.6-55.6V222.2A55.87,55.87,0,0,0,444.4,166.7Zm-148.8,240c5.2,19.3-1,24.8-19.4,25.2v.1H224v-.1c-18.4-.4-24.6-5.9-19.4-25.2,3.5-13.1,11-52.9,15.7-78.8a57.05,57.05,0,1,1,59.7,0C284.7,353.7,292.1,393.6,295.6,406.7Zm-156.7-240a111.1,111.1,0,0,1,222.2,0Z"/></g></g></svg>