<svg xmlns="http://www.w3.org/2000/svg" viewBox="0 0 500 458.1"><g id="Layer_2" data-name="Layer 2"><g id="Layer_1-2" data-name="Layer 1"><path d="M416.4,62.5V61c0-33.6-27.7-61-61.7-61s-63.1,27.3-63.1,61v1.5H208.4V61c0-33.6-28.5-61-62.5-61A60.63,60.63,0,0,0,85.1,61v1.5H0V458.1H500V62.5Zm-83.2,0c0-14,8.4-20.8,20.8-20.8s20.8,6.9,20.8,20.8v41.6c0,14-8.4,20.8-20.8,20.8s-20.8-6.9-20.8-20.8Zm-208.3,0c0-14,8.4-20.8,20.8-20.8s20.8,6.9,20.8,20.8v41.6c0,14-8.4,20.8-20.8,20.8s-20.8-6.9-20.8-20.8ZM458,416.2H41.6V166.3H458Z"/><polygon points="191 379.8 249.9 320.9 308.9 379.9 338.3 350.5 279.4 291.5 338.3 232.6 308.8 203.2 249.9 262.1 191.1 203.3 161.7 232.7 220.5 291.5 161.6 350.4 191 379.8"/></g></g></svg>