<svg xmlns="http://www.w3.org/2000/svg" viewBox="0 0 58 52"><defs><style>.cls-1{fill:#fff;}</style></defs><g id="Layer_2" data-name="Layer 2"><g id="Layer_1-2" data-name="Layer 1"><path class="cls-1" d="M54,0H4A4,4,0,0,0,0,4V37a4,4,0,0,0,4,4H25a17.76,17.76,0,0,1-1.4,6H20c-2.2,0-4,1.63-4,3,0,2,.8,2,3,2H39c2.2,0,3,0,3-2,0-1.37-1.8-3-4-3H35.16a13,13,0,0,1-2.1-6H54a4,4,0,0,0,4-4V4A4,4,0,0,0,54,0ZM52,30a2,2,0,0,1-2,2H8a2,2,0,0,1-2-2V8A2,2,0,0,1,8,6H50a2,2,0,0,1,2,2Z"/><path class="cls-1" d="M32.59,28a2,2,0,0,0,1.06-2.62L32,21.51a1.48,1.48,0,0,1,1.2-2.14l2.16-.32c1.09-.16,1.24-.81.34-1.45L26.27,11a1.15,1.15,0,0,0-1.95.82l-1.83,11.4c-.18,1.09.4,1.43,1.27.77l1.75-1.32a1.48,1.48,0,0,1,2.37.63l1.64,3.91a2,2,0,0,0,2.62,1.06Z"/></g></g></svg>