<svg xmlns="http://www.w3.org/2000/svg" viewBox="0 0 41.48 51.06"><g id="Layer_2" data-name="Layer 2"><g id="Common"><path class="cls-1" d="M42,11.66V43.58a8,8,0,0,1-8,8H8.49a8,8,0,0,1-8-8V11.66a8,8,0,0,1,8-8h4.82A3.73,3.73,0,0,1,17,.5h8.5a3.71,3.71,0,0,1,3.68,3.18H34A8,8,0,0,1,42,11.66Zm-3.2,31.92V11.66A4.78,4.78,0,0,0,34,6.88H29.23V9.54a3.74,3.74,0,0,1-3.74,3.72H17a3.73,3.73,0,0,1-3.72-3.72V6.88H8.49a4.8,4.8,0,0,0-4.8,4.78V43.58a4.8,4.8,0,0,0,4.8,4.78H34A4.78,4.78,0,0,0,38.79,43.58ZM26,9.54V4.22a.54.54,0,0,0-.54-.54H17a.54.54,0,0,0-.54.54V9.54a.54.54,0,0,0,.54.54h8.5A.54.54,0,0,0,26,9.54Z" transform="translate(-0.51 -0.5)"/><path class="cls-1" d="M26.68,21.33a8.2,8.2,0,0,0-5.13-1.44A15.16,15.16,0,0,0,13.94,22l2,4a11.41,11.41,0,0,1,5.17-1.57,2.64,2.64,0,0,1,1.45.36,1.11,1.11,0,0,1,.56,1,2,2,0,0,1-.52,1.38,7.81,7.81,0,0,1-1.71,1.35,6.15,6.15,0,0,0-2.08,1.93,4.68,4.68,0,0,0-.59,2.42v1.26h4.5v-.75a1.64,1.64,0,0,1,.39-1.09,10.22,10.22,0,0,1,1.93-1.46,8.44,8.44,0,0,0,2.64-2.45,5.58,5.58,0,0,0,.83-3.07A4.67,4.67,0,0,0,26.68,21.33Z" transform="translate(-0.51 -0.5)"/><path class="cls-1" d="M20.72,36.37a3.26,3.26,0,0,0-2.31.73,2.71,2.71,0,0,0-.78,2.08,2.62,2.62,0,0,0,.82,2.07,3.31,3.31,0,0,0,2.27.73,3.19,3.19,0,0,0,2.22-.73,2.64,2.64,0,0,0,.81-2.07A2.71,2.71,0,0,0,23,37.11,3.15,3.15,0,0,0,20.72,36.37Z" transform="translate(-0.51 -0.5)"/></g></g></svg>