<svg xmlns="http://www.w3.org/2000/svg" viewBox="0 0 34.87 50.72"><g id="Layer_2" data-name="Layer 2"><g id="Common"><path d="M2.87,50.48a.86.86,0,0,0,1.2,0l3.45-3.42a.86.86,0,0,1,1.2,0l3.45,3.42a.86.86,0,0,0,1.2,0l3.45-3.42a.86.86,0,0,1,1.2,0l3.46,3.42a.86.86,0,0,0,1.2,0l3.45-3.42a.86.86,0,0,1,1.2,0l3.45,3.42a.86.86,0,0,0,1.2,0l2.87-2.84V3.08L32,.25a.86.86,0,0,0-1.2,0L27.35,3.66a.86.86,0,0,1-1.2,0L22.7.25a.86.86,0,0,0-1.2,0L18,3.66a.86.86,0,0,1-1.2,0L13.39.25a.86.86,0,0,0-1.2,0L8.73,3.66a.86.86,0,0,1-1.2,0L4.07.25A.85.85,0,0,0,3.47,0h0a.86.86,0,0,0-.6.25L0,3.08V47.64Zm3.48-39H28.53a1.58,1.58,0,1,1,0,3.17H6.34a1.58,1.58,0,1,1,0-3.17Zm0,6.34H28.53a1.59,1.59,0,0,1,0,3.17H6.34a1.59,1.59,0,0,1,0-3.17Zm0,6.34H28.53a1.59,1.59,0,0,1,0,3.17H6.34a1.59,1.59,0,0,1,0-3.17Zm0,6.34H28.53a1.59,1.59,0,0,1,0,3.17H6.34a1.59,1.59,0,0,1,0-3.17Zm0,6.34H28.53a1.59,1.59,0,0,1,0,3.17H6.34a1.59,1.59,0,0,1,0-3.17Z"/></g></g></svg>