<svg xmlns="http://www.w3.org/2000/svg" viewBox="0 0 64 56"><defs><style>.cls-1{fill:#4d4d4d;}</style></defs><g id="Layer_2" data-name="Layer 2"><g id="Icon"><path class="cls-1" d="M29.75,22.82C31.56,13.06,22.7,10,18.21,10c-2.82,0-2.46,2.08-2.46,2.08C10.38,12.08,7.1,14,8,22.83c-1.31,0-2.4.38-1.91,3.18.57,3.27,1.56,4.12,3.11,4.13h.08C10.09,35.69,16,40,19,40s8.93-4.33,9.68-9.88l.44,0c1.57,0,2.2-.85,2.77-4.13C32.4,23.06,31.15,22.84,29.75,22.82ZM38,50v3.08A2.78,2.78,0,0,1,35.38,56H2.63A2.79,2.79,0,0,1,0,53.08V50c0-4.54,4.33-5.42,10.46-8L14,52,18,48A4.73,4.73,0,0,1,16,44.24c0-1.65,1.36-2.2,3-2.23s3,.58,3,2.23A5,5,0,0,1,20.05,48L24,52l3.54-10C33.67,44.58,38,45.46,38,50ZM48,0C39.16,0,32,6.27,32,14a13.27,13.27,0,0,0,5.33,10.41,6.85,6.85,0,0,1-2.6,4l-.51.42a.62.62,0,0,0-.2.63.66.66,0,0,0,.49.45A8.25,8.25,0,0,0,36,30c1.72,0,4.59-.48,8.82-2.28A18.76,18.76,0,0,0,48,28c8.84,0,16-6.27,16-14S56.84,0,48,0Zm6,19.53a.47.47,0,0,1-.47.47H50V16.21a.22.22,0,0,0-.21-.21H46.22a.22.22,0,0,0-.22.21V20H42.47a.47.47,0,0,1-.47-.47V14.75l6-4.2,6,4.2Zm4-6.34-.84,1.14a.61.61,0,0,1-.48.25.66.66,0,0,1-.35-.11L48,8.65l-8.31,5.82a.66.66,0,0,1-.35.11.61.61,0,0,1-.48-.25L38,13.19a.65.65,0,0,1-.11-.45.61.61,0,0,1,.25-.39l9.5-6.65a.58.58,0,0,1,.68,0l9.5,6.65a.61.61,0,0,1,.25.39A.65.65,0,0,1,58,13.19Z"/></g></g></svg>