<svg xmlns="http://www.w3.org/2000/svg" viewBox="0 0 209.13 161.24"><defs><style>.cls-1{fill:#231f20;}</style></defs><g id="Layer_2" data-name="Layer 2"><g id="Layer_1-2" data-name="Layer 1"><path class="cls-1" d="M96.38,132a104.72,104.72,0,0,0,15.77-16.79h0l2.83-3.76a37.37,37.37,0,0,1,4.34-5.09,23.86,23.86,0,0,1,5.47-4c18.52-9.67,32.94-19.07,44.69-30.88,11.56-11.62,20.61-25.65,28.56-44.7l-.24-.21c-5.48-4.85-11-6.19-18.12-5.1-10.61,8.89-14,11.72-23.31,21.94a55.92,55.92,0,0,1-41.83,5.2L99.78,70.06a5,5,0,0,1-7,1.29l-1.65-1.13a5,5,0,0,1-1.29-7l13.2-19.22a57,57,0,0,1-10.71-7.31L76.23,55.07a5,5,0,0,1-7.06.45l-1.5-1.32a5,5,0,0,1-.45-7.06L84.14,27.95a55.83,55.83,0,0,1-5.28-8.42l-.25-.5-.35-.44c-3.77-4.74-8-9.13-11.83-13.83L62.55,0s-4.39,3.17-5.28,4.42a223.39,223.39,0,0,1-53.7,53.9C2.26,59.24,0,62.78,0,62.78l5.12,3.83c4.86,3.64,9.48,8,14.52,11.32,12.23,8.13,25,19.35,30,33.57,2.72,7.69,6.17,15.19,11.47,21.46,4.08,4.83,8.4,9.46,12.89,13.91l3-1.64A109.79,109.79,0,0,0,96.38,132Z"/><path class="cls-1" d="M201.63,29.66c-8.05,19-17.27,33.08-29,44.88-12.13,12.19-26.87,21.81-45.76,31.68a19.42,19.42,0,0,0-4.45,3.27,33.21,33.21,0,0,0-3.86,4.54l0,0-2.82,3.75h0a109.15,109.15,0,0,1-16.43,17.51A114.28,114.28,0,0,1,79.2,149.14l-1.83,1q4.61,4.41,9.41,8.61l2.85,2.5L93,159.45A108.71,108.71,0,0,0,128.4,129.1l2.68-3.61-3-3.33-1.6-1.78a25.84,25.84,0,0,1,8.87-8.27c37.11-19.24,57.81-37.52,73.8-76.69C206.7,33.52,204.11,31.61,201.63,29.66Z"/></g></g></svg>