<svg xmlns="http://www.w3.org/2000/svg" viewBox="0 0 42 34.13"><g id="Layer_2" data-name="Layer 2"><g id="Layer_1-2" data-name="Layer 1"><path class="cls-1" d="M42,4A17.2,17.2,0,0,1,37.05,5.4,8.63,8.63,0,0,0,40.84.63a17.26,17.26,0,0,1-5.47,2.09,8.62,8.62,0,0,0-14.68,7.86,24.46,24.46,0,0,1-17.76-9,8.63,8.63,0,0,0,2.67,11.5A8.58,8.58,0,0,1,1.69,12,8.62,8.62,0,0,0,8.6,20.56a8.64,8.64,0,0,1-3.89.15,8.62,8.62,0,0,0,8.05,6A17.33,17.33,0,0,1,0,30.26a24.39,24.39,0,0,0,13.21,3.87c16,0,25-13.51,24.49-25.63A17.54,17.54,0,0,0,42,4Z"/></g></g></svg>