<svg xmlns="http://www.w3.org/2000/svg" viewBox="0 0 500.01 346.38"><g id="Layer_2" data-name="Layer 2"><g id="Layer_1-2" data-name="Layer 1"><g id="Layer_2-2" data-name="Layer 2"><g id="Layer_1-2-2" data-name="Layer 1-2"><path d="M451,129.51c-17.73-26-40.32-59.26-41.77-61.35a78.8,78.8,0,0,0-33.38-27.34c-7.46-11-14.18-20.84-14.77-21.68a44.46,44.46,0,0,0-81,25.34V68.83a78.34,78.34,0,0,0-10.76,23.31,42.7,42.7,0,0,0-38.68,0,78.33,78.33,0,0,0-10.79-23.31V44.49a44.46,44.46,0,0,0-81-25.34c-.59.84-7.31,10.72-14.77,21.68A78.8,78.8,0,0,0,90.71,68.16c-1.45,2.09-24,35.32-41.77,61.35a120.08,120.08,0,1,0,184.49,136.4,42.37,42.37,0,0,0,33.11,0A120.09,120.09,0,1,0,451,129.51ZM120,311.9a85.66,85.66,0,1,1,85.67-85.66A85.66,85.66,0,0,1,120,311.9Zm130-70.83a14.82,14.82,0,1,1,14.82-14.83A14.82,14.82,0,0,1,250,241.07ZM379.9,311.91a85.66,85.66,0,1,1,85.65-85.67h0A85.66,85.66,0,0,1,379.9,311.9Z"/></g></g></g></g></svg>