<svg xmlns="http://www.w3.org/2000/svg" viewBox="0 0 443.1 500"><g id="Layer_2" data-name="Layer 2"><g id="Layer_1-2" data-name="Layer 1"><path d="M420.8,78.2l22.3,1.7V38.2L272.2,0,0,72.8v41.3c2.4-.7,19.9-1.3,22.4-2V500H420.8ZM95.9,469c-14.3.2-28.3.4-42.1.7v-102c13.8-1.1,27.8-2.3,42.1-3.4Zm0-129.7c-14.3,1.4-28.3,2.8-42.1,4.1v-102c13.8-2.3,27.8-4.5,42.1-6.9Zm0-129.8c-14.3,2.6-28.3,5.1-42.1,7.5V114.9c13.8-3.4,27.8-6.8,42.1-10.3Zm69,258.4c-15.6.2-30.8.5-45.8.7V362.3c15-1.2,30.2-2.5,45.8-3.7Zm0-135.3c-15.6,1.5-30.8,3-45.8,4.5V230.7c15-2.4,30.2-4.9,45.8-7.5Zm0-135.4c-15.6,2.8-30.8,5.5-45.8,8.2V99c15-3.7,30.2-7.4,45.8-11.2Zm75.2,269.5c-17,.3-33.7.5-50,.8v-111c16.3-1.3,33-2.7,50-4.1Zm0-141.4c-17,1.7-33.7,3.3-50,4.9v-111c16.3-2.7,33-5.4,50-8.2Zm0-141.5c-17,3-33.7,6-50,8.9V81.6q24.45-6,50-12.2Z"/></g></g></svg>