<svg xmlns="http://www.w3.org/2000/svg" viewBox="0 0 50 50"><g id="Layer_2" data-name="Layer 2"><g id="Common"><path class="cls-1" d="M25.48,38A2.78,2.78,0,0,1,23,36.44l-5.9-12.7-2.67,3.58a2.78,2.78,0,0,1-2.23,1.12H5.87a2.78,2.78,0,0,1,0-5.56h4.9l4.62-6.19a2.78,2.78,0,0,1,4.75.49l4.92,10.58,5.37-16.12A2.78,2.78,0,0,1,33,9.74h0a2.78,2.78,0,0,1,2.62,1.86l3.88,11h4.23a2.78,2.78,0,1,1,0,5.56H37.6A2.78,2.78,0,0,1,35,26.29l-1.84-5.21-5,15.06A2.78,2.78,0,0,1,25.64,38ZM50,25A25,25,0,1,0,25,50,25,25,0,0,0,50,25Z"/></g></g></svg>