<svg xmlns="http://www.w3.org/2000/svg" viewBox="0 0 48 48"><defs><style>.cls-1{fill:#fff;}</style></defs><g id="Layer_2" data-name="Layer 2"><g id="Icon"><path class="cls-1" d="M48,18.14,15.65,24.36a6.29,6.29,0,0,0-1.89-4.19,8.41,8.41,0,0,0-5.93-2.34c-4.32,0-7.83,3-7.83,6.79a6.26,6.26,0,0,0,1.91,4.44,8.36,8.36,0,0,0,5.92,2.35,8.46,8.46,0,0,0,5.26-1.77L19.6,28.5l3.17,1.57,18.75-4.16A9.31,9.31,0,0,0,44.76,24,12.69,12.69,0,0,0,48,18.14ZM11.84,27.21a6.23,6.23,0,0,1-4,1.39A6,6,0,0,1,3.59,27a3.37,3.37,0,0,1-1.07-2.36A3.51,3.51,0,0,1,3.83,22a6.13,6.13,0,0,1,4-1.39,6,6,0,0,1,4.25,1.62,3.35,3.35,0,0,1,1.07,2.36A3.55,3.55,0,0,1,11.84,27.21Zm8.89.06a1.92,1.92,0,1,1,2.72,0A1.91,1.91,0,0,1,20.73,27.27Z"/><path class="cls-1" d="M30.17,40.17a8.41,8.41,0,0,0-2.34-5.93,6.29,6.29,0,0,0-4.19-1.89l-1.16.13-3.22-1.59-.21,0-.69,4a8.46,8.46,0,0,0-1.77,5.26,8.36,8.36,0,0,0,2.35,5.92A6.26,6.26,0,0,0,23.38,48C27.13,48,30.17,44.49,30.17,40.17Zm-6.79,5.31A3.37,3.37,0,0,1,21,44.41a6,6,0,0,1-1.62-4.24,6.23,6.23,0,0,1,1.39-4,3.55,3.55,0,0,1,2.59-1.31,3.35,3.35,0,0,1,2.36,1.07,6,6,0,0,1,1.62,4.25,6.13,6.13,0,0,1-1.39,4A3.51,3.51,0,0,1,23.38,45.48Z"/><path class="cls-1" d="M18.77,21.43,26,20,29.86,0A12.69,12.69,0,0,0,24,3.24a9.31,9.31,0,0,0-1.94,3.24Z"/></g></g></svg>