<svg xmlns="http://www.w3.org/2000/svg" viewBox="0 0 17.86 16.25"><defs><style>.cls-1{fill:#00558e;}</style></defs><g id="Layer_2" data-name="Layer 2"><g id="Design_2" data-name="Design 2"><path class="cls-1" d="M1,4.76H2.91a3.87,3.87,0,0,0,7.53,0h6.42a1,1,0,0,0,0-2H10.37A3.85,3.85,0,0,0,3,2.76H1a1,1,0,0,0,0,2ZM6.67,2A1.88,1.88,0,1,1,4.8,3.88,1.88,1.88,0,0,1,6.67,2Z"/><path class="cls-1" d="M16.86,11.49H15a3.87,3.87,0,0,0-7.53,0H1a1,1,0,0,0,0,2H7.49a3.85,3.85,0,0,0,7.39,0h2a1,1,0,0,0,0-2Zm-5.67,2.76a1.88,1.88,0,1,1,1.87-1.87A1.88,1.88,0,0,1,11.19,14.25Z"/></g></g></svg>