<svg xmlns="http://www.w3.org/2000/svg" viewBox="0 0 127.72 121.42"><defs><style>.cls-1{fill:#231f20;}</style></defs><g id="Layer_2" data-name="Layer 2"><g id="Layer_1-2" data-name="Layer 1"><path class="cls-1" d="M93.13,34.52c0,11.76-5.77,23.67-13.35,31.07-4.71,4.6-9.51,7.46-15.92,7.46s-11.21-2.86-15.92-7.46c-7.58-7.4-13.35-19.31-13.35-31.07,0-8.65.59-15.56,5-21.62C44.84,5.61,54.73,0,63.86,0s19,5.61,24.29,12.9C92.54,19,93.13,25.87,93.13,34.52Z"/><path class="cls-1" d="M127.72,121.42c-1-15.28-2-30.3-9.79-41.69-5.64-8.24-16.76-13.11-24.9-18.09-6.73,11.44-16.18,18-29.17,18s-22.44-6.53-29.17-18c-8.14,5-19.26,9.85-24.9,18.09C2,91.12,1,106.14,0,121.42Z"/></g></g></svg>