<svg xmlns="http://www.w3.org/2000/svg" viewBox="0 0 46.02 46.01"><g id="Layer_2" data-name="Layer 2"><g id="Common"><path id="Maintenance_Services" data-name="Maintenance Services" class="cls-1" d="M37.1,44.24l-8.55-8.55c.55-.55-.21-2.22-1.71-3.72a8.18,8.18,0,0,0-2.19-1.62l5.71-5.71A8.23,8.23,0,0,0,32,26.84c1.5,1.5,3.16,2.27,3.72,1.71l8.55,8.55a2.57,2.57,0,0,1,0,3.62l-3.52,3.52a2.57,2.57,0,0,1-3.62,0ZM20.33,30.37l10-10a5.65,5.65,0,0,1,4.71-1.54h0A9.45,9.45,0,0,0,45.59,6.66l-5.87,5.87-4.92-1.32L33.49,6.29,39.36.42A9.45,9.45,0,0,0,27.23,10.93h0a5.66,5.66,0,0,1-1.6,4.78l-9.92,9.92a5.66,5.66,0,0,1-4.78,1.61h0A9.45,9.45,0,0,0,.42,39.36l5.87-5.87,4.92,1.32,1.32,4.92L6.66,45.59A9.45,9.45,0,0,0,18.78,35.08h0a5.65,5.65,0,0,1,1.54-4.71ZM17.61,19.42,9.93,11.74,5.74,9.87,2.52,4.56l2-2L9.87,5.74l1.87,4.19,7.68,7.68-1.81,1.81ZM39.79,40.9a.46.46,0,0,0,.65,0l.46-.46a.46.46,0,0,0,0-.65L33,31.89a.46.46,0,0,0-.65,0l-.46.46a.46.46,0,0,0,0,.65Z"/></g></g></svg>