<svg xmlns="http://www.w3.org/2000/svg" viewBox="0 0 50 35"><g id="Layer_2" data-name="Layer 2"><g id="Layer_1-2" data-name="Layer 1"><path class="cls-1" d="M25,0C12.15,0,0,11.34,0,23.33v5C0,32.34,4,35,6.67,35H43.33A6.67,6.67,0,0,0,50,28.33v-5C50,11.56,37.62,0,25,0Zm0,4.87a2.5,2.5,0,1,1-2.5,2.5A2.5,2.5,0,0,1,25,4.87ZM8.54,26.21a2.5,2.5,0,1,1,2.5-2.5A2.5,2.5,0,0,1,8.54,26.21Zm2.2-8a2.5,2.5,0,1,1,2.5-2.5A2.5,2.5,0,0,1,10.75,18.17ZM16.82,12a2.5,2.5,0,1,1,2.5-2.5A2.5,2.5,0,0,1,16.82,12Zm17.87-1.76C33.8,13.18,30,25,30,25a5,5,0,1,1-7.58-4.26C24.72,17.91,31.61,9.46,32.6,8.59,33.8,7.55,35.57,7.34,34.69,10.26Zm1.94,5.23a2.5,2.5,0,1,1,2.5,2.5A2.5,2.5,0,0,1,36.63,15.49Zm4.72,10.71a2.5,2.5,0,1,1,2.5-2.5A2.5,2.5,0,0,1,41.35,26.21Z"/></g></g></svg>