<svg xmlns="http://www.w3.org/2000/svg" viewBox="0 0 50 45.81"><g id="Layer_2" data-name="Layer 2"><g id="Common"><path class="cls-1" d="M41.64,6.25V6.1A6.14,6.14,0,0,0,35.47,0a6.27,6.27,0,0,0-6.31,6.1v.15H20.83V6.1A6.21,6.21,0,0,0,14.58,0,6.07,6.07,0,0,0,8.49,6.1v.15H0V45.81H50V6.25Zm-8.32,0A1.9,1.9,0,0,1,35.4,4.16a1.9,1.9,0,0,1,2.08,2.08v4.16a1.9,1.9,0,0,1-2.08,2.08,1.9,1.9,0,0,1-2.08-2.08Zm-20.82,0a1.9,1.9,0,0,1,2.08-2.08,1.9,1.9,0,0,1,2.08,2.08v4.16a1.9,1.9,0,0,1-2.08,2.08,1.9,1.9,0,0,1-2.08-2.08ZM4.16,41.62v-25H45.8v25Z"/><polygon class="cls-1" points="35.4 27.07 27.07 27.07 27.07 18.74 22.91 18.74 22.91 27.07 14.58 27.07 14.58 31.23 22.91 31.23 22.91 39.56 27.07 39.56 27.07 31.23 35.4 31.23 35.4 27.07"/></g></g></svg>