<svg xmlns="http://www.w3.org/2000/svg" viewBox="0 0 40.08 50"><g id="Layer_2" data-name="Layer 2"><g id="Layer_1-2" data-name="Layer 1"><path class="cls-1" d="M37.83,48.16V25.92L29,23.07V7L15.57,0,2.26,6.94V48.16H0V50H40.08V48.16ZM7.21,45.81l-2.84.11V41.51l2.84-.26Zm0-8.14L4.37,38V33.63l2.84-.53Zm0-8.14-2.84.65V25.76L7.21,25Zm0-8.14-2.84.92V17.88l2.84-1.07Zm0-8.14L4.37,14.42V10L7.21,8.67Zm5.65,32.36-3.22.12V41l3.22-.3Zm0-8.68-3.22.43V32.65l3.22-.6Zm0-8.68L9.64,29V24.27l3.22-.91Zm0-8.68-3.22,1V15.9l3.22-1.21Zm0-8.68L9.64,12.22V7.53L12.86,6Zm8.89,34.82-3.2-.12V40.72l3.2.29Zm0-8.34-3.2-.43V32.08l3.2.6Zm0-8.34-3.2-.73V23.43l3.2.9Zm0-8.34-3.2-1V14.78l3.2,1.2Zm0-8.34L18.55,11V6.13l3.2,1.51ZM27,45.9l-2.83-.11V41.24L27,41.5ZM27,38l-2.83-.38V33.12l2.83.53Zm0-7.85-2.83-.65V25L27,25.8Zm0-7.85-2.83-.91V16.89L27,18Zm0-7.85-2.83-1.18V8.78L27,10.11ZM31.9,46.09,29.4,46V41.72l2.5.23Zm0-7.38-2.5-.33V34.1l2.5.47Zm0-7.38-2.5-.57V26.48l2.5.7ZM36,46.25l-2.24-.09v-4l2.24.21Zm0-7L33.75,39v-4l2.24.42Zm0-7-2.24-.51v-4l2.24.63Z"/></g></g></svg>