<svg xmlns="http://www.w3.org/2000/svg" viewBox="0 0 13 13"><g id="Layer_2" data-name="Layer 2"><g id="Layer_1-2" data-name="Layer 1"><path class="cls-1" d="M13,6.36s0-.07,0-.1a1.23,1.23,0,0,0,0-.14l0-.08a1.26,1.26,0,0,0-.07-.15l0-.06-.1-.14,0-.05h0L9,1.56a1,1,0,0,0-1.57,0,1.31,1.31,0,0,0,0,1.73l1.8,2H3.9A1.18,1.18,0,0,0,2.85,6.49,1.18,1.18,0,0,0,3.9,7.71H9.2l-1.8,2a1.31,1.31,0,0,0,0,1.73,1,1,0,0,0,1.57,0l3.71-4.08h0l0,0,.1-.14,0-.06a1.37,1.37,0,0,0,.07-.15l0-.08a1.31,1.31,0,0,0,0-.15s0-.07,0-.1,0-.08,0-.13S13,6.41,13,6.36Z"/><path class="cls-1" d="M3.06,11.64c-.51,0-1.2.14-1.61-.25s-.23-.74-.23-1.11V2.7a1.62,1.62,0,0,1,.23-1.11c.32-.41,1.17-.25,1.61-.25.79,0,.79-1.34,0-1.34a4.44,4.44,0,0,0-2,.26A2.26,2.26,0,0,0,0,2.29V10.7a2.36,2.36,0,0,0,1.05,2,3.54,3.54,0,0,0,2,.26C3.84,13,3.84,11.64,3.06,11.64Z"/></g></g></svg>