<svg xmlns="http://www.w3.org/2000/svg" viewBox="0 0 50 36.36"><g id="Layer_2" data-name="Layer 2"><g id="Layer_1-2" data-name="Layer 1"><path class="cls-1" d="M43.94,2.27v5.3H33.33V2.27H16.67v5.3H6.06V2.27H0V31.82a4.56,4.56,0,0,0,4.55,4.55H45.45A4.56,4.56,0,0,0,50,31.82V2.27ZM12.5,11.36a3.41,3.41,0,1,1-3.41,3.41A3.41,3.41,0,0,1,12.5,11.36Zm5.64,18.52c0-4.1-1.87-5.83-1.87-5.83v5.83a17.48,17.48,0,0,1-3.66.39,22.93,22.93,0,0,1-4-.39V24.06s-1.87,1.72-1.87,5.83a4.06,4.06,0,0,1-3.36,0s0-10.43,8.82-10.8v0h.45v0c8.82.38,8.82,10.8,8.82,10.8A4.05,4.05,0,0,1,18.14,29.88ZM42.42,15.14H24.24v-3H42.42Zm0,4.55H24.24v-3H42.42Zm0,4.55H24.24v-3H42.42Zm0,4.55H24.24v-3H42.42ZM36.36,0V4.55h4.55V0ZM9.09,4.55h4.55V0H9.09Z"/></g></g></svg>