<svg xmlns="http://www.w3.org/2000/svg" viewBox="0 0 9.26 10.98"><defs><style>.cls-1{fill:#fff;}</style></defs><g id="Layer_2" data-name="Layer 2"><g id="Isolation_Mode" data-name="Isolation Mode"><path class="cls-1" d="M0,11V4.89H1V3.59a3.69,3.69,0,0,1,.28-1.41A3.88,3.88,0,0,1,2.08,1,3.67,3.67,0,0,1,3.22.28,3.47,3.47,0,0,1,4.62,0,3.51,3.51,0,0,1,6,.28a3.64,3.64,0,0,1,1.14.77A3.56,3.56,0,0,1,8.22,3.59v1.3h1V11ZM6.86,3.59a2.12,2.12,0,0,0-.18-.87A2,2,0,0,0,6.21,2a2.52,2.52,0,0,0-.72-.48,2.11,2.11,0,0,0-.87-.17,2.06,2.06,0,0,0-.86.17A2.47,2.47,0,0,0,3.05,2a2.18,2.18,0,0,0-.48.7,2.29,2.29,0,0,0-.17.87v1.3H6.86Z"/></g></g></svg>