<svg xmlns="http://www.w3.org/2000/svg" viewBox="0 0 568.84 165"><defs><style>.cls-1{fill:#fff;}.cls-2{fill:#8abce5;}.cls-3{fill:#333;}.cls-4{fill:none;stroke:#dfe5e6;stroke-miterlimit:10;stroke-width:2px;}</style></defs><g id="Layer_2" data-name="Layer 2"><g id="Layer_1-2" data-name="Layer 1"><path class="cls-1" d="M339.76,47.35h7.68l34.86,33.44V47.35h5.15V85.42h-7.68L344.91,52V85.42h-5.15Z"/><path class="cls-1" d="M439.71,71.8c0,10.36-3.36,14-12.88,14H405.59c-10.3,0-13.56-4.63-13.56-14.25V61.18c0-9.62,3.26-14.25,13.56-14.25H425c6.83,0,14.14,1.68,14.14,10.46v1.37h-4.84c0-7.1-2.16-7.62-14.88-7.62H406.11c-4.94,0-8.94,1.47-8.94,8.1v14.3c0,6.62,4,8.1,8.94,8.1h20.14c5.15,0,8.31-1.79,8.31-7V70.75H415V66.54h24.66Z"/><path class="cls-1" d="M444.6,47.35H482v4.21H449.75V63.7h31v4.21h-31v13.3h32.44v4.21H444.6Z"/><path class="cls-1" d="M486.87,47.35H492V81.21h29.55v4.21h-34.7Z"/><path class="cls-1" d="M525.09,73.43h4.84v2.68c0,3.73,2,5.52,8.41,5.52h16c7.47,0,9.67-1.58,9.67-7,0-4.78-1.89-6-8.31-6h-9.78c-15.72,0-20.87-.95-20.87-11,0-8.67,5.15-10.62,15.77-10.62h11.09c12.78,0,16,3.26,16,10v1.31h-4.84c-.11-6-.74-7.15-14.25-7.15h-5.47c-9.94,0-13.46.53-13.46,6.78,0,4.52,1.42,6,9.46,6h15.25c10,0,14.25,2.89,14.25,9.36V75.8c0,9.36-7.68,10-15.3,10h-14.3c-7.52,0-14.14-1.31-14.14-9.62Z"/><path class="cls-1" d="M309.63,47.18h6.44l22.71,38.24h-5.86l-4.75-8.08H297.54l-4.75,8.08h-5.86Zm3.22,4.23L300,73.11h25.67Z"/><path class="cls-2" d="M286.92,92h5l13.3,33.28,13-33.28h6.62l12.88,33.44L351.27,92h5L341.18,130h-6.62L321.62,96.59,308.69,130h-6.62Z"/><path class="cls-2" d="M358.53,92h37.38v4.21H363.68v12.14h31v4.21h-31v13.3h32.44V130H358.53Z"/><path class="cls-2" d="M399.85,118h4.84v2.68c0,3.73,2,5.52,8.41,5.52h16c7.47,0,9.67-1.58,9.67-7,0-4.78-1.89-6-8.31-6h-9.78c-15.72,0-20.87-.95-20.87-11,0-8.67,5.15-10.62,15.77-10.62h11.09c12.78,0,16,3.26,16,10v1.31h-4.84c-.11-6-.74-7.15-14.25-7.15H418.1c-9.94,0-13.46.53-13.46,6.78,0,4.52,1.42,6,9.46,6h15.25c10,0,14.25,2.89,14.25,9.36v2.47c0,9.36-7.68,10-15.3,10H414c-7.52,0-14.14-1.31-14.14-9.62Z"/><path class="cls-2" d="M464.63,96.17H445.39V92H489v4.21H469.78V130h-5.15Z"/><polygon class="cls-3" points="120.94 43.38 172.21 129.73 160.62 129.73 120.93 62.47 81.25 129.73 69.65 129.73 120.94 43.38"/><polygon class="cls-1" points="120.94 43.38 172.21 129.73 160.62 129.73 120.93 62.47 81.25 129.73 69.65 129.73 120.94 43.38"/><path class="cls-2" d="M140.25,105l-6.63,11.87L120.83,95.32,108,117.16l-6.43-11.84-4,6.55,10.47,18.26,12.82-21.59,12.83,21.6,10.57-18.34Z"/><path class="cls-2" d="M71.89,112.72l.64-1.09c-2.38-.26-4.74-.59-7.08-1a56.43,56.43,0,0,1-16-5.37A31.22,31.22,0,0,1,37.54,94.58a25.57,25.57,0,0,1-3.12-7.09c-.1-.39-.18-.78-.26-1.18l.42.24a65.57,65.57,0,0,0,9.84,4.06,109.18,109.18,0,0,0,20.43,4.08c5.69.65,11.38.83,17,1.2l.17-.29C76.4,94.71,70.7,94,65.13,92.85A106.48,106.48,0,0,1,45.7,87.12a61.42,61.42,0,0,1-8.78-4.58,32.88,32.88,0,0,1-7.26-6.18,21.08,21.08,0,0,1-4.37-7.79,17.76,17.76,0,0,1-.52-2.52,76.73,76.73,0,0,0,12.91,5.23,142.94,142.94,0,0,0,21.89,4.79c7.36,1.07,14.74,1.76,22.12,2.26-7.32-1.12-14.6-2.42-21.77-4.09a140.18,140.18,0,0,1-21-6.47l-2.51-1c-.83-.36-1.64-.77-2.45-1.15s-1.63-.77-2.41-1.21-1.58-.84-2.35-1.29a41.34,41.34,0,0,1-8.33-6.25c-.6-.6-1.13-1.23-1.68-1.85a23.3,23.3,0,0,1-1.42-2,15.13,15.13,0,0,1-1.94-4.2,12.58,12.58,0,0,1-.49-3.51A76.61,76.61,0,0,0,25.58,50a173.62,173.62,0,0,0,29.54,7.71c9.11,1.66,18.28,2.83,27.47,3.75-.32,1.41-.59,2.85-.78,4.31a38.08,38.08,0,0,0-.24,8.05A39.9,39.9,0,0,0,83,81.64,46.69,46.69,0,0,0,86,89l1.52-2.56a45.84,45.84,0,0,1-1.16-5.51A36.6,36.6,0,0,1,87,66.71a68.61,68.61,0,0,1,2.18-6.89c.42-1.17.87-2.36,1.3-3.64a22.39,22.39,0,0,0,1-4.27,11.1,11.1,0,0,0,0-2.64,9.64,9.64,0,0,0-.8-2.83,11.13,11.13,0,0,0-3.51-4.15,29.15,29.15,0,0,0-7.77-3.83,107.45,107.45,0,0,0-15.2-3.67c-5-.91-10.13-1.53-15-2.24-9.85-1.39-19.73-3.13-29-6.28a60,60,0,0,1-6.64-2.74,21.53,21.53,0,0,1-5.41-3.71,3.81,3.81,0,0,1-.44-.51L7.55,19l-.13-.23a2.81,2.81,0,0,1-.2-.37s0,0,0,0h0s0-.12-.11-.47A2.58,2.58,0,0,0,5.61,16.3,2.64,2.64,0,0,0,3,16.55a2.82,2.82,0,0,0-.68.66c-.09.12-.15.21-.2.29L2,17.64A15.18,15.18,0,0,0,.39,21.89,15.59,15.59,0,0,0,1,30.73a20.82,20.82,0,0,0,4.52,7.15,34.58,34.58,0,0,0,3.21,3l0,.09a18.06,18.06,0,0,0-.25,3.41,19.23,19.23,0,0,0,1.29,6.56,21.42,21.42,0,0,0,3.17,5.59,29.21,29.21,0,0,0,2,2.36c.74.71,1.46,1.43,2.23,2.07l.43.34c0,.19,0,.38,0,.56a21.44,21.44,0,0,0,.16,3.05,24.08,24.08,0,0,0,1.47,5.8,27.14,27.14,0,0,0,6.47,9.5c.2.2.42.37.62.55l0,.45c0,.43.08.85.14,1.26.11.82.25,1.64.43,2.43a32.9,32.9,0,0,0,1.4,4.65A31.62,31.62,0,0,0,33,97.84,35.88,35.88,0,0,0,47.89,108.6a59.19,59.19,0,0,0,17.32,3.84C67.44,112.63,69.67,112.71,71.89,112.72ZM2,19.3c0-.17,0-.05,0,0ZM14.4,39.75l-.3-.21a29.75,29.75,0,0,1-5.25-4.7,16.16,16.16,0,0,1-3.33-5.66,10.64,10.64,0,0,1-.43-4.82A29.12,29.12,0,0,0,11,28.53a65.48,65.48,0,0,0,7.23,3.3A124,124,0,0,0,33,36.47c2.49.61,5,1.27,7.49,1.78s5,1.1,7.52,1.55c5.06,1,10,1.7,14.87,2.6,2.45.42,4.88.9,7.27,1.4s4.77,1,7,1.73A22.91,22.91,0,0,1,83.09,48a4.52,4.52,0,0,1,1.49,1.43,3.56,3.56,0,0,1,.36,1.92A35,35,0,0,1,83.46,58c-.24.84-.46,1.7-.67,2.57l-5-.79c-2.49-.4-5-.88-7.44-1.31-5-.9-9.89-1.9-14.79-3A170.76,170.76,0,0,1,27,46.56,69.69,69.69,0,0,1,16.21,41l.12-.24Z"/><line class="cls-4" x1="227.74" x2="227.74" y2="165"/></g></g></svg>