<svg xmlns="http://www.w3.org/2000/svg" viewBox="0 0 172.21 114.07"><defs><style>.cls-1{fill:#333;}.cls-2{fill:#fff;}.cls-3{fill:#8abce5;}</style></defs><g id="Layer_2" data-name="Layer 2"><g id="Layer_1-2" data-name="Layer 1"><polygon class="cls-1" points="120.94 27.3 172.21 113.65 160.62 113.65 120.93 46.39 81.25 113.65 69.65 113.65 120.94 27.3"/><polygon class="cls-2" points="120.94 27.3 172.21 113.65 160.62 113.65 120.93 46.39 81.25 113.65 69.65 113.65 120.94 27.3"/><path class="cls-3" d="M140.25,88.94l-6.63,11.87L120.83,79.24,108,101.09,101.6,89.25l-4,6.55,10.47,18.26,12.82-21.59,12.83,21.6,10.57-18.34Z"/><path class="cls-3" d="M71.89,96.65l.64-1.09c-2.38-.26-4.74-.59-7.08-1a56.43,56.43,0,0,1-16-5.37A31.22,31.22,0,0,1,37.54,78.5a25.57,25.57,0,0,1-3.12-7.09c-.1-.39-.18-.78-.26-1.18l.42.24a65.57,65.57,0,0,0,9.84,4.06,109.18,109.18,0,0,0,20.43,4.08c5.69.65,11.38.83,17,1.2l.17-.29c-5.67-.89-11.36-1.59-16.94-2.74A106.48,106.48,0,0,1,45.7,71a61.42,61.42,0,0,1-8.78-4.58,32.88,32.88,0,0,1-7.26-6.18,21.08,21.08,0,0,1-4.37-7.79A17.76,17.76,0,0,1,24.77,50a76.73,76.73,0,0,0,12.91,5.23A142.94,142.94,0,0,0,59.57,60c7.36,1.07,14.74,1.76,22.12,2.26-7.32-1.12-14.6-2.42-21.77-4.09a140.18,140.18,0,0,1-21-6.47l-2.51-1c-.83-.36-1.64-.77-2.45-1.15s-1.63-.77-2.41-1.21S30,47.47,29.22,47a41.34,41.34,0,0,1-8.33-6.25c-.6-.6-1.13-1.23-1.68-1.85a23.3,23.3,0,0,1-1.42-2,15.13,15.13,0,0,1-1.94-4.2,12.58,12.58,0,0,1-.49-3.51,76.61,76.61,0,0,0,10.22,4.69,173.62,173.62,0,0,0,29.54,7.71c9.11,1.66,18.28,2.83,27.47,3.75-.32,1.41-.59,2.85-.78,4.31a38.08,38.08,0,0,0-.24,8.05A39.9,39.9,0,0,0,83,65.56a46.69,46.69,0,0,0,3,7.33l1.52-2.56a45.84,45.84,0,0,1-1.16-5.51A36.6,36.6,0,0,1,87,50.63a68.61,68.61,0,0,1,2.18-6.89c.42-1.17.87-2.36,1.3-3.64a22.39,22.39,0,0,0,1-4.27,11.1,11.1,0,0,0,0-2.64,9.64,9.64,0,0,0-.8-2.83,11.13,11.13,0,0,0-3.51-4.15,29.15,29.15,0,0,0-7.77-3.83,107.45,107.45,0,0,0-15.2-3.67c-5-.91-10.13-1.53-15-2.24-9.85-1.39-19.73-3.13-29-6.28a60,60,0,0,1-6.64-2.74A21.53,21.53,0,0,1,8.19,3.73a3.81,3.81,0,0,1-.44-.51L7.55,3l-.13-.23a2.81,2.81,0,0,1-.2-.37s0,0,0,0h0s0-.12-.11-.47A2.58,2.58,0,0,0,5.61.22,2.64,2.64,0,0,0,3,.47a2.82,2.82,0,0,0-.68.66c-.09.12-.15.21-.2.29L2,1.57A15.18,15.18,0,0,0,.39,5.82,15.59,15.59,0,0,0,1,14.65a20.82,20.82,0,0,0,4.52,7.15,34.58,34.58,0,0,0,3.21,3l0,.09a18.06,18.06,0,0,0-.25,3.41,19.23,19.23,0,0,0,1.29,6.56,21.42,21.42,0,0,0,3.17,5.59,29.21,29.21,0,0,0,2,2.36c.74.71,1.46,1.43,2.23,2.07l.43.34c0,.19,0,.38,0,.56a21.44,21.44,0,0,0,.16,3.05,24.08,24.08,0,0,0,1.47,5.8,27.14,27.14,0,0,0,6.47,9.5c.2.2.42.37.62.55l0,.45c0,.43.08.85.14,1.26.11.82.25,1.64.43,2.43a32.9,32.9,0,0,0,1.4,4.65A31.62,31.62,0,0,0,33,81.76,35.88,35.88,0,0,0,47.89,92.52a59.19,59.19,0,0,0,17.32,3.84C67.44,96.55,69.67,96.63,71.89,96.65ZM2,3.23c0-.17,0-.05,0,0ZM14.4,23.67l-.3-.21a29.75,29.75,0,0,1-5.25-4.7A16.16,16.16,0,0,1,5.53,13.1a10.64,10.64,0,0,1-.43-4.82A29.12,29.12,0,0,0,11,12.45a65.48,65.48,0,0,0,7.23,3.3A124,124,0,0,0,33,20.4c2.49.61,5,1.27,7.49,1.78s5,1.1,7.52,1.55c5.06,1,10,1.7,14.87,2.6,2.45.42,4.88.9,7.27,1.4s4.77,1,7,1.73a22.91,22.91,0,0,1,5.94,2.44,4.52,4.52,0,0,1,1.49,1.43,3.56,3.56,0,0,1,.36,1.92,35,35,0,0,1-1.48,6.7c-.24.84-.46,1.7-.67,2.57l-5-.79c-2.49-.4-5-.88-7.44-1.31-5-.9-9.89-1.9-14.79-3A170.76,170.76,0,0,1,27,30.48,69.69,69.69,0,0,1,16.21,24.9l.12-.24Z"/></g></g></svg>