<svg xmlns="http://www.w3.org/2000/svg" viewBox="0 0 43.14 43.14"><defs><style>.cls-1{fill:#ddd;}</style></defs><title>gi_logo_white</title><g id="Layer_2" data-name="Layer 2"><g id="Layer_1-2" data-name="Layer 1"><path class="cls-1" d="M21.57,2.56a19,19,0,1,0,19,19A19,19,0,0,0,21.57,2.56ZM21.94,32a11.44,11.44,0,0,1-2.25.51,24.25,24.25,0,0,1-3.23.19A10.62,10.62,0,0,1,12.71,32a4.72,4.72,0,0,1-2.63-2,7.56,7.56,0,0,1-.92-3.66,21.18,21.18,0,0,1,.43-4.9,30.77,30.77,0,0,1,1.46-5.54,8.65,8.65,0,0,1,2.12-3.22c1.84-1.9,5.23-2.08,6.53-2.08a12.74,12.74,0,0,1,4.83.66l-.34,1.65H20.56a3,3,0,0,0-2.95,1.8,21.78,21.78,0,0,0-1.34,3,24.69,24.69,0,0,0-1,4.11,20.93,20.93,0,0,0-.4,4.08,9.06,9.06,0,0,0,.44,2.82,2.06,2.06,0,0,0,2.07,1.09L19,20.69h5.7l-2,11.06Zm8.33.28h-5.7l3.73-21.4H34ZM21.57,0A21.57,21.57,0,1,0,43.14,21.57,21.57,21.57,0,0,0,21.57,0Zm0,41.77a20.2,20.2,0,1,1,20.2-20.2A20.2,20.2,0,0,1,21.57,41.77Z"/></g></g></svg>