<?xml version="1.0" encoding="utf-8"?>
<!-- Generator: Adobe Illustrator 21.1.0, SVG Export Plug-In . SVG Version: 6.00 Build 0)  -->
<svg version="1.1" id="Layer_1" xmlns="http://www.w3.org/2000/svg" xmlns:xlink="http://www.w3.org/1999/xlink" x="0px" y="0px"
	 viewBox="0 0 43.1 43.1" style="enable-background:new 0 0 43.1 43.1;" xml:space="preserve">
<style type="text/css">
	.st0{opacity:0.3;}
	.st1{fill:#FFFFFF;}
</style>
<g id="Layer_2" class="st0">
	<g id="Layer_1-2">
		<path class="st1" d="M21.6,2.6c-10.5,0-19,8.5-19,19s8.5,19,19,19s19-8.5,19-19l0,0C40.6,11.1,32.1,2.6,21.6,2.6z M21.9,32
			c-0.7,0.2-1.5,0.4-2.3,0.5c-1.1,0.1-2.2,0.2-3.2,0.2c-1.3,0-2.6-0.2-3.8-0.7c-1.1-0.3-2-1-2.6-2c-0.6-1.1-0.9-2.4-0.9-3.7
			c0-1.6,0.1-3.3,0.4-4.9c0.3-1.9,0.8-3.7,1.5-5.5c0.5-1.2,1.2-2.3,2.1-3.2c1.8-1.9,5.2-2.1,6.5-2.1c1.6-0.1,3.3,0.1,4.8,0.7
			l-0.3,1.6h-3.6c-1.3-0.1-2.4,0.6-3,1.8c-0.5,1-1,2-1.3,3c-0.5,1.3-0.8,2.7-1,4.1c-0.3,1.3-0.4,2.7-0.4,4.1c0,1,0.1,1.9,0.4,2.8
			c0.4,0.8,1.2,1.2,2.1,1.1l1.6-9.1h5.7l-2,11.1L21.9,32z M30.3,32.3h-5.7l3.7-21.4H34L30.3,32.3z M21.6,0C9.7,0,0,9.7,0,21.6
			s9.7,21.6,21.6,21.6s21.6-9.7,21.6-21.6l0,0C43.1,9.7,33.5,0,21.6,0z M21.6,41.8c-11.2,0-20.2-9-20.2-20.2s9-20.2,20.2-20.2
			s20.2,9,20.2,20.2l0,0C41.8,32.7,32.7,41.8,21.6,41.8z"/>
	</g>
</g>
</svg>
