<?xml version="1.0" encoding="utf-8"?>
<!-- Generator: Adobe Illustrator 20.1.0, SVG Export Plug-In . SVG Version: 6.00 Build 0)  -->
<svg version="1.1" id="Layer_1" xmlns="http://www.w3.org/2000/svg" xmlns:xlink="http://www.w3.org/1999/xlink" x="0px" y="0px"
	 viewBox="0 0 19 18.4" style="enable-background:new 0 0 19 18.4;" xml:space="preserve">
<style type="text/css">
	.st0{fill:#FFFFFF;}
</style>
<title>right_arrow_blue</title>
<g id="Layer_2">
	<g id="Design_2">
		<path class="st0" d="M19,9.2l-1.4-1.4L9.9,0.5C9.1-0.2,7.8-0.2,7,0.6c0,0,0,0,0,0L6.5,1.2C5.8,2,5.8,3.2,6.6,4l1.5,1.4
			c0.8,0.8,0.6,1.4-0.6,1.4H2c-1.1,0-2,0.9-2,2v0.8c0,1.1,0.9,2,2,2h5.5c1.1,0,1.4,0.6,0.6,1.4l-1.5,1.4c-0.8,0.8-0.8,2-0.1,2.8
			c0,0,0,0,0,0l0.5,0.6c0.8,0.8,2,0.8,2.8,0.1c0,0,0,0,0,0l7.7-7.3L19,9.2z"/>
	</g>
</g>
</svg>
