<svg xmlns="http://www.w3.org/2000/svg" viewBox="0 0 28.5 19.5"><defs><style>.cls-1{fill:#fff;}</style></defs><title>tebori_email</title><g id="Layer_2" data-name="Layer 2"><g id="Design_2" data-name="Design 2"><path class="cls-1" d="M28.44.46A.74.74,0,0,0,28.3.26l0,0a.72.72,0,0,0-.18-.12L28,.06A.75.75,0,0,0,27.73,0H.75A.75.75,0,0,0,0,.75v18a.75.75,0,0,0,.75.75h27a.75.75,0,0,0,.75-.75V.75a.72.72,0,0,0,0-.2A.69.69,0,0,0,28.44.46Zm-2.52,1L14.21,13.15,2.56,1.5ZM27,18H1.5V2.56L13.68,14.74a.75.75,0,0,0,1.06,0L27,2.55Z"/></g></g></svg>