<svg xmlns="http://www.w3.org/2000/svg" viewBox="0 0 20.35 16.54"><defs><style>.cls-1{fill:#fff;}</style></defs><title>twitter_white</title><g id="Layer_2" data-name="Layer 2"><g id="Design_2" data-name="Design 2"><path class="cls-1" d="M0,14.66a11.82,11.82,0,0,0,6.4,1.88A11.81,11.81,0,0,0,18.27,4.12,8.46,8.46,0,0,0,20.35,2a8.34,8.34,0,0,1-2.4.66A4.18,4.18,0,0,0,19.79.3a8.37,8.37,0,0,1-2.65,1A4.18,4.18,0,0,0,10,5.13,11.85,11.85,0,0,1,1.42.76,4.18,4.18,0,0,0,2.71,6.34,4.16,4.16,0,0,1,.82,5.82,4.18,4.18,0,0,0,4.17,10,4.18,4.18,0,0,1,2.28,10a4.18,4.18,0,0,0,3.9,2.9A8.39,8.39,0,0,1,0,14.66Z"/></g></g></svg>