<svg xmlns="http://www.w3.org/2000/svg" viewBox="0 0 140.09 140.1"><defs><style>.cls-1{isolation:isolate;}.avatar-bg{fill:#87c6db;}.avatar-skin{fill:#fc9;}.avatar-hair{fill:#896349;}.avatar-shirt{fill:#5f3b75;}.avatar-white{fill:#fff;}.avatar-white-collar{fill:#b0adb2;}.avatar-bld-sl{mix-blend-mode:soft-light;}</style></defs><g class="cls-1"><g id="Layer_2" data-name="Layer 2"><g id="Layer_1-2" data-name="Layer 1"><rect class="avatar-bg" width="140.09" height="140.09"/><path class="avatar-skin" d="M104.52,69.65c.22-2.69.41-5.23.51-7.36.45-9.3-.31-19-6-26.72a31.71,31.71,0,0,0-23.9-13.13l-.49,0v-.37l-4.62.18-4.62-.18v.37l-.49,0A31.71,31.71,0,0,0,41.06,35.57c-5.67,7.71-6.43,17.42-6,26.72.1,2.14.29,4.68.51,7.38-4.83,1.89-7.8,7.4-6.79,13.15a10.39,10.39,0,0,0,9.46,8.89C43.12,105.32,52,110.35,61.43,112v17.86H78.68V112c9.55-1.59,18.63-6.62,23.24-20.26a10.39,10.39,0,0,0,9.43-8.89C112.37,77,109.38,71.52,104.52,69.65Z"/><path class="avatar-hair" d="M37.15,70.31c.26-5.15-.81-18.61,5.26-21,2.67-1.06,7.89,0,10.56.31a214.53,214.53,0,0,0,31.71.56C89.23,49.86,95.82,48.66,98,49c5.84.8,5.11,11.54,5.16,16.34,0,2.22,0,4.33,0,6.54,0,1.3,0,2.6,0,3.9,0,.53,0,1.95.76,1.87s1.11-2.93,1.23-3.54c1-4.6,1.42-9.64,2.67-14.12,2.05-7.35,3.61-18.25,1-24.34-.76-1.74-5.05-7.12-9.32-6.79,4.27-8.45-4.23-12.9-11.15-13.18-11.17-.45-20.38,2.08-30.81,5.58a49.37,49.37,0,0,0-15.2,8.09c-4.25,3.25-6.47,6.06-7.75,11.14-2.73,10.83-.82,23.15.76,34a31.1,31.1,0,0,0,.58,3.29c.61,2.34,1.45.67,1.42-.79C37.2,74.74,37,72.54,37.15,70.31Z"/><path class="avatar-shirt" d="M86.68,123.87l-.13-.88a.31.31,0,0,0-.22-.24l-4.17-1.54H82.1l-2-.76L79.87,122l-.94,3.75c-2.42.6-4.9,1.23-6.61,1.7l-2.81-2.3-2.85,2.13-5.77-1.4-.77-3.09-.56-2.29-1.92.71h0l-4.17,1.54a.31.31,0,0,0-.22.24l-.15,1c-7.91,2.7-12.81,4.69-15.88,7.93a25.61,25.61,0,0,0-1,8.17l67.69-.22a34.94,34.94,0,0,0-1-8C99.78,128.63,94.78,126.62,86.68,123.87Z"/><path class="avatar-white" d="M64.37,140c.85.07,1.7-.06,2.56,0l1.17-7.78-2-3.64-3.74,3.06Z"/><path class="avatar-white" d="M62,130.23l7.5-6.13.07,0,.1-.05.16,0h0l-8.42-5.22-1.87,1.77.56,2.29Z"/><path class="avatar-white" d="M72,132.31l1.17,7.78c.75,0,1.5,0,2.24-.08l2-8.29-3.53-2.88Z"/><path class="avatar-white" d="M78.68,118.73c.12,0-7.52,4.67-8.52,5.28h0a.64.64,0,0,1,.15.08l7.5,6.13L79.87,122l.27-1.54S78.56,118.69,78.68,118.73Z"/><path class="avatar-white-collar" d="M70.16,124h0a.65.65,0,0,0-.29-.06H69.8l-.16,0-.1.05-.07,0L62,130.23l.35,1.42,3.74-3.06,3.83-3.13,4,3.3,3.53,2.88.35-1.42-7.5-6.13A.64.64,0,0,0,70.16,124Z"/><g class="avatar-bld-sl"><path class="avatar-white" d="M60.12,122.79l-.56-2.29-1.92.71h0l-4.17,1.54a.31.31,0,0,0-.22.24l-.15,1L51.51,134.8a.32.32,0,0,0,.14.33l6.29,5c2.61,0,4,0,6.43-.06l-3.48-14.16Z"/><path class="avatar-white" d="M88.27,134.8l-1.59-10.93-.13-.88a.31.31,0,0,0-.22-.24l-4.17-1.54H82.1l-2-.76L79.87,122l-.94,3.75-1.12,4.49-.35,1.42-2,8.37c2.27-.17,4.23.24,6.43-.15l6.29-4.74A.32.32,0,0,0,88.27,134.8Z"/></g></g></g></g></svg>