<svg xmlns="http://www.w3.org/2000/svg" viewBox="0 0 140.09 140.23"><defs><style>.cls-1{isolation:isolate;}.avatar-bg{fill:#9cceb4;}.avatar-skin{fill:#865b2f;}.avatar-shirt{fill:#59772a;}.avatar-white{fill:#fff;}.avatar-op-80{opacity:0.8;}.avatar-bld-hl{mix-blend-mode:hard-light;}.avatar-white-collar{fill:#b0adb2;}.avatar-hair{fill:#331907;}.avatar-op-30{opacity:0.3;}</style></defs><g class="cls-1"><g id="Layer_2" data-name="Layer 2"><g id="Layer_1-2" data-name="Layer 1"><rect class="avatar-bg" width="140.09" height="140.09"/><path class="avatar-skin" d="M105.31,69.86c.22-2.69.41-5.23.51-7.36.45-9.3-.31-19-6-26.71A31.71,31.71,0,0,0,75.94,22.65l-.49,0v-.37l-4.62.18-4.62-.18v.37l-.49,0A31.71,31.71,0,0,0,41.85,35.78c-5.67,7.71-6.43,17.42-6,26.71.1,2.14.29,4.68.51,7.38-4.83,1.89-7.8,7.4-6.79,13.15a10.39,10.39,0,0,0,9.46,8.89c4.86,13.61,13.73,18.64,23.16,20.25V130H79.47V112.17c9.55-1.59,18.63-6.62,23.24-20.26A10.4,10.4,0,0,0,112.14,83C113.16,77.26,110.16,71.73,105.31,69.86Z"/><path class="avatar-shirt" d="M87.72,123.86l-.25-.09-2.59-.93-1.19-.43c-1-.69-12.85,1.74-12.85,1.74s-12.08-2.6-13.36-1.74l-2.19.79-2.05.76h0c-6.65,2.51-11.44,4.79-14.6,7.94-2.56,2.57-3,8.29-3,8.29L106.1,140s-.1-5.71-3-8.17C99.92,128.69,95,126.53,87.72,123.86Z"/><path class="avatar-white" d="M83.69,122.41c-1-.69-2.76-2.1-2.76-2.1s-1.58-1.86-1.46-1.82-8.63,5.66-8.63,5.66l-8.63-5.66-1.87,1.87s-1.58,1.19-2.86,2h0a48.21,48.21,0,0,0,9.35,17.72c.34,0,.68,0,1,0l1-7.35-2.37-4.51L70.7,125v-.25l.13.12.13-.12V125l4.19,3.32-2.37,4.51.94,7.35c.39,0,.79,0,1.18,0a55.29,55.29,0,0,0,8.79-17.72Z"/><path class="avatar-op-80 avatar-bld-hl" d="M75.15,128.27,71,125v-.25l-.13.12-.13-.12V125l-4.19,3.32,2.37,4.51-1,7.35c1,0,4.89,0,5.87,0l-1-7.35Z"/><path class="avatar-white-collar" d="M79.74,131.67l-8.63-7.46-.07,0-.12-.07-.12,0-.13,0-.13,0-.12,0-.12.07-.07,0-8.63,7.46a.66.66,0,1,0,.86,1l8.2-7.09,8.2,7.09a.66.66,0,1,0,.86-1Z"/><path class="avatar-hair" d="M37.54,70.94c.43-8.85.54-24.86,8.36-24.86,5.79,0,7.36,1.32,24.94,1.32,15.56,0,20.08-1.76,25.9-1.76,6.24,0,7.79,8.34,7.91,19.91,0,2.38.19,4.77.33,7.15.08,1.4.18,2.79.25,4.19,0,.57.18,2.09.92,1.94s.92-3.23,1-3.89a109.39,109.39,0,0,0,.75-14c0-8.57,2.48-25.08-13-35.37-9.54-6.33-29.26-7-40.24-3.37-7.65,2.5-15,9-17.7,16.57C33.94,47.08,34,53.58,35,70.05c.11,1.79.32,3.57.56,5.34a34.68,34.68,0,0,0,.6,3.54c.62,2.52,1.49.72,1.47-.85C37.59,75.7,37.43,73.33,37.54,70.94Z"/><g class="avatar-op-30"><path d="M87.47,123.77l-3.78-1.36a55.32,55.32,0,0,1-8.75,17.72c2-.12,3.58.06,6,0,2.46-3.94,4.92-10.07,6.75-16.27Z"/><path d="M57.48,122.41l-2.19.79-2.05.76a51.36,51.36,0,0,0,7.53,16.17c2,.29,4-.12,6.11,0a48.21,48.21,0,0,1-9.39-17.72Z"/></g></g></g></g></svg>