<svg xmlns="http://www.w3.org/2000/svg" viewBox="0 0 140.09 140.19"><defs><style>.cls-1{isolation:isolate;}.avatar-bg{fill:#f3b43e;}.avatar-hair{fill:#d86d25;}.avatar-skin{fill:#ffd4ae;}.avatar-shirt{fill:#b3365e;}.avatar-op-80{opacity:0.8;}.avatar-bld-sl{mix-blend-mode:soft-light;}</style></defs><g class="cls-1"><g id="Layer_2" data-name="Layer 2"><g id="Layer_1-2" data-name="Layer 1"><rect class="avatar-bg" width="140.09" height="140.09"/><path class="avatar-hair" d="M69.29,25.91c-3.3-8.3-23.93-4.11-25.35,6.29C29.68,34.65,28.05,49.6,31.65,58.77c-4.13-.25-6.77,7.73-3,11C20.16,71,20.16,80.7,24.55,84.16c-7,4-4.84,14.6,1,15.32-7.51,3.78-3.36,14.67,2.39,14.71-2.92,10.11,6.56,14.75,11,11.15.13,3.33,4.49,5.5,7.34,5.39,3.47-.13,6.92-.93,10.49-.93,4.32,0,9,.79,13.25.5,5.47-.37,10.69-.6,16-2,1.51-.4,3.7-1.12,5.37-.66,2.05.56,3.68,1.65,5.92,2.63,3.57,1.56,9.88-1.34,9.65-8.34,4.89,3.09,10.38-2.24,6.76-9.38,5.45.64,9.81-5,5.46-11.9,6-3.07,4.35-11.24.72-12.24,5.08-1.73,4.75-8.47-.53-11.24,2.75-2.11,1.06-7.5-3.29-8,1.59-5.86-3-9-6.93-8.53,4-1.15,4.4-9-1.67-9.56,5.63-5.89-1.83-15.25-7.11-15.37C102.49,16.85,73.58,20.44,69.29,25.91Z"/><path class="avatar-skin" d="M103.32,67.87c0-6.71-3-5-2.74-10.37.46-10,.3-3.32-5.55-11.62s-11.77-9.08-21.45-9.48L65,37.74c-9.68.4-13.35-1-19.19,7.32s-5.59,2.44-5.13,12.45c.24,5.23-1.85,4.31-2.12,10.21h0c-4,.49-6.72,4.75-6.13,9.51s4.2,8.13,8.12,7.74c3.84,14.3,15.26,20.86,24.22,22.87v21.47H76.52V107.9c8.72-1.82,19.5-7.94,24-22.93,3.91.37,7.51-3.06,8.09-7.75C109.2,72.79,106.85,68.8,103.32,67.87Z"/><path class="avatar-hair" d="M41.33,61.09c5.87,2.28,15.08-8.34,12.56-16.34-.25,3.2,15.07,9.12,19.84,1.75C74.91,55.69,86.23,57.63,90,54c-.17,6.83,7.32,12.3,10,9.49-1.59,1.69.66,8,4.66,8,6,0,.9-11,.55-13.86C104.14,48.71,99.68,39,92.08,33.84q-.73-.5-1.5-.93c-12.14-6.79-21.33.28-35.3,1.83-11.64,1.29-18.49,9-20.5,19.87a29.74,29.74,0,0,0-.15,10.62c.33,1.78,1.76,5.24,3.29,6.28C42.32,74.48,42.44,63.48,41.33,61.09Z"/><path class="avatar-shirt" d="M93.17,129.86c-2.7-8-3.95-9.22-13.38-13.44-.12-.05-3.35-1.92-3.35-1.92l-5.85,11.77L67.72,121l-3.06-6.55s-2.75,1.66-2.84,1.7c-9.88,4.4-11.18,5.67-13.88,13.66-.33,1-1.56,7.58-2.15,10.18,8.56.06,41.06.06,50.11.15C95.28,137.52,93.5,130.84,93.17,129.86Zm-37.49,6.47a5.39,5.39,0,0,1,1-3.87C56.32,133.72,56,135,55.68,136.33Zm29.9,0c-.32-1.32-.64-2.61-1-3.87A5.4,5.4,0,0,1,85.58,136.33Z"/><path class="avatar-bld-sl avatar-op-80" d="M79.39,116.65a.63.63,0,1,0-1.26.17L79,123l-5.55-2.63-3,5.19-2.75-5L62,123.09l.85-6.27a.63.63,0,1,0-1.26-.17l-1.15,8.5,6.72-2.95,2.74,5,0,0a.62.62,0,0,0,.19.19l.12,0a.64.64,0,0,0,.23.06h0a.62.62,0,0,0,.3-.08h0l0,0a.62.62,0,0,0,.18-.18l0,0,2.94-5.15,6.6,3.13Z"/></g></g></g></svg>