<svg xmlns="http://www.w3.org/2000/svg" viewBox="0 0 140.09 140.14"><defs><style>.cls-1{isolation:isolate;}.avatar-bg{fill:#dd6f8e;}.avatar-hair{fill:#4f2f19;}.avatar-skin{fill:#fc9;}.avatar-shirt{fill:#3c313f;}.avatar-white{fill:#fff;}.avatar-op-80{opacity:0.8;}.avatar-bld-sl{mix-blend-mode:soft-light;}.avatar-white-collar{fill:#b0adb2;}</style></defs><g class="cls-1"><g id="Layer_2" data-name="Layer 2"><g id="Layer_1-2" data-name="Layer 1"><rect class="avatar-bg" width="140.09" height="140.09"/><path class="avatar-hair" d="M112.84,89.19C112.84,109,98.84,124,79,124H62.64c-19.82,0-33.81-15-33.81-34.85l1-30.62c0-19.82,17.29-41.07,41-41.07h0c25.63,0,41,21.25,41,41.07Z"/><path class="avatar-skin" d="M101.3,55.55c.46-10,2.67-12.15-3.17-20.45s-11.84-8.54-21.52-8.94H66.1c-9.68.4-15.68.66-21.52,8.94s-3.63,10.44-3.17,20.45c.35,7.56-4.17,2.25-1,23.28,2.56,17.24,15.3,24.87,25.1,27.06v16H77.24V106c9.49-2,21.43-9.05,25.1-27.13C106.84,56.7,100.95,63.11,101.3,55.55Z"/><path class="avatar-shirt" d="M94,126.2c-2.43-7.17-3.71-8.91-10.83-12.27l0-.27a.22.22,0,0,0-.16-.17l-3-1.1h0l-1.4-.54v0c-.7-.55-6,7.48-7.23,7.86-1.25-.38-6.63-8.33-7.41-7.82v0l-1.36.5h0l-3,1.1a.22.22,0,0,0-.16.17l-.05.38c-6.94,3.31-8.24,5.16-10.61,12.16-.47,1.38-1.29,4.87-2.23,9.2-.54,3.05-1,4.73-1,4.73H97.12l-1-5.11C95.21,130.86,94.42,127.53,94,126.2Z"/><path class="avatar-white" d="M78.54,111.89c-.7-.55-1.3-1.05-1.3-1.05s-4.74,2.49-6,2.87a63.41,63.41,0,0,1-5.79-2.87s-.78.58-1.55,1.1l.39,1.59,6.54,26.61h.84l6.67-27.18Z"/><path class="avatar-hair" d="M79.77,22.77C64.5,20.63,52.13,23.4,43,35.08,37.51,42.14,33.25,51,34.16,60.26c.46,4.67,2.46,6.89,6.23,3.67a15.58,15.58,0,0,0,5.06-10.71c1.65,6.49,13.63,2,16-5.24,1.84,10.35,23.6,1,23.56-6.9,0,8,10.82,4.72,13.31,1.41.52,7.83,3.91,20.59,6.55,22C107.73,47.25,104,26.16,79.77,22.77Z"/><g class="avatar-op-80 avatar-bld-sl"><path class="avatar-white" d="M63.91,111.93v0l-1.36.5h0l-3,1.1a.22.22,0,0,0-.16.17l-.05.38-1.17,8a.22.22,0,0,0,.1.23L63,125.35l-1.83,5.06a.22.22,0,0,0,.06.24l7.69,9.48c.64,0,1.29,0,1.94,0v-.38L64.3,113.52Z"/><path class="avatar-white" d="M84.33,122.06l-1.18-8.13,0-.27a.22.22,0,0,0-.16-.17l-3-1.1h0l-1.4-.54v0l-.19,1.06-6.67,27.18c.65,0,1.3,0,1.95,0l7.67-9.48a.22.22,0,0,0,.06-.24l-1.83-5.06,4.71-3.05A.22.22,0,0,0,84.33,122.06Z"/></g><path class="avatar-white-collar" d="M71.66,114.18l-.06,0-.11-.06-.12,0h-.24l-.12,0-.11.06-.06,0-5.3,4.33.31,1.24a.64.64,0,0,0,.41-.14l5-4.08,5,4.08a.64.64,0,0,0,.41.15h0l.3-1.22Z"/></g></g></g></svg>